STARTFONT 2.1
COMMENT
COMMENT Converted from OpenType font "UbuntuMono-Italic.ttf" by "otf2bdf 3.0".
COMMENT
FONT -FreeType-Ubuntu Mono-Medium-I-Normal--89-640-100-100-P-412-ISO10646-1
SIZE 64 100 100
FONTBOUNDINGBOX 78 89 -19 -15
STARTPROPERTIES 19
FOUNDRY "FreeType"
FAMILY_NAME "Ubuntu Mono"
WEIGHT_NAME "Medium"
SLANT "I"
SETWIDTH_NAME "Normal"
ADD_STYLE_NAME ""
PIXEL_SIZE 89
POINT_SIZE 640
RESOLUTION_X 100
RESOLUTION_Y 100
SPACING "P"
AVERAGE_WIDTH 412
CHARSET_REGISTRY "ISO10646"
CHARSET_ENCODING "1"
FONT_ASCENT 73
FONT_DESCENT 15
COPYRIGHT "Copyright 2011 Canonical Ltd.  Licensed under the Ubuntu Font Licence 1.0"
_OTF_FONTFILE "UbuntuMono-Italic.ttf"
_OTF_PSNAME "UbuntuMono-Italic"
ENDPROPERTIES
CHARS 1224
STARTCHAR 0000
ENCODING 0
SWIDTH 495 0
DWIDTH 44 0
BBX 0 0 0 0
BITMAP
ENDCHAR
STARTCHAR 0008
ENCODING 8
SWIDTH 495 0
DWIDTH 44 0
BBX 0 0 0 0
BITMAP
ENDCHAR
STARTCHAR 0009
ENCODING 9
SWIDTH 495 0
DWIDTH 44 0
BBX 0 0 0 0
BITMAP
ENDCHAR
STARTCHAR 000D
ENCODING 13
SWIDTH 495 0
DWIDTH 44 0
BBX 0 0 0 0
BITMAP
ENDCHAR
STARTCHAR 001D
ENCODING 29
SWIDTH 495 0
DWIDTH 44 0
BBX 0 0 0 0
BITMAP
ENDCHAR
STARTCHAR 0020
ENCODING 32
SWIDTH 495 0
DWIDTH 44 0
BBX 0 0 0 0
BITMAP
ENDCHAR
STARTCHAR 0021
ENCODING 33
SWIDTH 495 0
DWIDTH 44 0
BBX 22 56 15 -1
BITMAP
0003FC
0003F8
0007F8
0007F8
0007F8
0007F0
000FF0
000FF0
000FF0
000FF0
001FE0
001FE0
001FE0
001FE0
003FC0
003FC0
003FC0
003FC0
007F80
007F80
007F80
007F80
007F00
007F00
00FF00
00FE00
00FE00
00FE00
00FC00
00FC00
01FC00
01F800
01F800
01F800
01F000
01F000
000000
000000
000000
000000
000000
000000
000000
000000
0F8000
3FE000
3FE000
7FF000
7FF000
FFF000
FFF000
FFF000
7FE000
7FE000
3FC000
1F0000
ENDCHAR
STARTCHAR 0022
ENCODING 34
SWIDTH 495 0
DWIDTH 44 0
BBX 25 22 20 38
BITMAP
1FC03F80
1FC03F00
1FC07F00
1F807F00
3F807F00
3F807F00
3F80FE00
3F00FE00
7F00FE00
7F00FC00
7E00FC00
7E00FC00
7E01F800
7C01F800
7C01F800
FC01F000
F801F000
F801F000
F801E000
F001E000
F003E000
F003C000
ENDCHAR
STARTCHAR 0023
ENCODING 35
SWIDTH 495 0
DWIDTH 44 0
BBX 46 55 4 0
BITMAP
000001FC00FC
000001F801FC
000003F801F8
000003F003F8
000007F003F8
000007F007F0
000007E007F0
00000FE007E0
00000FC00FE0
00001FC00FC0
00001FC01FC0
00003F801FC0
00003F803F80
00003F003F80
00007F003F00
03FFFFFFFFFC
03FFFFFFFFFC
03FFFFFFFFF8
07FFFFFFFFF8
07FFFFFFFFF8
0003F801FC00
0003F803F800
0007F003F800
0007F003F000
0007E007F000
000FE007F000
000FE00FE000
001FC00FE000
001FC01FC000
003F801FC000
003F801F8000
003F003F8000
007F003F0000
007E007F0000
00FE007F0000
7FFFFFFFFF80
7FFFFFFFFF80
7FFFFFFFFF00
7FFFFFFFFF00
FFFFFFFFFF00
FFFFFFFFFF00
07F003F80000
07F007F00000
0FE007F00000
0FE007E00000
0FC00FE00000
1FC00FC00000
1F801FC00000
3F801FC00000
3F803F800000
7F003F800000
7F003F000000
7E007F000000
FE007E000000
FC00FE000000
ENDCHAR
STARTCHAR 0024
ENCODING 36
SWIDTH 495 0
DWIDTH 44 0
BBX 41 71 6 -9
BITMAP
0000001F8000
0000001F8000
0000003F8000
0000003F8000
0000003F8000
0000003F0000
0000003F0000
0000007F0000
0000007F0000
0000007F8000
00000FFFF800
00007FFFFE00
0000FFFFFF80
0003FFFFFF80
0007FFFFFF80
000FFFFFFF00
000FFC001E00
001FF0000600
001FE0000000
003FC0000000
003F80000000
003F80000000
003F80000000
003F80000000
003F80000000
003F80000000
003F80000000
003FC0000000
003FE0000000
001FF8000000
001FFC000000
000FFF000000
0007FFC00000
0003FFF00000
0001FFFC0000
00007FFE0000
00001FFF0000
000007FF8000
000001FFC000
0000007FC000
0000003FE000
0000001FE000
0000000FE000
0000000FF000
0000000FF000
0000000FF000
0000000FF000
0000000FE000
0000000FE000
0000001FE000
0000001FE000
1800003FC000
1E0000FFC000
3FC003FF8000
3FFFFFFF0000
7FFFFFFE0000
FFFFFFFC0000
3FFFFFF00000
0FFFFFE00000
01FFFF000000
0007E0000000
000FE0000000
000FE0000000
000FC0000000
000FC0000000
001FC0000000
001FC0000000
001F80000000
001F80000000
003F80000000
003F80000000
ENDCHAR
STARTCHAR 0025
ENCODING 37
SWIDTH 495 0
DWIDTH 44 0
BBX 52 57 1 -1
BITMAP
00007F00000000
0001FF800003F0
0003FFC00007E0
0007FFE0000FE0
000FEFE0001FC0
001F87F0003F80
001F03F0003F00
003F03F0007E00
003E03F000FC00
007E03F001F800
007C03F003F800
007C03F007F000
00FC03F00FE000
00FC03F00FC000
00F803F01F8000
00F803E03F0000
00F807E07E0000
00F807E0FE0000
00F807C1FC0000
00F80FC1F80000
00FC0FC3F00000
00FC1F87E00000
00FE7F0FC00000
007FFE1FC00000
007FFE3F800000
003FF87F000000
001FF07E000000
000000FC000000
000001F8000000
000003F0000000
000007F0FF8000
00000FE1FFC000
00001FC3FFE000
00001F87FFE000
00003F0FE7F000
00007E1F83F000
0000FC1F83F000
0001FC3F01F000
0003F83E01F000
0007F07E01F000
0007E07E01F000
000FC07C01F000
001F807C01F000
003F807C03F000
007F00FC03F000
00FE00FC03F000
00FC00FC03E000
01F800FC07E000
03F000FC07E000
07E000FC0FC000
0FE000FC0FC000
1FC0007E1F8000
3F80007FFF0000
3F00007FFF0000
7E00003FFE0000
FC00001FF80000
0000000FE00000
ENDCHAR
STARTCHAR 0026
ENCODING 38
SWIDTH 495 0
DWIDTH 44 0
BBX 39 57 5 -1
BITMAP
000007FE00
00001FFF80
00007FFFC0
0000FFFFE0
0001FFFFE0
0003FFFFF0
0007F80FF0
000FF007F0
000FE007F0
001FE007F0
001FC007F0
001FC007F0
001FC007F0
003F8007E0
003F800FE0
003F800FE0
003F801FC0
003F803FC0
003F807F80
001FC0FF00
001FC1FE00
001FC3FC00
001FEFF800
000FFFF000
000FFFE000
0007FF8000
000FFE0080
001FFC00FE
007FFC00FC
00FFFE01FC
01FFFE01FC
03FCFF01F8
07F87F83F8
0FF03F83F8
1FE03FC3F0
1FC01FC7F0
3F800FE7E0
3F800FFFE0
7F0007FFC0
7F0007FFC0
7F0003FF80
FF0003FF80
FF0001FF00
FF0000FF00
FF0000FF00
FF0001FF00
FF0003FF00
FF0007FF80
7F800FFF80
7FC03FFFC0
7FFBFFDFC0
3FFFFF9FC0
1FFFFF1FE0
1FFFFC1FE0
07FFF80FE0
03FFC00FF0
007E000000
ENDCHAR
STARTCHAR 0027
ENCODING 39
SWIDTH 495 0
DWIDTH 44 0
BBX 11 23 27 37
BITMAP
0FE0
1FE0
1FE0
1FC0
1FC0
3FC0
3FC0
3F80
3F80
3F80
7F80
7F00
7F00
7F00
7E00
7E00
FE00
FC00
FC00
FC00
F800
F800
F800
ENDCHAR
STARTCHAR 0028
ENCODING 40
SWIDTH 495 0
DWIDTH 44 0
BBX 33 77 13 -15
BITMAP
0000000600
0000000F00
0000003F00
0000007F80
000000FF80
000003FF80
000007FF00
00000FFC00
00001FF800
00003FF000
00007FC000
0000FF8000
0001FF0000
0003FE0000
0007FC0000
000FF80000
000FF00000
001FE00000
003FE00000
007FC00000
007F800000
00FF000000
01FF000000
01FE000000
03FC000000
03FC000000
07F8000000
07F0000000
0FF0000000
0FE0000000
0FE0000000
1FC0000000
1FC0000000
3FC0000000
3F80000000
3F80000000
7F80000000
7F00000000
7F00000000
7F00000000
7F00000000
FE00000000
FE00000000
FE00000000
FE00000000
FE00000000
FE00000000
FE00000000
FE00000000
FE00000000
FE00000000
FE00000000
FE00000000
FE00000000
FF00000000
7F00000000
7F00000000
7F00000000
7F80000000
3F80000000
3F80000000
3FC0000000
1FC0000000
1FE0000000
1FE0000000
0FF0000000
0FF8000000
07F8000000
03FC000000
03FE000000
01FF000000
00FF000000
00FF800000
007F000000
003E000000
001C000000
0008000000
ENDCHAR
STARTCHAR 0029
ENCODING 41
SWIDTH 495 0
DWIDTH 44 0
BBX 34 76 5 -15
BITMAP
00000C0000
00000E0000
00001F0000
00003F8000
00007FC000
00007FC000
00003FE000
00001FF000
00000FF000
000007F800
000007F800
000003FC00
000003FC00
000001FE00
000001FE00
000000FE00
000000FF00
0000007F00
0000007F00
0000007F80
0000007F80
0000003F80
0000003F80
0000003F80
0000003F80
0000003F80
0000003FC0
0000001FC0
0000001FC0
0000001FC0
0000001FC0
0000003F80
0000003F80
0000003F80
0000003F80
0000003F80
0000003F80
0000003F80
0000007F00
0000007F00
0000007F00
000000FF00
000000FE00
000000FE00
000001FE00
000001FC00
000003FC00
000003F800
000007F800
000007F800
00000FF000
00000FE000
00001FE000
00003FC000
00003FC000
00007F8000
0000FF0000
0001FF0000
0001FE0000
0003FC0000
0007FC0000
000FF80000
001FF00000
003FE00000
007FC00000
00FF800000
03FF000000
07FE000000
0FFC000000
3FF8000000
7FF0000000
FFE0000000
7F80000000
7F00000000
3E00000000
3800000000
ENDCHAR
STARTCHAR 002A
ENCODING 42
SWIDTH 495 0
DWIDTH 44 0
BBX 33 33 13 22
BITMAP
0007F00000
0007F00000
0007F00000
0007F00000
0007F00000
0007F00000
0007F00000
0007F00000
6007F00200
7803E00F00
7E03E07F00
FF83E1FF00
FFE3E7FF80
FFFBEFFF80
FFFFFFFF80
FFFFFFFF80
0FFFFFF800
003FFE0000
0007F00000
001FF80000
003FFC0000
007F7E0000
00FE7F8000
01FE3FC000
03FC3FC000
03FC1FE000
07FC1FF000
0FF80FF800
0FF00FF800
07F007F000
01E003C000
00C0038000
0040000000
ENDCHAR
STARTCHAR 002B
ENCODING 43
SWIDTH 495 0
DWIDTH 44 0
BBX 37 39 8 4
BITMAP
00000FC000
00001FC000
00001FC000
00001FC000
00001F8000
00003F8000
00003F8000
00003F8000
00003F0000
00007F0000
00007F0000
00007F0000
00007E0000
0000FE0000
0000FE0000
0000FE0000
0000FE0000
7FFFFFFFF8
7FFFFFFFF0
FFFFFFFFF0
FFFFFFFFF0
FFFFFFFFF0
FFFFFFFFE0
0003F80000
0003F80000
0003F00000
0007F00000
0007F00000
0007F00000
0007E00000
000FE00000
000FE00000
000FE00000
000FC00000
001FC00000
001FC00000
001FC00000
001F800000
003F800000
ENDCHAR
STARTCHAR 002C
ENCODING 44
SWIDTH 495 0
DWIDTH 44 0
BBX 20 25 9 -13
BITMAP
003F80
007FC0
00FFE0
01FFE0
01FFE0
01FFF0
03FFF0
03FFF0
01FFF0
01FFE0
00FFE0
00FFE0
003FE0
001FC0
003FC0
003F80
00FF00
03FF00
0FFE00
FFFC00
7FF000
7FE000
7F8000
7E0000
600000
ENDCHAR
STARTCHAR 002D
ENCODING 45
SWIDTH 495 0
DWIDTH 44 0
BBX 21 7 16 19
BITMAP
7FFFF8
7FFFF0
7FFFF0
FFFFF0
FFFFF0
FFFFF0
FFFFE0
ENDCHAR
STARTCHAR 002E
ENCODING 46
SWIDTH 495 0
DWIDTH 44 0
BBX 14 14 15 -1
BITMAP
0100
0FE0
3FF0
3FF8
7FF8
7FF8
7FFC
FFF8
FFF8
7FF8
7FF0
7FF0
3FE0
0F80
ENDCHAR
STARTCHAR 002F
ENCODING 47
SWIDTH 495 0
DWIDTH 44 0
BBX 50 77 -1 -15
BITMAP
00000000003FC0
00000000003F80
00000000007F80
00000000007F00
0000000000FF00
0000000000FE00
0000000001FC00
0000000003FC00
0000000003F800
0000000007F800
0000000007F000
000000000FF000
000000000FE000
000000001FE000
000000001FC000
000000003F8000
000000007F8000
000000007F0000
00000000FF0000
00000000FE0000
00000001FE0000
00000001FC0000
00000003F80000
00000007F80000
00000007F00000
0000000FF00000
0000000FE00000
0000001FE00000
0000001FC00000
0000003FC00000
0000007F800000
0000007F000000
000000FF000000
000000FE000000
000001FE000000
000001FC000000
000003FC000000
000003F8000000
000007F0000000
00000FF0000000
00000FE0000000
00001FE0000000
00001FC0000000
00003FC0000000
00003F80000000
00007F80000000
0000FF00000000
0000FE00000000
0001FE00000000
0001FC00000000
0003FC00000000
0003F800000000
0007F800000000
0007F000000000
000FE000000000
001FE000000000
001FC000000000
003FC000000000
003F8000000000
007F8000000000
007F0000000000
00FF0000000000
01FE0000000000
01FC0000000000
03FC0000000000
03F80000000000
07F80000000000
07F00000000000
0FF00000000000
0FE00000000000
1FC00000000000
3FC00000000000
3F800000000000
7F800000000000
7F000000000000
FF000000000000
FE000000000000
ENDCHAR
STARTCHAR 0030
ENCODING 48
SWIDTH 495 0
DWIDTH 44 0
BBX 40 57 7 -1
BITMAP
000007FF00
00001FFFC0
00007FFFE0
0000FFFFF0
0003FFFFF8
0007FFFFF8
000FFE0FFC
001FF803FC
001FF001FE
003FE001FE
007FC001FE
00FF8000FE
00FF0000FE
01FE0000FE
01FE0000FF
03FC0000FF
03FC0000FF
07F80000FF
07F80000FF
07F00000FE
0FF00000FE
0FE00000FE
1FE03F00FE
1FE0FF80FE
1FC0FF81FE
1FC1FF81FE
3FC1FFC1FE
3FC1FFC1FC
3F81FF81FC
3F81FF83FC
7F81FF83FC
7F80FF03F8
7F007E03F8
7F000007F8
7F000007F8
7F000007F0
7F00000FF0
7F00000FE0
FF00001FE0
FF00001FE0
FF00003FC0
FF00003FC0
7F00007F80
7F00007F80
7F0000FF00
7F0001FF00
7F8003FE00
7F8007FC00
7FC00FF800
3FE01FF800
3FF8FFF000
1FFFFFE000
1FFFFFC000
0FFFFF0000
07FFFE0000
03FFF80000
007FE00000
ENDCHAR
STARTCHAR 0031
ENCODING 49
SWIDTH 495 0
DWIDTH 44 0
BBX 33 55 8 0
BITMAP
0000001F80
0000003F00
000000FF00
000001FF00
000003FF00
00000FFE00
00001FFE00
00007FFE00
0001FFFE00
0007FFFC00
003FFFFC00
00FFFDFC00
00FFF3FC00
007FE3F800
007F83F800
007E03F800
007007F800
000007F000
000007F000
000007F000
00000FF000
00000FE000
00000FE000
00000FE000
00001FE000
00001FE000
00001FC000
00001FC000
00003FC000
00003FC000
00003F8000
00003F8000
00007F8000
00007F8000
00007F0000
00007F0000
00007F0000
0000FF0000
0000FE0000
0000FE0000
0000FE0000
0001FE0000
0001FC0000
0001FC0000
0001FC0000
0003FC0000
0003F80000
0003F80000
0003F80000
7FFFFFFE00
7FFFFFFE00
7FFFFFFE00
7FFFFFFC00
7FFFFFFC00
FFFFFFFC00
ENDCHAR
STARTCHAR 0032
ENCODING 50
SWIDTH 495 0
DWIDTH 44 0
BBX 41 56 6 0
BITMAP
00000FFF0000
00007FFFC000
0001FFFFF000
0007FFFFF800
000FFFFFFC00
003FFFFFFE00
001FFC0FFE00
001FE001FF00
000F8000FF00
000E0000FF00
000C00007F00
000000007F80
000000007F80
000000007F80
000000007F00
000000007F00
00000000FF00
00000000FF00
00000000FF00
00000001FE00
00000003FE00
00000003FC00
00000007FC00
0000000FF800
0000001FF000
0000003FF000
0000007FE000
000001FFC000
000003FF8000
000007FE0000
00001FFC0000
00003FF80000
00007FF00000
0001FFC00000
0003FF800000
0007FF000000
000FFC000000
001FF8000000
007FF0000000
00FFC0000000
00FF80000000
01FF00000000
03FE00000000
07FC00000000
0FF800000000
0FF000000000
1FF000000000
1FE000000000
3FC000000000
3FC000000000
7FFFFFFFC000
7FFFFFFF8000
7FFFFFFF8000
7FFFFFFF8000
FFFFFFFF8000
FFFFFFFF0000
ENDCHAR
STARTCHAR 0033
ENCODING 51
SWIDTH 495 0
DWIDTH 44 0
BBX 40 57 6 -1
BITMAP
00000FFE00
0000FFFFC0
0003FFFFE0
000FFFFFF8
000FFFFFF8
000FFFFFFC
0007F00FFE
00078003FE
00060001FE
00000000FE
00000000FF
00000000FF
00000000FF
00000000FF
00000000FF
00000000FE
00000001FE
00000001FE
00000003FC
00000007FC
0000000FF8
0000001FF0
0000007FE0
000007FFC0
0001FFFF80
0001FFFE00
0001FFF800
0001FFFC00
0001FFFE00
0003FFFF80
000003FF80
0000007FC0
0000003FE0
0000001FE0
0000000FE0
0000000FF0
0000000FF0
0000000FF0
0000000FF0
0000000FF0
0000000FF0
0000000FF0
0000000FF0
0000000FE0
0000001FE0
0000003FE0
0000003FC0
000000FFC0
300001FF80
7C0007FF80
7FE0FFFF00
FFFFFFFE00
FFFFFFFC00
FFFFFFF000
FFFFFFC000
1FFFFF0000
03FFF00000
ENDCHAR
STARTCHAR 0034
ENCODING 52
SWIDTH 495 0
DWIDTH 44 0
BBX 41 55 4 0
BITMAP
000000003F80
00000000FF80
00000001FF80
00000003FF80
00000007FF00
0000000FFF00
0000003FFF00
0000007FFF00
000000FFFE00
000001FFFE00
000003FEFE00
000007F8FE00
00000FF1FC00
00001FE1FC00
00003FC1FC00
00007F81FC00
0000FF03F800
0000FE03F800
0001FC03F800
0003F803F800
0007F007F000
000FF007F000
001FE007F000
003FC007F000
003F800FF000
007F000FE000
00FE000FE000
01FE000FE000
01FC001FE000
03F8001FC000
07F0001FC000
0FF0001FC000
0FE0001FC000
1FC0003F8000
3FC0003F8000
3FFFFFFFFE00
7FFFFFFFFE00
7FFFFFFFFE00
7FFFFFFFFE00
7FFFFFFFFC00
FFFFFFFFFC00
000000FE0000
000000FE0000
000000FE0000
000000FE0000
000001FE0000
000001FC0000
000001FC0000
000001FC0000
000003FC0000
000003F80000
000003F80000
000003F80000
000007F80000
000007F00000
ENDCHAR
STARTCHAR 0035
ENCODING 53
SWIDTH 495 0
DWIDTH 44 0
BBX 44 56 5 -1
BITMAP
00003FFFFFF0
00003FFFFFF0
00003FFFFFE0
00007FFFFFE0
00007FFFFFE0
00007FFFFFE0
0000FE000000
0000FE000000
0000FE000000
0000FC000000
0001FC000000
0001FC000000
0001F8000000
0003F8000000
0003F8000000
0003F0000000
0007F0000000
0007F0000000
0007E0000000
000FE0000000
000FE0000000
001FF0000000
001FFF800000
001FFFF00000
003FFFFC0000
003FFFFE0000
003FFFFF8000
00003FFFC000
000003FFC000
000000FFE000
0000003FE000
0000001FF000
0000000FF000
0000000FF000
00000007F800
00000007F800
00000007F800
00000007F800
00000007F800
00000007F800
00000007F000
0000000FF000
0000000FF000
0000001FF000
0000001FE000
0000003FE000
0000007FC000
100001FFC000
3C0007FF8000
3FE0FFFF0000
7FFFFFFE0000
7FFFFFFC0000
FFFFFFF80000
7FFFFFE00000
1FFFFF000000
01FFF8000000
ENDCHAR
STARTCHAR 0036
ENCODING 54
SWIDTH 495 0
DWIDTH 44 0
BBX 40 56 9 -1
BITMAP
00000003FF
0000003FFF
000000FFFF
000003FFFE
00000FFFFE
00003FFFFE
0000FFFF80
0001FFF000
0003FFC000
0007FE0000
001FFC0000
003FF00000
003FE00000
007FC00000
00FF800000
01FF000000
03FE000000
03FC000000
07F8000000
07F8000000
0FF0000000
0FE03F8000
1FE3FFF000
1FDFFFFC00
3FFFFFFE00
3FFFFFFF00
3FFFFFFF80
7FFFC3FF80
7FE0007FC0
7F80003FC0
7F00001FE0
FF00001FE0
FF00001FE0
FE00000FE0
FE00000FE0
FE00000FE0
FE00000FE0
FE00000FE0
FE00001FE0
FE00001FC0
FE00001FC0
FE00001FC0
FE00003FC0
FE00003F80
FE00007F80
FF0000FF00
FF0001FF00
7F8003FE00
7F8007FE00
3FE01FFC00
3FFFFFF800
1FFFFFF000
0FFFFFC000
07FFFF8000
03FFFE0000
007FF00000
ENDCHAR
STARTCHAR 0037
ENCODING 55
SWIDTH 495 0
DWIDTH 44 0
BBX 40 55 12 0
BITMAP
03FFFFFFFF
03FFFFFFFF
07FFFFFFFF
07FFFFFFFF
07FFFFFFFE
07FFFFFFFE
00000003FE
00000007FC
0000000FF8
0000001FF0
0000003FE0
0000007FC0
0000007F80
000000FF00
000001FE00
000003FC00
000007F800
00000FF800
00000FF000
00001FE000
00003FC000
00003FC000
00007F8000
0000FF0000
0001FE0000
0001FE0000
0003FC0000
0007F80000
0007F80000
000FF00000
000FF00000
001FE00000
003FC00000
003FC00000
007F800000
007F800000
00FF000000
00FE000000
01FE000000
01FC000000
03FC000000
03F8000000
07F8000000
07F0000000
0FF0000000
0FF0000000
1FE0000000
1FE0000000
1FC0000000
3FC0000000
3FC0000000
7F80000000
7F80000000
7F80000000
FF00000000
ENDCHAR
STARTCHAR 0038
ENCODING 56
SWIDTH 495 0
DWIDTH 44 0
BBX 41 57 7 -1
BITMAP
000007FF0000
00003FFFE000
0000FFFFF000
0001FFFFF800
0007FFFFFC00
000FFFFFFE00
000FFC03FF00
001FF001FF00
003FE000FF00
003FC0007F80
007F80007F80
007F00007F80
00FF00007F80
00FE00007F80
00FE00007F80
00FE00007F00
00FE00007F00
00FE0000FF00
00FE0000FE00
00FE0001FE00
00FF0001FC00
00FF8003FC00
007F800FF800
007FE01FF000
003FF03FE000
001FFEFFC000
000FFFFF0000
000FFFFE0000
003FFFF80000
007FFFFE0000
01FF9FFF0000
03FE03FF8000
07FC01FFC000
0FF8007FC000
1FF0003FE000
1FE0001FE000
3FC0001FE000
3F80000FF000
7F80000FF000
7F00000FF000
FF00000FF000
FF00000FF000
FE00000FE000
FE00000FE000
FE00001FE000
FE00001FE000
FF00003FC000
FF00007FC000
7F8000FF8000
7FC001FF8000
7FE00FFF0000
3FFFFFFE0000
1FFFFFFC0000
0FFFFFF00000
07FFFFE00000
01FFFF000000
007FF8000000
ENDCHAR
STARTCHAR 0039
ENCODING 57
SWIDTH 495 0
DWIDTH 44 0
BBX 41 56 7 0
BITMAP
00000FFE0000
00007FFFC000
0001FFFFE000
0007FFFFF000
000FFFFFF800
001FFFFFFC00
003FF807FE00
007FE003FE00
007FC001FE00
00FF8000FF00
00FF0000FF00
01FE00007F00
01FC00007F00
03FC00007F00
03F800007F80
03F800007F80
03F800007F80
07F800007F80
07F800007F00
07F000007F00
07F000007F00
07F000007F00
07F000007F00
07F80000FF00
07F80000FF00
03FC0000FF00
03FC0003FE00
03FF001FFE00
01FFFFFFFE00
01FFFFFFFE00
00FFFFFFFC00
007FFFFFFC00
001FFFFBFC00
0007FFC7F800
00000007F800
0000000FF000
0000001FF000
0000001FE000
0000003FE000
0000007FC000
0000007F8000
000000FF8000
000001FF0000
000003FE0000
00000FFC0000
00001FF80000
00007FF00000
0001FFE00000
000FFFC00000
00FFFF000000
7FFFFE000000
7FFFF8000000
FFFFE0000000
FFFF80000000
FFFC00000000
FFC000000000
ENDCHAR
STARTCHAR 003A
ENCODING 58
SWIDTH 495 0
DWIDTH 44 0
BBX 20 42 15 -1
BITMAP
001F80
003FE0
007FF0
00FFF0
00FFF0
01FFF0
01FFF0
01FFF0
01FFF0
00FFF0
00FFE0
007FC0
003F80
000000
000000
000000
000000
000000
000000
000000
000000
000000
000000
000000
000000
000000
000000
000000
010000
0FE000
3FF000
3FF800
7FF800
7FF800
7FFC00
FFF800
FFF800
7FF800
7FF000
7FF000
3FE000
0F8000
ENDCHAR
STARTCHAR 003B
ENCODING 59
SWIDTH 495 0
DWIDTH 44 0
BBX 26 54 9 -13
BITMAP
00007E00
0000FF80
0001FFC0
0003FFC0
0003FFC0
0007FFC0
0007FFC0
0007FFC0
0007FFC0
0003FFC0
0003FF80
0001FF00
0000FE00
00000000
00000000
00000000
00000000
00000000
00000000
00000000
00000000
00000000
00000000
00000000
00000000
00000000
00000000
00000000
00000000
003F8000
007FC000
00FFE000
01FFE000
01FFE000
01FFF000
03FFF000
03FFF000
01FFF000
01FFE000
00FFE000
00FFE000
003FE000
001FC000
003FC000
003F8000
00FF0000
03FF0000
0FFE0000
FFFC0000
7FF00000
7FE00000
7F800000
7E000000
60000000
ENDCHAR
STARTCHAR 003C
ENCODING 60
SWIDTH 495 0
DWIDTH 44 0
BBX 39 35 7 5
BITMAP
000000000E
000000003E
00000001FE
00000007FE
0000003FFE
000000FFFE
000007FFFC
00001FFFF0
0000FFFF80
0007FFFC00
001FFFF000
00FFFF8000
03FFFE0000
1FFFF00000
7FFF800000
7FFE000000
7FF0000000
7F80000000
FFC0000000
FFF0000000
FFFE000000
3FFF800000
0FFFE00000
03FFF80000
00FFFE0000
003FFF8000
000FFFF000
0003FFFC00
0000FFFF00
00003FFF80
00000FFF80
000001FF00
0000007F00
0000001E00
0000000400
ENDCHAR
STARTCHAR 003D
ENCODING 61
SWIDTH 495 0
DWIDTH 44 0
BBX 41 23 6 12
BITMAP
07FFFFFFFF80
07FFFFFFFF80
07FFFFFFFF00
0FFFFFFFFF00
0FFFFFFFFF00
0FFFFFFFFF00
000000000000
000000000000
000000000000
000000000000
000000000000
000000000000
000000000000
000000000000
000000000000
000000000000
000000000000
7FFFFFFFF800
7FFFFFFFF000
FFFFFFFFF000
FFFFFFFFF000
FFFFFFFFF000
FFFFFFFFE000
ENDCHAR
STARTCHAR 003E
ENCODING 62
SWIDTH 495 0
DWIDTH 44 0
BBX 39 35 5 5
BITMAP
0060000000
00F8000000
00FE000000
01FF800000
01FFE00000
03FFF80000
00FFFF0000
003FFFC000
000FFFF000
0003FFFC00
00007FFF00
00001FFFC0
000007FFF0
000001FFFC
0000007FFE
0000001FFE
00000003FE
00000007FE
0000001FFC
000000FFFC
000007FFFC
00001FFFE0
0000FFFF80
0003FFFC00
001FFFF000
00FFFF8000
03FFFE0000
1FFFF00000
FFFFC00000
FFFE000000
FFF8000000
7FC0000000
7E00000000
7800000000
4000000000
ENDCHAR
STARTCHAR 003F
ENCODING 63
SWIDTH 495 0
DWIDTH 44 0
BBX 32 57 14 -1
BITMAP
000FFF80
007FFFE0
01FFFFF8
01FFFFFC
01FFFFFC
01FFFFFE
01F003FE
018001FF
000000FF
000000FF
0000007F
0000007F
0000007F
000000FF
000000FE
000000FE
000001FE
000003FC
000007F8
00000FF8
00001FF0
00003FE0
00007FC0
0000FF80
0001FE00
0007FC00
000FF800
001FF000
003FC000
007F8000
007F0000
00FE0000
01FE0000
01FC0000
01F80000
03F80000
03F80000
00000000
00000000
00000000
00000000
00000000
00000000
00000000
00000000
0F800000
1FE00000
3FE00000
7FF00000
7FF00000
7FF00000
FFF00000
7FF00000
7FE00000
7FE00000
3FC00000
1F000000
ENDCHAR
STARTCHAR 0040
ENCODING 64
SWIDTH 495 0
DWIDTH 44 0
BBX 44 68 6 -12
BITMAP
000000FFF000
000007FFFC00
00001FFFFE00
00003FFFFF00
0000FFFFFF80
0001FFFFFFC0
0003FF807FC0
0007FE001FE0
000FF8000FE0
001FF0000FE0
003FE0000FE0
003FC00007F0
007F800007F0
00FF000007F0
00FE000007F0
01FE000007F0
01FC000007E0
03FC00000FE0
03F8000FFFE0
07F0007FFFE0
07F001FFFFE0
0FF007FFFFC0
0FE00FFFFFC0
1FE01FFFFFC0
1FC03FF01FC0
1FC07FC01FC0
3FC07F803F80
3F80FF003F80
3F80FE003F80
3F81FC003F80
7F01FC007F00
7F03F8007F00
7F03F8007F00
7F03F8007F00
7F03F800FE00
7E03F800FE00
FE03F000FE00
FE07F000FE00
FE07F001FC00
FE07F001FC00
FE03F001FC00
FE03F801FC00
FE03F803F800
FE03F803F800
FE03FC03F800
FE01FE03F800
FE01FFFFF000
FE00FFFFF000
7E007FFFF000
7F003FFFF000
7F001FFFE000
7F0003FF0000
7F8000000000
3F8000000000
3F8000000000
3FC000000000
1FE000000000
1FE000000000
0FF000000000
0FF800000000
07FE00000000
07FFC0E00000
03FFFFE00000
01FFFFE00000
007FFFE00000
003FFFE00000
000FFFE00000
0000FE000000
ENDCHAR
STARTCHAR 0041
ENCODING 65
SWIDTH 495 0
DWIDTH 44 0
BBX 43 55 -1 0
BITMAP
00000003FE00
00000007FE00
0000000FFE00
0000000FFE00
0000001FFE00
0000001FFF00
0000003FFF00
0000007F7F00
0000007E7F00
000000FE7F00
000000FC7F00
000001FC7F00
000003F87F00
000003F83F00
000007F03F00
000007E03F80
00000FE03F80
00000FC03F80
00001FC03F80
00001F803F80
00003F803F80
00007F003F80
00007F003F80
0000FE003F80
0000FC003F80
0001FC003F80
0001F8001F80
0003F8001F80
0003F0001FC0
0007F0001FC0
0007E0001FC0
000FE0001FC0
001FC0001FC0
001FC0001FC0
003F80001FC0
003FFFFFFFC0
007FFFFFFFC0
007FFFFFFFC0
00FFFFFFFFC0
00FFFFFFFFC0
01FFFFFFFFC0
01FC00001FC0
03F800001FC0
03F800001FC0
07F000001FC0
07F000001FC0
0FE000001FC0
0FE000001FC0
1FC000001FC0
1FC000001FC0
3F8000001FE0
3F8000001FE0
7F0000001FE0
7F0000001FE0
FE0000001FE0
ENDCHAR
STARTCHAR 0042
ENCODING 66
SWIDTH 495 0
DWIDTH 44 0
BBX 42 56 4 0
BITMAP
000000F00000
0003FFFFC000
0007FFFFF800
000FFFFFFE00
000FFFFFFF00
000FFFFFFF80
000FFFFFFF80
001FE001FFC0
001FC0007FC0
001FC0003FC0
001FC0001FC0
003FC0001FC0
003F80001FC0
003F80001FC0
003F80001FC0
007F80001FC0
007F00001FC0
007F00003FC0
007F00003F80
00FF00007F80
00FE0000FF00
00FE0001FE00
00FE0003FE00
00FE001FFC00
01FFFFFFF000
01FFFFFFE000
01FFFFFF8000
01FFFFFF8000
03FFFFFFE000
03FFFFFFF000
03F801FFF800
03F8000FFC00
07F80003FC00
07F00001FE00
07F00001FE00
07F00000FE00
0FF00000FE00
0FE00000FE00
0FE00000FE00
0FE00000FE00
1FE00000FE00
1FC00001FE00
1FC00001FE00
1FC00001FC00
1FC00003FC00
3F800007FC00
3F80000FF800
3F80001FF000
3F80007FF000
7F0003FFE000
7FFFFFFFC000
7FFFFFFF0000
7FFFFFFE0000
FFFFFFF80000
FFFFFFE00000
3FFFFE000000
ENDCHAR
STARTCHAR 0043
ENCODING 67
SWIDTH 495 0
DWIDTH 44 0
BBX 43 57 8 -1
BITMAP
000001FFF000
00000FFFFE00
00003FFFFF80
00007FFFFFE0
0001FFFFFFE0
0003FFFFFFC0
0007FFC0FF80
000FFE000F80
001FF8000300
003FE0000100
007FC0000000
00FF80000000
01FF00000000
01FE00000000
03FC00000000
03F800000000
07F800000000
0FF000000000
0FF000000000
0FE000000000
1FE000000000
1FC000000000
3FC000000000
3FC000000000
3F8000000000
3F8000000000
7F8000000000
7F0000000000
7F0000000000
7F0000000000
FF0000000000
FF0000000000
FF0000000000
FE0000000000
FE0000000000
FE0000000000
FE0000000000
FE0000000000
FE0000000000
FE0000000000
FF0000000000
FF0000000000
FF0000000000
FF0000000000
7F8000000000
7F8000000000
7FC000000000
3FE000000000
3FF000060000
1FF8003E0000
1FFF87FE0000
0FFFFFFE0000
07FFFFFE0000
03FFFFFF0000
01FFFFFC0000
007FFFF00000
000FFE000000
ENDCHAR
STARTCHAR 0044
ENCODING 68
SWIDTH 495 0
DWIDTH 44 0
BBX 43 56 3 0
BITMAP
000001800000
0003FFFF0000
0007FFFFC000
000FFFFFF000
000FFFFFF800
000FFFFFFC00
000FFFFFFE00
000FE00FFF00
001FE001FF80
001FC000FF80
001FC0007FC0
001FC0003FC0
003FC0003FC0
003F80001FE0
003F80001FE0
003F80001FE0
007F80000FE0
007F00000FE0
007F00000FE0
007F00000FE0
00FF00000FE0
00FE00000FE0
00FE00000FE0
00FE00000FE0
01FE00000FE0
01FC00000FE0
01FC00000FE0
01FC00000FE0
01FC00001FE0
03FC00001FE0
03F800001FC0
03F800001FC0
03F800003FC0
07F800003FC0
07F000003F80
07F000007F80
07F000007F80
0FF00000FF00
0FE00000FF00
0FE00001FE00
0FE00001FE00
1FE00003FC00
1FC00007FC00
1FC0000FF800
1FC0001FF000
3FC0003FF000
3FC0007FE000
3F8001FFC000
3F8007FF8000
3F803FFF0000
7FFFFFFC0000
7FFFFFF80000
7FFFFFF00000
7FFFFFC00000
FFFFFE000000
7FFFF0000000
ENDCHAR
STARTCHAR 0045
ENCODING 69
SWIDTH 495 0
DWIDTH 44 0
BBX 44 55 6 0
BITMAP
0003FFFFFFF0
0007FFFFFFF0
0007FFFFFFF0
0007FFFFFFF0
0007FFFFFFE0
000FFFFFFFE0
000FE0000000
000FE0000000
000FE0000000
001FE0000000
001FC0000000
001FC0000000
001FC0000000
003FC0000000
003F80000000
003F80000000
003F80000000
007F80000000
007F00000000
007F00000000
007F00000000
00FF00000000
00FE00000000
00FFFFFFF000
00FFFFFFF000
01FFFFFFE000
01FFFFFFE000
01FFFFFFE000
01FFFFFFE000
03FC00000000
03FC00000000
03F800000000
03F800000000
03F800000000
07F800000000
07F000000000
07F000000000
07F000000000
0FF000000000
0FE000000000
0FE000000000
0FE000000000
1FE000000000
1FC000000000
1FC000000000
1FC000000000
3FC000000000
3FC000000000
3F8000000000
3FFFFFFFC000
7FFFFFFFC000
7FFFFFFFC000
7FFFFFFFC000
7FFFFFFF8000
FFFFFFFF8000
ENDCHAR
STARTCHAR 0046
ENCODING 70
SWIDTH 495 0
DWIDTH 44 0
BBX 45 55 6 0
BITMAP
0003FFFFFFF8
0007FFFFFFF0
0007FFFFFFF0
0007FFFFFFF0
0007FFFFFFF0
000FFFFFFFF0
000FE0000000
000FE0000000
000FE0000000
001FE0000000
001FC0000000
001FC0000000
001FC0000000
003FC0000000
003F80000000
003F80000000
003F80000000
007F80000000
007F00000000
007F00000000
007F00000000
00FF00000000
00FE00000000
00FFFFFFF000
00FFFFFFF000
01FFFFFFF000
01FFFFFFF000
01FFFFFFE000
01FFFFFFE000
03FC00000000
03FC00000000
03F800000000
03F800000000
03F800000000
07F800000000
07F000000000
07F000000000
07F000000000
0FF000000000
0FE000000000
0FE000000000
0FE000000000
1FE000000000
1FC000000000
1FC000000000
1FC000000000
3FC000000000
3F8000000000
3F8000000000
3F8000000000
7F8000000000
7F8000000000
7F0000000000
7F0000000000
FF0000000000
ENDCHAR
STARTCHAR 0047
ENCODING 71
SWIDTH 495 0
DWIDTH 44 0
BBX 42 57 7 -1
BITMAP
000000FFF000
000007FFFE00
00003FFFFF80
00007FFFFFC0
0001FFFFFFC0
0003FFFFFFC0
0007FFC07F80
000FFE000F00
001FF8000700
003FE0000000
007FC0000000
00FF80000000
00FF00000000
01FE00000000
03FC00000000
03FC00000000
07F800000000
07F000000000
0FF000000000
0FE000000000
1FE000000000
1FC000000000
1FC000000000
3FC000000000
3F8000000000
3F8000000000
7F8000000000
7F8000000000
7F0000000000
7F000003F800
7F000003F800
7F000007F800
FF000007F800
FF000007F000
FF000007F000
FF00000FF000
FE00000FF000
FE00000FE000
FF00000FE000
FF00000FE000
FF00001FE000
FF00001FC000
FF00001FC000
7F00001FC000
7F80003FC000
7F80003F8000
7FC0003F8000
3FE0003F8000
3FF0007F8000
1FF8007F0000
1FFF03FF0000
0FFFFFFF0000
07FFFFFF0000
03FFFFFF0000
01FFFFFE0000
007FFFF80000
000FFF000000
ENDCHAR
STARTCHAR 0048
ENCODING 72
SWIDTH 495 0
DWIDTH 44 0
BBX 48 55 3 0
BITMAP
0007F800007F
0007F000007F
0007F00000FF
0007F00000FE
000FF00000FE
000FE00000FE
000FE00001FE
000FE00001FE
001FE00001FC
001FC00001FC
001FC00003FC
001FC00003FC
003FC00003F8
003F800003F8
003F800007F8
003F800007F8
007F800007F0
007F000007F0
007F000007F0
007F00000FF0
00FF00000FE0
00FF00000FE0
00FE00000FE0
00FFFFFFFFE0
01FFFFFFFFC0
01FFFFFFFFC0
01FFFFFFFFC0
01FFFFFFFFC0
01FFFFFFFF80
03FC00003F80
03F800003F80
03F800007F80
03F800007F00
07F800007F00
07F000007F00
07F00000FF00
07F00000FF00
0FF00000FE00
0FE00000FE00
0FE00001FE00
0FE00001FE00
1FE00001FC00
1FC00001FC00
1FC00003FC00
1FC00003FC00
3FC00003F800
3F800003F800
3F800003F800
3F800007F800
3F800007F000
7F800007F000
7F000007F000
7F00000FF000
7F00000FE000
FF00000FE000
ENDCHAR
STARTCHAR 0049
ENCODING 73
SWIDTH 495 0
DWIDTH 44 0
BBX 42 55 6 0
BITMAP
0007FFFFFFC0
0007FFFFFFC0
0007FFFFFF80
0007FFFFFF80
000FFFFFFF80
000FFFFFFF80
000001FC0000
000003FC0000
000003F80000
000003F80000
000003F80000
000007F80000
000007F00000
000007F00000
000007F00000
00000FF00000
00000FF00000
00000FE00000
00000FE00000
00001FE00000
00001FE00000
00001FC00000
00001FC00000
00003FC00000
00003FC00000
00003F800000
00003F800000
00007F800000
00007F800000
00007F000000
00007F000000
00007F000000
0000FF000000
0000FE000000
0000FE000000
0000FE000000
0001FE000000
0001FC000000
0001FC000000
0001FC000000
0003FC000000
0003F8000000
0003F8000000
0003F8000000
0007F8000000
0007F0000000
0007F0000000
0007F0000000
000FF0000000
3FFFFFFC0000
7FFFFFFC0000
7FFFFFFC0000
7FFFFFF80000
7FFFFFF80000
FFFFFFF80000
ENDCHAR
STARTCHAR 004A
ENCODING 74
SWIDTH 495 0
DWIDTH 44 0
BBX 43 56 6 -1
BITMAP
00007FFFFFE0
00007FFFFFE0
00007FFFFFE0
0000FFFFFFC0
0000FFFFFFC0
0000FFFFFFC0
000000003FC0
000000003F80
000000003F80
000000003F80
000000007F80
000000007F80
000000007F00
000000007F00
00000000FF00
00000000FF00
00000000FE00
00000000FE00
00000001FE00
00000001FE00
00000001FC00
00000001FC00
00000001FC00
00000003FC00
00000003F800
00000003F800
00000003F800
00000007F800
00000007F000
00000007F000
00000007F000
0000000FF000
0000000FF000
0000000FE000
0000000FE000
0000001FE000
0000001FE000
0000001FC000
0000001FC000
0000003FC000
0000003F8000
0000003F8000
0000007F8000
0000007F0000
000000FF0000
000001FF0000
180001FE0000
3C0003FE0000
3F000FFC0000
7FF07FFC0000
FFFFFFF80000
FFFFFFF00000
3FFFFFE00000
1FFFFF800000
07FFFE000000
00FFF0000000
ENDCHAR
STARTCHAR 004B
ENCODING 75
SWIDTH 495 0
DWIDTH 44 0
BBX 48 55 4 0
BITMAP
0007F00001FF
0007F00003FE
0007F00007FC
000FF0000FF8
000FE0001FF0
000FE0003FE0
000FE0007FC0
001FE000FF80
001FC001FF00
001FC003FE00
001FC007FC00
003FC00FF800
003F801FF000
003F803FE000
003F807FC000
007F80FF8000
007F01FF0000
007F03FE0000
007F07FC0000
00FF0FF80000
00FF1FF00000
00FE3FE00000
00FEFFC00000
00FFFF000000
01FFFE000000
01FFFC000000
01FFF8000000
01FFFC000000
03FFFE000000
03F9FF000000
03F8FF800000
03F87F800000
07F87FC00000
07F03FE00000
07F01FE00000
07F00FF00000
0FF00FF80000
0FE007F80000
0FE003FC0000
0FE003FC0000
1FE001FE0000
1FE000FE0000
1FC000FF0000
1FC0007F0000
1FC0007F8000
3FC0003F8000
3F80003FC000
3F80001FC000
3F80001FE000
7F80001FE000
7F00000FF000
7F00000FF000
7F000007F800
FF000007F800
FE000007F800
ENDCHAR
STARTCHAR 004C
ENCODING 76
SWIDTH 495 0
DWIDTH 44 0
BBX 32 55 5 0
BITMAP
0007F000
0007F000
000FF000
000FE000
000FE000
000FE000
001FE000
001FE000
001FC000
001FC000
001FC000
003FC000
003F8000
003F8000
003F8000
007F8000
007F0000
007F0000
007F0000
00FF0000
00FE0000
00FE0000
00FE0000
01FE0000
01FC0000
01FC0000
01FC0000
03FC0000
03F80000
03F80000
03F80000
07F80000
07F80000
07F00000
07F00000
0FF00000
0FF00000
0FE00000
0FE00000
0FE00000
1FE00000
1FC00000
1FC00000
1FC00000
3FC00000
3F800000
3F800000
3F800000
7F800000
7FFFFFFF
7FFFFFFF
7FFFFFFF
FFFFFFFF
FFFFFFFE
FFFFFFFE
ENDCHAR
STARTCHAR 004D
ENCODING 77
SWIDTH 495 0
DWIDTH 44 0
BBX 48 55 2 0
BITMAP
00007F0000FF
0000FF0000FE
0000FF0001FE
0000FF0001FE
0001FF0003FE
0001FF0003FE
0003FF0007FE
0003FF0007FE
0003FF000FFE
0007FF001FFC
0007DF001F7C
0007DF003F7C
000FDF803EFC
000F9F807EFC
000F9F807CFC
001F9F80FCFC
001F9F80F8F8
001F0F81F1F8
003F0F81F1F8
003F0F83E1F8
003F0F87E1F8
007E0F87C1F8
007E0F8FC3F0
007E0F8F83F0
00FE0F9F83F0
00FC0FDF03F0
00FC0FFE03F0
00FC0FFE07F0
01FC0FFC07E0
01F80FFC07E0
01F807F807E0
03F807F80FE0
03F807F00FE0
03F007F00FE0
07F000000FC0
07F000000FC0
07E000001FC0
0FE000001FC0
0FE000001FC0
0FE000001F80
0FC000003F80
1FC000003F80
1FC000003F80
1FC000003F80
3F8000007F00
3F8000007F00
3F8000007F00
3F8000007F00
7F0000007F00
7F000000FE00
7F000000FE00
7E000000FE00
FE000000FE00
FE000001FE00
FE000001FC00
ENDCHAR
STARTCHAR 004E
ENCODING 78
SWIDTH 495 0
DWIDTH 44 0
BBX 47 55 4 0
BITMAP
0007F000007E
000FF00000FE
000FF80000FE
000FF80000FE
000FF80000FC
001FFC0001FC
001FFC0001FC
001FFC0001FC
001FFE0001F8
003FFE0001F8
003FFE0003F8
003FFE0003F8
003F7F0003F0
003F3F0003F0
007F3F0007F0
007F3F8007F0
007E1F8007F0
007E1F8007E0
00FE1F800FE0
00FE1FC00FE0
00FC0FC00FE0
00FC0FC00FC0
01FC0FC01FC0
01FC0FE01FC0
01F807E01FC0
01F807E01F80
03F807E03F80
03F807F03F80
03F803F03F80
03F003F03F00
07F003F03F00
07F003F07F00
07F001F87F00
07E001F87E00
0FE001F87E00
0FE001F8FE00
0FE000F8FE00
0FC000FCFC00
0FC000FCFC00
1FC000FDFC00
1FC000FDFC00
1F80007DF800
1F80007DF800
3F80007FF800
3F80007FF800
3F00007FF800
3F00003FF000
7F00003FF000
7F00003FF000
7F00003FF000
7E00003FE000
FE00003FE000
FE00001FE000
FE00001FE000
FC00001FC000
ENDCHAR
STARTCHAR 004F
ENCODING 79
SWIDTH 495 0
DWIDTH 44 0
BBX 41 57 7 -1
BITMAP
000007FF0000
00001FFFC000
00007FFFF000
0001FFFFF800
0003FFFFFC00
0007FFFFFC00
000FFE0FFE00
001FF003FE00
003FE001FF00
007FC000FF00
007F80007F00
00FF00007F80
01FE00007F80
01FC00007F80
03FC00003F80
03F800003F80
07F800003F80
07F000003F80
0FF000003F80
0FE000003F80
0FE000003F80
1FE000003F80
1FC000007F80
1FC000007F80
3FC000007F80
3F8000007F00
3F8000007F00
3F8000007F00
7F8000007F00
7F000000FF00
7F000000FE00
7F000000FE00
7F000000FE00
7F000001FC00
FF000001FC00
FF000001FC00
FF000003F800
FF000003F800
FE000007F800
FE000007F000
FF00000FF000
FF00000FE000
FF00001FE000
FF00001FC000
FF00003FC000
7F00007F8000
7F8000FF8000
7F8001FF0000
7FC003FE0000
3FE007FC0000
3FF83FF80000
1FFFFFF00000
0FFFFFE00000
07FFFFC00000
03FFFF000000
01FFFE000000
003FF0000000
ENDCHAR
STARTCHAR 0050
ENCODING 80
SWIDTH 495 0
DWIDTH 44 0
BBX 43 56 5 0
BITMAP
000000F80000
0003FFFFC000
0007FFFFF000
000FFFFFFC00
000FFFFFFE00
000FFFFFFF00
000FFFFFFF80
001FE001FFC0
001FC0007FC0
001FC0003FC0
001FC0001FE0
003FC0001FE0
003F80000FE0
003F80000FE0
003F80000FE0
007F80000FE0
007F80000FE0
007F00000FE0
007F00001FE0
00FF00001FC0
00FF00001FC0
00FE00003FC0
00FE00003F80
00FE00007F80
01FE0000FF00
01FC0001FF00
01FC0003FE00
01FC000FFC00
03FC003FF800
03FFFFFFF000
03FFFFFFE000
03FFFFFFC000
07FFFFFF0000
07FFFFFC0000
07FFFFC00000
07F000000000
0FF000000000
0FF000000000
0FE000000000
0FE000000000
1FE000000000
1FE000000000
1FC000000000
1FC000000000
1FC000000000
3FC000000000
3F8000000000
3F8000000000
3F8000000000
7F8000000000
7F0000000000
7F0000000000
7F0000000000
FF0000000000
FE0000000000
FE0000000000
ENDCHAR
STARTCHAR 0051
ENCODING 81
SWIDTH 495 0
DWIDTH 44 0
BBX 41 71 7 -15
BITMAP
000007FF0000
00001FFFC000
00007FFFF000
0001FFFFF800
0003FFFFFC00
0007FFFFFC00
000FFE0FFE00
001FF003FE00
003FE001FF00
007FC000FF00
007F80007F00
00FF00007F80
01FE00007F80
01FC00007F80
03FC00003F80
03F800003F80
07F800003F80
07F000003F80
0FF000003F80
0FE000003F80
0FE000003F80
1FE000003F80
1FC000007F80
1FC000007F80
3FC000007F80
3F8000007F00
3F8000007F00
3F8000007F00
7F8000007F00
7F000000FF00
7F000000FE00
7F000000FE00
7F000000FE00
7F000001FE00
FF000001FC00
FF000001FC00
FF000003FC00
FF000003F800
FE000007F800
FE000007F000
FF00000FF000
FF00000FE000
FF00001FE000
FF00001FE000
FF00003FC000
7F00007F8000
7F8000FF8000
7F8001FF0000
7FC003FE0000
3FE007FC0000
3FF83FF80000
1FFFFFF00000
0FFFFFE00000
07FFFFC00000
03FFFF000000
01FFFE000000
003FF0000000
003F80000000
003FC0000000
003FC0000000
003FE0000000
003FF0000000
001FF8000000
001FFF000000
000FFFF00000
0007FFF80000
0003FFF80000
0000FFF00000
00003FF00000
000007E00000
000000200000
ENDCHAR
STARTCHAR 0052
ENCODING 82
SWIDTH 495 0
DWIDTH 44 0
BBX 43 56 4 0
BITMAP
000000E00000
0003FFFFC000
0007FFFFF800
000FFFFFFC00
000FFFFFFE00
000FFFFFFF00
000FFFFFFF80
000FE001FFC0
001FE0007FC0
001FC0003FC0
001FC0001FE0
001FC0001FE0
003FC0001FE0
003F80000FE0
003F80000FE0
003F80000FE0
007F80000FE0
007F00001FE0
007F00001FC0
007F00001FC0
00FF00001FC0
00FE00003FC0
00FE00003F80
00FE00007F80
01FE0000FF00
01FE0001FE00
01FC0007FE00
01FC003FFC00
01FFFFFFF800
03FFFFFFE000
03FFFFFFC000
03FFFFFF0000
03FFFFFC0000
07FFFFF80000
07F007F80000
07F003FC0000
07F003FC0000
0FF001FC0000
0FE001FE0000
0FE000FE0000
0FE000FF0000
1FE0007F0000
1FC0007F0000
1FC0007F8000
1FC0003F8000
3FC0003F8000
3FC0003FC000
3F80001FC000
3F80001FC000
3F80001FE000
7F80001FE000
7F00000FE000
7F00000FE000
7F00000FF000
FF00000FF000
FE000007F000
ENDCHAR
STARTCHAR 0053
ENCODING 83
SWIDTH 495 0
DWIDTH 44 0
BBX 43 57 5 -1
BITMAP
000001FFF800
00001FFFFF00
00007FFFFFC0
0000FFFFFFE0
0001FFFFFFE0
0003FFFFFFC0
0007FF807F80
000FFC000780
000FF0000100
001FE0000000
001FC0000000
003FC0000000
003FC0000000
003F80000000
003F80000000
003F80000000
003F80000000
003F80000000
003FC0000000
003FC0000000
003FE0000000
001FF0000000
001FF8000000
000FFE000000
000FFF000000
0007FFC00000
0003FFF00000
0001FFFC0000
00007FFE0000
00001FFF8000
000007FF8000
000003FFC000
000000FFE000
0000007FE000
0000001FF000
0000000FF000
0000000FF000
00000007F000
00000007F800
00000007F800
00000007F800
00000007F800
00000007F000
00000007F000
0000000FF000
0000000FF000
0000001FE000
1000003FE000
3C00007FC000
3F0001FFC000
7FF81FFF8000
7FFFFFFF0000
FFFFFFFE0000
FFFFFFFC0000
3FFFFFF00000
07FFFFC00000
00FFFC000000
ENDCHAR
STARTCHAR 0054
ENCODING 84
SWIDTH 495 0
DWIDTH 44 0
BBX 38 55 14 0
BITMAP
7FFFFFFFFC
7FFFFFFFFC
FFFFFFFFFC
FFFFFFFFFC
FFFFFFFFF8
FFFFFFFFF8
0003FC0000
0003FC0000
0003F80000
0003F80000
0007F80000
0007F80000
0007F00000
0007F00000
0007F00000
000FF00000
000FE00000
000FE00000
000FE00000
001FE00000
001FC00000
001FC00000
001FC00000
003FC00000
003F800000
003F800000
003F800000
007F800000
007F000000
007F000000
007F000000
00FF000000
00FF000000
00FE000000
00FE000000
01FE000000
01FE000000
01FC000000
01FC000000
03FC000000
03FC000000
03F8000000
03F8000000
07F8000000
07F8000000
07F0000000
07F0000000
07F0000000
0FF0000000
0FE0000000
0FE0000000
0FE0000000
1FE0000000
1FC0000000
1FC0000000
ENDCHAR
STARTCHAR 0055
ENCODING 85
SWIDTH 495 0
DWIDTH 44 0
BBX 44 56 7 -1
BITMAP
007F800007F0
007F000007F0
007F00000FF0
007F00000FE0
00FF00000FE0
00FE00000FE0
00FE00001FE0
00FE00001FC0
01FE00001FC0
01FC00001FC0
01FC00003FC0
01FC00003F80
03FC00003F80
03F800003F80
03F800007F80
03F800007F00
07F800007F00
07F000007F00
07F00000FF00
07F00000FF00
0FF00000FE00
0FE00000FE00
0FE00001FE00
0FE00001FE00
1FE00001FC00
1FE00001FC00
1FC00001FC00
1FC00003FC00
1FC00003F800
3FC00003F800
3F800003F800
3F800007F800
3F800007F000
7F800007F000
7F000007F000
7F00000FF000
7F00000FE000
FF00000FE000
FF00000FE000
FF00001FE000
FE00001FC000
FE00001FC000
FF00003FC000
FF00003F8000
FF00007F8000
7F0000FF8000
7F8000FF0000
7F8001FE0000
3FE007FE0000
3FF83FFC0000
1FFFFFF80000
1FFFFFF00000
0FFFFFE00000
03FFFFC00000
01FFFF000000
007FF0000000
ENDCHAR
STARTCHAR 0056
ENCODING 86
SWIDTH 495 0
DWIDTH 44 0
BBX 42 55 12 0
BITMAP
FF0000003FC0
FF0000003FC0
FF0000007F80
FF0000007F80
FF000000FF00
FF000000FF00
FF000000FE00
FF000001FE00
FF000001FC00
FF000003FC00
FF000003F800
FF000007F800
FF000007F000
FF00000FF000
7F00000FE000
7F00001FE000
7F00001FC000
7F00003FC000
7F00003F8000
7F00007F8000
7F00007F0000
7F0000FF0000
7F0000FE0000
7F0001FC0000
7F0001FC0000
7F0003F80000
7F0007F80000
7F0007F00000
7F000FF00000
7F800FE00000
7F801FE00000
3F801FC00000
3F803FC00000
3F803F800000
3F807F000000
3F807F000000
3F80FE000000
3F80FE000000
3F81FC000000
3F81FC000000
3F83F8000000
3F83F8000000
3F87F0000000
3F8FE0000000
1F8FE0000000
1F9FC0000000
1FDFC0000000
1FFF80000000
1FFF80000000
1FFF00000000
1FFE00000000
1FFE00000000
1FFC00000000
1FFC00000000
0FF800000000
ENDCHAR
STARTCHAR 0057
ENCODING 87
SWIDTH 495 0
DWIDTH 44 0
BBX 48 55 5 0
BITMAP
007F8000007F
007F0000007F
007F0000007F
007F000000FE
007F000000FE
00FE000000FE
00FE000000FC
00FE000001FC
00FE000001FC
00FE000001FC
01FC000001F8
01FC000003F8
01FC000003F8
01FC000003F0
01F8000003F0
03F8000007F0
03F8000007F0
03F8000007E0
03F000000FE0
03F000000FE0
03F000000FC0
07F00FE00FC0
07F01FE01FC0
07E01FE01F80
07E03FE01F80
07E03FE01F80
0FE07FE03F80
0FC07FE03F00
0FC0FFE03F00
0FC0FBE07F00
0FC1FBE07E00
0FC1F1F07E00
1F83E1F07E00
1F87E1F0FC00
1F87C1F0FC00
1F8FC1F0FC00
1F0F81F0F800
1F1F81F1F800
3F1F01F1F800
3F3F01F1F000
3F7E01F3F000
3E7E01F3F000
3EFC01F3E000
3EF801FBE000
7FF801FFE000
7FF000FFC000
7FF000FFC000
7FE000FFC000
7FE000FF8000
7FC000FF8000
7FC000FF8000
7F8000FF0000
FF0000FF0000
FF0000FF0000
FE0000FE0000
ENDCHAR
STARTCHAR 0058
ENCODING 88
SWIDTH 495 0
DWIDTH 44 0
BBX 53 55 1 0
BITMAP
0001FE00000FF8
0001FE00000FF0
0000FF00001FE0
0000FF00003FE0
0000FF00003FC0
00007F80007F80
00007F8000FF00
00007F8001FF00
00003FC001FE00
00003FC003FC00
00003FC007F800
00001FE00FF000
00001FE00FF000
00000FE01FE000
00000FF03FC000
00000FF07F8000
000007F0FF0000
000007F8FF0000
000007F9FE0000
000003FBFC0000
000003FFF80000
000003FFF00000
000001FFE00000
000001FFE00000
000000FFC00000
000000FF800000
000001FF000000
000003FF800000
000003FF800000
000007FFC00000
00000FFFC00000
00001FFFC00000
00003FFFE00000
00003FDFE00000
00007F8FE00000
0000FF0FF00000
0001FE0FF00000
0003FE07F00000
0007FC07F80000
0007F807F80000
000FF003F80000
001FE003FC0000
003FE003FC0000
007FC001FC0000
00FF8001FC0000
00FF0001FE0000
01FE0001FE0000
03FE0000FE0000
07FC0000FF0000
0FF80000FF0000
1FF00000FF0000
1FE000007F0000
3FE000007F8000
7FC000007F8000
FF8000007F8000
ENDCHAR
STARTCHAR 0059
ENCODING 89
SWIDTH 495 0
DWIDTH 44 0
BBX 42 55 13 0
BITMAP
FE0000003FC0
FF0000007F80
FF0000007F80
7F000000FF00
7F000001FE00
7F000001FE00
7F000003FC00
7F000007F800
3F800007F800
3F80000FF000
3F80001FE000
3F80001FE000
3FC0003FC000
1FC0007F8000
1FC0007F0000
1FC000FF0000
1FE001FE0000
0FE001FC0000
0FE003F80000
0FE007F80000
07F00FF00000
07F00FE00000
07F01FC00000
03F03FC00000
03F87F800000
03F87F000000
03F8FE000000
01FDFC000000
01FFFC000000
01FFF8000000
00FFF0000000
00FFE0000000
007FC0000000
007F80000000
007F80000000
007F00000000
007F00000000
007F00000000
00FF00000000
00FE00000000
00FE00000000
00FE00000000
01FE00000000
01FE00000000
01FC00000000
01FC00000000
03FC00000000
03FC00000000
03F800000000
03F800000000
07F800000000
07F800000000
07F000000000
07F000000000
07F000000000
ENDCHAR
STARTCHAR 005A
ENCODING 90
SWIDTH 495 0
DWIDTH 44 0
BBX 48 55 3 0
BITMAP
0003FFFFFFFF
0003FFFFFFFF
0003FFFFFFFE
0003FFFFFFFE
0007FFFFFFFE
0007FFFFFFFE
0000000003FC
0000000007F8
000000000FF0
000000001FE0
000000003FC0
000000007F80
00000000FF00
00000001FF00
00000003FE00
00000007FC00
0000000FF800
0000000FF000
0000001FE000
0000003FC000
0000007F8000
000000FF0000
000001FF0000
000003FE0000
000003FC0000
000007F80000
00000FF00000
00001FE00000
00003FC00000
00007F800000
0000FF800000
0000FF000000
0001FE000000
0003FC000000
0007F8000000
000FF0000000
000FF0000000
001FE0000000
003FC0000000
007F80000000
00FF00000000
01FE00000000
01FE00000000
03FC00000000
07F800000000
0FF000000000
1FF000000000
1FE000000000
3FC000000000
7FFFFFFFF800
7FFFFFFFF800
7FFFFFFFF000
7FFFFFFFF000
7FFFFFFFF000
FFFFFFFFF000
ENDCHAR
STARTCHAR 005B
ENCODING 91
SWIDTH 495 0
DWIDTH 44 0
BBX 39 77 9 -15
BITMAP
00003FFFFE
00003FFFFE
00003FFFFE
00007FFFFE
00007FFFFE
00007FFFFC
00007F0000
0000FE0000
0000FE0000
0000FE0000
0000FE0000
0001FC0000
0001FC0000
0001FC0000
0001FC0000
0003F80000
0003F80000
0003F80000
0003F80000
0007F00000
0007F00000
0007F00000
0007F00000
0007F00000
000FE00000
000FE00000
000FE00000
000FE00000
001FC00000
001FC00000
001FC00000
001FC00000
003F800000
003F800000
003F800000
003F800000
007F000000
007F000000
007F000000
007F000000
00FE000000
00FE000000
00FE000000
00FE000000
01FC000000
01FC000000
01FC000000
01FC000000
03F8000000
03F8000000
03F8000000
03F8000000
03F8000000
07F0000000
07F0000000
07F0000000
07F0000000
0FE0000000
0FE0000000
0FE0000000
0FE0000000
1FC0000000
1FC0000000
1FC0000000
1FC0000000
3F80000000
3F80000000
3F80000000
3F80000000
7F00000000
7F00000000
7FFFFC0000
7FFFFC0000
FFFFFC0000
FFFFFC0000
FFFFF80000
FFFFF80000
ENDCHAR
STARTCHAR 005C
ENCODING 92
SWIDTH 495 0
DWIDTH 44 0
BBX 13 77 20 -15
BITMAP
FE00
FE00
FE00
FE00
FE00
FE00
FE00
FE00
FF00
FF00
FF00
FF00
FF00
7F00
7F00
7F00
7F00
7F00
7F00
7F00
7F00
7F80
7F80
7F80
7F80
7F80
3F80
3F80
3F80
3F80
3F80
3F80
3F80
3FC0
3FC0
3FC0
3FC0
3FC0
1FC0
1FC0
1FC0
1FC0
1FC0
1FC0
1FC0
1FC0
1FE0
1FE0
1FE0
1FE0
1FE0
0FE0
0FE0
0FE0
0FE0
0FE0
0FE0
0FE0
0FF0
0FF0
0FF0
0FF0
0FF0
0FF0
07F0
07F0
07F0
07F0
07F0
07F0
07F0
07F8
07F8
07F8
07F8
07F8
07F8
ENDCHAR
STARTCHAR 005D
ENCODING 93
SWIDTH 495 0
DWIDTH 44 0
BBX 40 77 2 -15
BITMAP
00001FFFFF
00003FFFFF
00003FFFFE
00003FFFFE
00003FFFFE
00007FFFFE
00000000FC
00000001FC
00000001FC
00000001FC
00000001F8
00000003F8
00000003F8
00000003F8
00000003F8
00000007F0
00000007F0
00000007F0
00000007F0
0000000FE0
0000000FE0
0000000FE0
0000000FE0
0000001FC0
0000001FC0
0000001FC0
0000001FC0
0000003F80
0000003F80
0000003F80
0000003F80
0000003F00
0000007F00
0000007F00
0000007F00
0000007E00
000000FE00
000000FE00
000000FE00
000000FE00
000001FC00
000001FC00
000001FC00
000001FC00
000003F800
000003F800
000003F800
000003F800
000007F000
000007F000
000007F000
000007F000
00000FE000
00000FE000
00000FE000
00000FE000
00000FC000
00001FC000
00001FC000
00001FC000
00001F8000
00003F8000
00003F8000
00003F8000
00003F8000
00007F0000
00007F0000
00007F0000
00007F0000
0000FE0000
0000FE0000
7FFFFE0000
7FFFFE0000
7FFFFC0000
7FFFFC0000
FFFFFC0000
FFFFFC0000
ENDCHAR
STARTCHAR 005E
ENCODING 94
SWIDTH 495 0
DWIDTH 44 0
BBX 36 30 10 25
BITMAP
000007E000
00000FF000
00001FF000
00003FF000
00007FF800
00007FF800
0000FFF800
0001FFFC00
0003FDFC00
0007F9FC00
000FF8FE00
000FF0FE00
001FE0FE00
003FC07F00
007F807F00
00FF807F00
00FF003F00
01FE003F80
03FC003F80
07F8001F80
0FF8001FC0
0FF0001FC0
1FE0001FC0
3FC0000FE0
7F80000FE0
FF80000FE0
FF000007F0
7E000007E0
1C00000780
0000000200
ENDCHAR
STARTCHAR 005F
ENCODING 95
SWIDTH 495 0
DWIDTH 44 0
BBX 41 7 -2 -15
BITMAP
7FFFFFFFFF80
7FFFFFFFFF80
7FFFFFFFFF00
FFFFFFFFFF00
FFFFFFFFFF00
FFFFFFFFFF00
FFFFFFFFFE00
ENDCHAR
STARTCHAR 0060
ENCODING 96
SWIDTH 495 0
DWIDTH 44 0
BBX 14 16 24 45
BITMAP
1800
3C00
7E00
FF00
FF00
7F80
3FC0
1FE0
0FF0
07F0
03F8
01FC
00FC
0078
0070
0020
ENDCHAR
STARTCHAR 0061
ENCODING 97
SWIDTH 495 0
DWIDTH 44 0
BBX 39 43 6 -1
BITMAP
000003FFE0
00001FFFFE
0000FFFFFE
0003FFFFFE
000FFFFFFE
001FFFFFFE
003FFE01FC
007FF001FC
00FFC001FC
01FF8001FC
03FE0003FC
07FC0003F8
07F80003F8
0FF00003F8
1FF00007F8
1FE00007F0
1FC00007F0
3FC00007F0
3F80000FF0
3F80000FE0
7F80000FE0
7F00000FE0
7F00001FE0
7F00001FC0
7F00001FC0
FF00001FC0
FF00003FC0
FF00003F80
FF00003F80
FF00003F80
FF00003F80
7F00003F80
7F00007F80
7F8000FF00
7FC001FF00
3FC007FF80
3FF01FFF80
1FFFFFFF80
1FFFFFFF80
0FFFFF3F80
07FFFE1FC0
01FFF81FC0
007FC00000
ENDCHAR
STARTCHAR 0062
ENCODING 98
SWIDTH 495 0
DWIDTH 44 0
BBX 39 62 6 0
BITMAP
0003F80000
0007F80000
0007F80000
0007F00000
0007F00000
000FF00000
000FF00000
000FE00000
000FE00000
000FE00000
001FE00000
001FC00000
001FC00000
001FC00000
003FC00000
003F800000
003F800000
003F800000
007F800000
007F8FFC00
007F3FFF80
007FFFFFC0
00FFFFFFE0
00FFFFFFF0
00FFFFFFF8
00FFF01FF8
01FF8007FC
01FE0003FC
01FC0003FC
01FC0001FE
03FC0001FE
03F80001FE
03F80000FE
03F80000FE
03F80000FE
07F80000FE
07F00001FE
07F00001FE
07F00001FC
0FF00001FC
0FE00001FC
0FE00003FC
0FE00003FC
1FE00003F8
1FC00007F8
1FC00007F8
1FC0000FF0
3FC0001FF0
3F80001FE0
3F80003FE0
3F80007FC0
7F8001FF80
7F0003FF00
7F000FFF00
7F003FFC00
7FFFFFF800
FFFFFFF000
FFFFFFE000
FFFFFF8000
FFFFFE0000
3FFFF00000
03FF000000
ENDCHAR
STARTCHAR 0063
ENCODING 99
SWIDTH 495 0
DWIDTH 44 0
BBX 39 43 6 -1
BITMAP
000007FFF0
00007FFFFE
0001FFFFFE
0007FFFFFE
000FFFFFFC
003FFFFFFC
007FFC0078
00FFE00008
01FFC00000
03FF000000
07FE000000
07FC000000
0FF8000000
0FF0000000
1FE0000000
1FE0000000
3FC0000000
3FC0000000
3F80000000
7F80000000
7F00000000
7F00000000
7F00000000
7F00000000
FF00000000
FF00000000
FF00000000
FF00000000
FF00000000
FF00000000
7F00000000
7F80000000
7F80000000
7FC0000000
3FE0000100
3FF8000F00
1FFF81FF00
0FFFFFFF00
07FFFFFF80
03FFFFFF80
01FFFFFF00
007FFFFC00
0007FFC000
ENDCHAR
STARTCHAR 0064
ENCODING 100
SWIDTH 495 0
DWIDTH 44 0
BBX 45 63 7 -1
BITMAP
000000000008
0000000003F0
0000000007F0
0000000007F0
000000000FF0
000000000FE0
000000000FE0
000000000FE0
000000001FE0
000000001FC0
000000001FC0
000000001FC0
000000003FC0
000000003F80
000000003F80
000000003F80
000000007F80
000000007F00
000000007F00
000000007F00
000003FFFF00
00003FFFFE00
0000FFFFFE00
0003FFFFFE00
000FFFFFFE00
001FFFFFFE00
007FFE01FC00
00FFF001FC00
01FFC001FC00
01FF0003FC00
03FE0003F800
07FC0003F800
0FF80003F800
0FF00007F800
1FE00007F000
1FE00007F000
3FC00007F000
3FC0000FF000
3F80000FE000
7F80000FE000
7F80000FE000
7F00001FE000
7F00001FC000
FF00001FC000
FF00001FC000
FF00003FC000
FF00003F8000
FE00003F8000
FF00003F8000
FF00003F8000
FF00003F8000
FF00007F0000
FF00007F0000
7F8000FF0000
7F8001FF0000
7FC007FF0000
3FF01FFF0000
3FFFFFFF8000
1FFFFFFF8000
0FFFFF3F8000
07FFFE3F8000
01FFF81FC000
007FC0000000
ENDCHAR
STARTCHAR 0065
ENCODING 101
SWIDTH 495 0
DWIDTH 44 0
BBX 39 43 6 -1
BITMAP
00001FFE00
0000FFFFC0
0003FFFFE0
000FFFFFF0
001FFFFFF8
003FFFFFFC
007FF80FFC
00FFC003FC
01FF8001FE
03FE0001FE
07FC0001FE
07F80001FE
0FF00001FE
1FF00001FC
1FE00003FC
1FC00003FC
3FC00007F8
3F80001FF8
3F80007FF0
7F8007FFE0
7FFFFFFFC0
7FFFFFFF80
7FFFFFFE00
7FFFFFF000
FFFFFF0000
FFFF800000
FE00000000
FE00000000
FE00000000
FF00000000
7F00000000
7F00000000
7F80000000
7FC0000000
3FE0000100
3FF8000F00
1FFF83FF00
0FFFFFFF00
07FFFFFF80
03FFFFFF80
01FFFFFF00
007FFFF800
000FFF8000
ENDCHAR
STARTCHAR 0066
ENCODING 102
SWIDTH 495 0
DWIDTH 44 0
BBX 52 77 1 -15
BITMAP
00000000003800
000000000FFFE0
000000007FFFF0
00000000FFFFE0
00000001FFFFE0
00000003FFFFC0
00000007FFFFC0
0000000FFC0080
0000001FF00000
0000001FE00000
0000003FC00000
0000003FC00000
0000003F800000
0000007F800000
0000007F000000
0000007F000000
000000FF000000
000000FF000000
000000FE000000
000000FE000000
000000FE000000
0001FFFFFFFE00
0003FFFFFFFE00
0003FFFFFFFE00
0003FFFFFFFE00
0003FFFFFFFC00
0007FFFFFFFC00
000003F8000000
000003F8000000
000003F8000000
000007F8000000
000007F8000000
000007F0000000
000007F0000000
000007F0000000
00000FF0000000
00000FF0000000
00000FE0000000
00000FE0000000
00000FE0000000
00001FE0000000
00001FC0000000
00001FC0000000
00001FC0000000
00003FC0000000
00003FC0000000
00003F80000000
00003F80000000
00003F80000000
00007F80000000
00007F80000000
00007F00000000
00007F00000000
00007F00000000
0000FF00000000
0000FE00000000
0000FE00000000
0000FE00000000
0001FE00000000
0001FE00000000
0001FC00000000
0001FC00000000
0001FC00000000
0003FC00000000
0003F800000000
0007F800000000
0007F800000000
000FF000000000
000FF000000000
403FE000000000
7DFFE000000000
7FFFC000000000
7FFF8000000000
FFFF0000000000
FFFE0000000000
FFF80000000000
3FC00000000000
ENDCHAR
STARTCHAR 0067
ENCODING 103
SWIDTH 495 0
DWIDTH 44 0
BBX 45 57 2 -15
BITMAP
0000001FFF80
000001FFFFF0
000007FFFFF8
00001FFFFFF8
00007FFFFFF8
0000FFFFFFF0
0001FFF007F0
0003FF800FF0
0007FE000FF0
000FFC000FE0
001FF0000FE0
003FE0001FE0
003FC0001FE0
007FC0001FC0
007F80001FC0
00FF00001FC0
00FF00003FC0
01FE00003F80
01FE00003F80
01FC00003F80
01FC00007F80
03FC00007F00
03F800007F00
03F800007F00
03F80000FF00
03F80000FE00
03F80000FE00
03F80000FE00
03F80001FE00
03F80001FC00
03F80001FC00
03FC0003FC00
03FE000FFC00
01FF007FF800
01FFFFFFF800
00FFFFFFF800
00FFFFFFF800
007FFFFFF000
001FFFF7F000
0007FF87F000
00000007F000
0000000FE000
0000000FE000
0000001FE000
0000001FC000
0000003FC000
0000007F8000
000000FF8000
300001FF0000
3E0007FF0000
7FE07FFE0000
7FFFFFFC0000
FFFFFFF80000
FFFFFFE00000
7FFFFFC00000
0FFFFE000000
01FFE0000000
ENDCHAR
STARTCHAR 0068
ENCODING 104
SWIDTH 495 0
DWIDTH 44 0
BBX 38 62 4 0
BITMAP
0000040000
0001FC0000
0003FC0000
0003F80000
0003F80000
0007F80000
0007F80000
0007F00000
0007F00000
0007F00000
000FF00000
000FE00000
000FE00000
000FE00000
001FE00000
001FC00000
001FC00000
001FC00000
003FC00000
003F800000
003F8FFC00
003FFFFF00
007FFFFFC0
007FFFFFE0
007FFFFFF0
007FFFFFF8
00FFF07FF8
00FF000FF8
00FE0007FC
00FE0003FC
00FE0003FC
01FE0001FC
01FC0001FC
01FC0001FC
01FC0001FC
03FC0001FC
03F80001FC
03F80001FC
03F80003FC
07F80003F8
07F00003F8
07F00003F8
07F00007F8
0FF00007F0
0FF00007F0
0FE00007F0
0FE0000FF0
1FE0000FF0
1FE0000FE0
1FC0000FE0
1FC0001FE0
3FC0001FE0
3FC0001FC0
3F80001FC0
3F80003FC0
3F80003FC0
7F80003F80
7F00003F80
7F00003F80
7F00007F80
FF00007F00
FE00007F00
ENDCHAR
STARTCHAR 0069
ENCODING 105
SWIDTH 495 0
DWIDTH 44 0
BBX 26 60 12 0
BITMAP
00002000
0001FC00
0003FE00
0007FE00
000FFF00
000FFF00
000FFF00
000FFF00
000FFE00
000FFE00
0007FC00
0003F000
00000000
00000000
00000000
00000000
00000000
00000000
00000000
7FFFF000
7FFFF000
7FFFF000
FFFFF000
FFFFE000
FFFFE000
000FE000
001FE000
001FC000
001FC000
001FC000
003FC000
003FC000
003F8000
003F8000
007F8000
007F8000
007F0000
007F0000
00FF0000
00FF0000
00FE0000
00FE0000
00FE0000
01FE0000
01FE0000
01FC0000
01FC0000
01FC0000
01FC0000
01FC0000
01FC0000
01FE0000
01FE0000
01FF8040
00FFFFC0
00FFFFC0
007FFFC0
003FFFC0
001FFFC0
0007FF80
ENDCHAR
STARTCHAR 006A
ENCODING 106
SWIDTH 495 0
DWIDTH 44 0
BBX 42 74 2 -14
BITMAP
000000003F00
00000000FF80
00000000FFC0
00000001FFC0
00000001FFC0
00000001FFC0
00000001FFC0
00000001FFC0
00000001FF80
00000000FF00
000000007E00
000000000000
000000000000
000000000000
000000000000
000000000000
000000000000
000000000000
0000FFFFFF00
0000FFFFFF00
0000FFFFFF00
0000FFFFFF00
0001FFFFFE00
0001FFFFFE00
00000000FE00
00000001FE00
00000001FC00
00000001FC00
00000001FC00
00000003FC00
00000003F800
00000003F800
00000003F800
00000007F800
00000007F000
00000007F000
00000007F000
0000000FF000
0000000FE000
0000000FE000
0000000FE000
0000001FE000
0000001FC000
0000001FC000
0000001FC000
0000003FC000
0000003FC000
0000003F8000
0000003F8000
0000007F8000
0000007F8000
0000007F0000
0000007F0000
000000FF0000
000000FF0000
000000FE0000
000000FE0000
000000FE0000
000001FE0000
000001FC0000
000001FC0000
000003FC0000
000003F80000
000007F80000
000007F80000
30000FF00000
3C003FE00000
7FE1FFE00000
7FFFFFC00000
FFFFFF800000
FFFFFF000000
7FFFFC000000
1FFFF0000000
01FF00000000
ENDCHAR
STARTCHAR 006B
ENCODING 107
SWIDTH 495 0
DWIDTH 44 0
BBX 42 62 6 0
BITMAP
000004000000
0001F8000000
0003F8000000
0003F8000000
0007F8000000
0007F8000000
0007F0000000
0007F0000000
000FF0000000
000FF0000000
000FE0000000
000FE0000000
001FE0000000
001FE0000000
001FC0000000
001FC0000000
001FC0000000
003FC0000000
003F80000000
003F80000000
003F80000000
007F80007FC0
007F0000FF80
007F0001FF00
007F0007FE00
00FF000FF800
00FE001FF000
00FE003FE000
00FE00FFC000
01FE01FF8000
01FC03FE0000
01FC07FC0000
01FC1FF80000
03FC3FF00000
03F87FC00000
03F9FF800000
03FBFF000000
07FFFC000000
07FFF8000000
07FFF0000000
07FFF8000000
07FFFC000000
0FF7FE000000
0FE3FE000000
0FE1FF000000
0FE0FF800000
1FE07FC00000
1FC03FE00000
1FC01FE00000
1FC01FF00000
3FC00FF80000
3F8007F80000
3F8007FC0000
3F8003FC0000
7F8001FE0000
7F0001FF0000
7F0000FF0000
7F0000FF8000
FF00007F8000
FF00007FC000
FE00003FC000
FE00003FC000
ENDCHAR
STARTCHAR 006C
ENCODING 108
SWIDTH 495 0
DWIDTH 44 0
BBX 23 62 16 -1
BITMAP
7FFFF0
7FFFF0
7FFFF0
7FFFF0
FFFFF0
FFFFE0
000FE0
001FE0
001FE0
001FC0
001FC0
001FC0
003FC0
003F80
003F80
003F80
007F80
007F00
007F00
007F00
00FF00
00FE00
00FE00
00FE00
01FE00
01FC00
01FC00
01FC00
03FC00
03FC00
03F800
03F800
07F800
07F800
07F000
07F000
07F000
0FF000
0FE000
0FE000
0FE000
1FE000
1FC000
1FC000
1FC000
3FC000
3F8000
3F8000
3F8000
3F8000
3F8000
3F8000
3F8000
3FC000
3FC006
3FF87E
3FFFFE
1FFFFE
1FFFFE
0FFFFE
03FFF8
00FFC0
ENDCHAR
STARTCHAR 006D
ENCODING 109
SWIDTH 495 0
DWIDTH 44 0
BBX 43 42 3 0
BITMAP
0003FF00FE00
001FFFC7FF80
007FFFEFFFC0
007FFFFFFFC0
007FFFFFFFE0
00FFFFFFFFE0
00FF07FE1FE0
00FE03F80FE0
00FC03F80FE0
00FC03F80FE0
01FC03F00FE0
01FC03F00FE0
01F807F00FE0
01F807F00FC0
03F807F00FC0
03F807E01FC0
03F80FE01FC0
03F00FE01FC0
07F00FE01F80
07F00FC03F80
07F01FC03F80
07E01FC03F80
0FE01FC03F00
0FE01F807F00
0FE01F807F00
0FC03F807F00
1FC000007E00
1FC000007E00
1FC00000FE00
1F800000FE00
3F800000FC00
3F800000FC00
3F800001FC00
3F000001FC00
3F000001FC00
7F000001F800
7F000003F800
7E000003F800
7E000003F800
FE000003F000
FE000007F000
FC000007F000
ENDCHAR
STARTCHAR 006E
ENCODING 110
SWIDTH 495 0
DWIDTH 44 0
BBX 38 42 6 0
BITMAP
00007FFC00
000FFFFF00
007FFFFFC0
007FFFFFE0
007FFFFFF0
00FFFFFFF0
00FFC07FF8
00FE000FF8
00FE0007F8
01FE0003FC
01FC0003FC
01FC0003FC
01FC0001FC
03FC0001FC
03FC0001FC
03F80003FC
03F80003FC
07F80003F8
07F80003F8
07F00003F8
07F00007F8
0FF00007F8
0FF00007F0
0FE00007F0
0FE00007F0
0FE0000FF0
1FE0000FE0
1FC0000FE0
1FC0000FE0
1FC0001FE0
3FC0001FC0
3F80001FC0
3F80001FC0
3F80003FC0
7F80003F80
7F00003F80
7F00003F80
7F00007F80
FF00007F00
FF00007F00
FE00007F00
FE0000FF00
ENDCHAR
STARTCHAR 006F
ENCODING 111
SWIDTH 495 0
DWIDTH 44 0
BBX 38 43 7 -1
BITMAP
00003FF800
0001FFFE00
0007FFFF80
000FFFFFC0
003FFFFFE0
007FFFFFF0
00FFF07FF0
01FFC00FF8
03FF0007F8
03FE0007F8
07FC0003FC
0FF80003FC
0FF00003FC
1FE00003FC
1FE00001FC
3FC00003FC
3FC00003FC
3F800003FC
7F800003FC
7F800003F8
7F800003F8
7F000003F8
7F000007F8
FF000007F8
FF000007F0
FF00000FF0
FF00000FF0
FE00000FE0
FE00001FE0
FF00003FE0
FF00003FC0
FF00007F80
FF0000FF80
7F8001FF00
7FC003FF00
7FE00FFE00
3FFFFFFC00
3FFFFFF800
1FFFFFE000
0FFFFFC000
07FFFF8000
01FFFC0000
003FE00000
ENDCHAR
STARTCHAR 0070
ENCODING 112
SWIDTH 495 0
DWIDTH 44 0
BBX 43 57 2 -15
BITMAP
00000FFF8000
0001FFFFF000
0007FFFFFC00
000FFFFFFE00
000FFFFFFF00
000FFFFFFF80
000FF803FF80
001FE000FFC0
001FE0007FC0
001FC0003FC0
001FC0001FE0
003FC0001FE0
003FC0001FE0
003F80001FE0
003F80000FE0
007F80000FE0
007F80000FE0
007F00001FE0
007F00001FE0
00FF00001FE0
00FF00001FC0
00FE00001FC0
00FE00003FC0
00FE00003FC0
01FE00003F80
01FC00007F80
01FC00007F80
01FC0000FF00
03FC0000FF00
03F80001FE00
03F80003FE00
03F80007FC00
07F8000FF800
07F0003FF800
07F0007FF000
07F003FFE000
0FFFFFFFC000
0FFFFFFF0000
0FFFFFFE0000
0FFFFFF80000
1FFFFFE00000
1FFFFF800000
1FDFF8000000
1FC000000000
3FC000000000
3FC000000000
3F8000000000
3F8000000000
3F8000000000
7F8000000000
7F0000000000
7F0000000000
7F0000000000
FF0000000000
FE0000000000
FE0000000000
FE0000000000
ENDCHAR
STARTCHAR 0071
ENCODING 113
SWIDTH 495 0
DWIDTH 44 0
BBX 40 57 7 -15
BITMAP
000003FFE0
00003FFFFE
0000FFFFFF
0003FFFFFE
000FFFFFFE
001FFFFFFE
003FFE01FE
00FFF001FC
01FFC001FC
01FF0003FC
03FE0003FC
07FC0003F8
0FF80003F8
0FF00007F8
1FE00007F8
1FE00007F0
3FC00007F0
3FC0000FF0
3F80000FF0
7F80000FE0
7F80000FE0
7F00001FE0
7F00001FE0
FF00001FC0
FF00001FC0
FF00003FC0
FF00003FC0
FE00003F80
FF00003F80
FF00003F80
FF00007F80
FF00007F00
FF00007F00
7F80007F00
7F8001FF00
7FC007FE00
3FF01FFE00
3FFFFFFE00
1FFFFFFE00
0FFFFFFC00
07FFFFFC00
01FFFBFC00
007FC3FC00
000003F800
000003F800
000003F800
000007F800
000007F000
000007F000
000007F000
00000FF000
00000FE000
00000FE000
00000FE000
00001FE000
00001FC000
00001FC000
ENDCHAR
STARTCHAR 0072
ENCODING 114
SWIDTH 495 0
DWIDTH 44 0
BBX 38 42 8 0
BITMAP
00000FFFF0
0003FFFFFC
001FFFFFFC
007FFFFFF8
007FFFFFF8
007FFFFFF0
00FFFE01F0
00FF000000
00FE000000
00FE000000
01FE000000
01FC000000
01FC000000
01FC000000
01FC000000
03FC000000
03F8000000
03F8000000
03F8000000
07F8000000
07F0000000
07F0000000
07F0000000
0FF0000000
0FE0000000
0FE0000000
0FE0000000
1FE0000000
1FC0000000
1FC0000000
1FC0000000
3FC0000000
3F80000000
3F80000000
3F80000000
7F80000000
7F80000000
7F00000000
7F00000000
FF00000000
FF00000000
FE00000000
ENDCHAR
STARTCHAR 0073
ENCODING 115
SWIDTH 495 0
DWIDTH 44 0
BBX 37 43 7 -1
BITMAP
00001FFF80
0000FFFFF0
0003FFFFF8
000FFFFFF8
001FFFFFF0
003FFFFFF0
003FF003E0
007FC00060
007F000000
00FF000000
00FE000000
00FE000000
00FE000000
00FE000000
00FF000000
00FF800000
007FC00000
007FF00000
003FFC0000
001FFF8000
000FFFE000
0003FFF000
0001FFF800
00007FFC00
00001FFE00
000007FF00
000001FF00
000000FF00
0000007F00
0000007F00
0000007F00
0000007F00
0000007F00
000000FF00
180001FE00
3E0003FE00
3FC03FFC00
7FFFFFFC00
7FFFFFF800
FFFFFFF000
7FFFFFC000
0FFFFF0000
00FFF00000
ENDCHAR
STARTCHAR 0074
ENCODING 116
SWIDTH 495 0
DWIDTH 44 0
BBX 33 55 12 -1
BITMAP
0000380000
0007F80000
0007F00000
0007F00000
000FF00000
000FF00000
000FE00000
000FE00000
001FE00000
001FE00000
001FC00000
001FC00000
001FC00000
3FFFFFFF80
7FFFFFFF80
7FFFFFFF80
7FFFFFFF80
7FFFFFFF80
FFFFFFFF00
007F000000
007F000000
00FF000000
00FE000000
00FE000000
00FE000000
01FE000000
01FC000000
01FC000000
01FC000000
03FC000000
03FC000000
03F8000000
03F8000000
07F8000000
07F8000000
07F0000000
07F0000000
0FF0000000
0FF0000000
0FE0000000
0FE0000000
0FE0000000
0FE0000000
0FE0000000
0FE0000000
0FE0000000
0FF0000000
0FF800E000
0FFF3FE000
07FFFFE000
07FFFFE000
03FFFFE000
01FFFFE000
00FFFF8000
001FF80000
ENDCHAR
STARTCHAR 0075
ENCODING 117
SWIDTH 495 0
DWIDTH 44 0
BBX 39 42 7 -1
BITMAP
03FC0001FE
03FC0001FC
03F80001FC
03F80001FC
03F80003FC
07F80003F8
07F00003F8
07F00003F8
07F00007F8
0FF00007F0
0FE00007F0
0FE00007F0
0FE0000FF0
1FE0000FF0
1FE0000FE0
1FC0000FE0
1FC0001FE0
3FC0001FE0
3FC0001FC0
3F80001FC0
3F80003FC0
7F80003FC0
7F80003F80
7F00003F80
7F00003F80
7F00007F80
7F00007F00
FF00007F00
FF00007F00
FF00007F00
7F00007F00
7F0000FF00
7F0001FF00
7F8007FF00
7FC00FFF00
3FF0FFFF00
3FFFFFFF00
1FFFFFFF00
0FFFFE7F00
07FFFC3F80
03FFF03F80
007F800000
ENDCHAR
STARTCHAR 0076
ENCODING 118
SWIDTH 495 0
DWIDTH 44 0
BBX 35 41 12 0
BITMAP
FE00000FE0
FE00001FE0
FE00001FC0
FE00001FC0
FF00003FC0
FF00003F80
FF00007F80
FF00007F00
FF00007F00
FF0000FF00
FF0000FE00
7F0001FE00
7F0001FC00
7F0003FC00
7F0003F800
7F0007F800
7F0007F000
7F000FF000
7F800FE000
7F801FC000
7F801FC000
3F803F8000
3F807F8000
3F807F0000
3F80FF0000
3F80FE0000
3FC1FC0000
3FC3FC0000
1FC3F80000
1FC7F00000
1FCFF00000
1FCFE00000
1FFFC00000
0FFFC00000
0FFF800000
0FFF000000
0FFE000000
0FFE000000
07FC000000
07F8000000
07F0000000
ENDCHAR
STARTCHAR 0077
ENCODING 119
SWIDTH 495 0
DWIDTH 44 0
BBX 44 41 7 0
BITMAP
1FC0000007F0
1FC0000007F0
1FC0000007E0
1FC000000FE0
1F8000000FE0
1F8000000FC0
3F8000001FC0
3F8000001FC0
3F8000001F80
3F8000003F80
3F801F003F80
3F003F003F00
3F003F007F00
3F007F007F00
3F007F007E00
7F00FF80FE00
7F01FF80FC00
7F01FF80FC00
7F03FF81FC00
7F03FF81F800
7E07EF81F800
7E07CF83F000
7E0FCF83F000
7E1F8F87F000
7E1F8F87E000
7E3F0FC7E000
7E3E0FCFC000
7E7E0FCFC000
7EFC0FDFC000
FEFC0FDF8000
FFF807FF8000
FDF007FF0000
FFF007FF0000
FFE007FE0000
FFC007FE0000
FFC007FE0000
FF8007FC0000
FF0007FC0000
FF0003F80000
FE0003F80000
FE0003F00000
ENDCHAR
STARTCHAR 0078
ENCODING 120
SWIDTH 495 0
DWIDTH 44 0
BBX 46 41 2 0
BITMAP
003FE00003FC
001FE00007F8
001FF0000FF0
000FF0001FE0
0007F8003FC0
0007F8007F80
0003FC007F80
0003FC00FF00
0001FC01FE00
0001FE03FC00
0000FE07F800
0000FF0FF000
00007F1FE000
00007FBFC000
00003FFF8000
00003FFF8000
00001FFF0000
00001FFE0000
00000FFC0000
00000FF80000
00000FF80000
00001FF80000
00003FFC0000
00007FFC0000
0000FFFE0000
0001FEFE0000
0003FCFF0000
0007F87F0000
000FF87F8000
001FF03F8000
003FE03FC000
007FC03FC000
00FF801FE000
01FF001FE000
03FE000FF000
07FC000FF000
0FF80007F000
1FF00007F800
3FE00007F800
7FC00003F800
FF800003FC00
ENDCHAR
STARTCHAR 0079
ENCODING 121
SWIDTH 495 0
DWIDTH 44 0
BBX 48 56 -1 -15
BITMAP
0007F800007F
0007F80000FF
0007F80000FF
0007F80000FE
0007F80000FE
0003F80001FE
0003F80001FC
0003F80001FC
0003F80003FC
0003F80003F8
0003F80003F8
0003FC0007F8
0003FC0007F0
0003FC000FF0
0001FC000FE0
0001FC000FE0
0001FC001FC0
0001FE001FC0
0001FE003FC0
0001FE003F80
0000FE007F80
0000FE007F00
0000FE00FF00
0000FF00FE00
00007F00FE00
00007F01FC00
00007F01FC00
00007F83F800
00007F83F800
00003F87F000
00003F8FF000
00003F8FE000
00003FDFC000
00001FDFC000
00001FFF8000
00001FFF8000
00000FFF0000
00000FFE0000
00000FFE0000
00000FFC0000
000007F80000
000007F80000
00000FF00000
00000FE00000
00001FC00000
00003FC00000
00007F800000
0001FF000000
0007FE000000
7CFFFC000000
7FFFF8000000
7FFFF0000000
FFFFC0000000
FFFF00000000
FFFC00000000
1FE000000000
ENDCHAR
STARTCHAR 007A
ENCODING 122
SWIDTH 495 0
DWIDTH 44 0
BBX 40 41 5 0
BITMAP
001FFFFFFF
001FFFFFFF
001FFFFFFF
003FFFFFFE
003FFFFFFE
003FFFFFFC
00000007F8
0000001FF0
0000003FE0
0000007FC0
000000FF80
000001FF00
000003FE00
000007FC00
00000FF800
00001FF000
00003FE000
00007FC000
0000FF8000
0001FF0000
0003FE0000
0007FC0000
0007F80000
000FF00000
001FE00000
003FC00000
007F800000
00FF000000
01FF000000
03FE000000
03FC000000
07F8000000
0FF0000000
1FE0000000
1FC0000000
3FFFFFFF00
7FFFFFFF00
7FFFFFFF00
7FFFFFFF00
7FFFFFFE00
FFFFFFFE00
ENDCHAR
STARTCHAR 007B
ENCODING 123
SWIDTH 495 0
DWIDTH 44 0
BBX 43 77 8 -15
BITMAP
00000007FFE0
0000007FFFC0
000000FFFFC0
000003FFFFC0
000007FFFFC0
00000FFFFF80
00000FF00000
00001FE00000
00001FC00000
00003F800000
00003F800000
00003F800000
00007F000000
00007F000000
00007F000000
00007F000000
0000FE000000
0000FE000000
0000FE000000
0000FE000000
0000FC000000
0001FC000000
0001FC000000
0001FC000000
0001F8000000
0003F8000000
0003F8000000
0003F8000000
0003F0000000
0007F0000000
0007F0000000
000FE0000000
001FE0000000
003FC0000000
007F80000000
7FFF80000000
7FFF00000000
7FFC00000000
7FF800000000
FFFC00000000
FFFE00000000
03FE00000000
00FF00000000
00FF00000000
007F00000000
007F00000000
007F00000000
007F00000000
007F00000000
007E00000000
00FE00000000
00FE00000000
00FE00000000
00FC00000000
01FC00000000
01FC00000000
01FC00000000
01FC00000000
01F800000000
03F800000000
03F800000000
03F800000000
03F000000000
07F000000000
07F000000000
07F000000000
07F000000000
07F000000000
07F000000000
07F800000000
07FE00000000
07FFFFC00000
03FFFFC00000
01FFFF800000
00FFFF800000
007FFF800000
0007FF800000
ENDCHAR
STARTCHAR 007C
ENCODING 124
SWIDTH 495 0
DWIDTH 44 0
BBX 25 77 14 -15
BITMAP
00003F80
00003F80
00007F00
00007F00
00007F00
00007F00
0000FE00
0000FE00
0000FE00
0000FE00
0000FC00
0001FC00
0001FC00
0001FC00
0001FC00
0003F800
0003F800
0003F800
0003F800
0007F000
0007F000
0007F000
0007F000
000FE000
000FE000
000FE000
000FE000
001FC000
001FC000
001FC000
001FC000
003F8000
003F8000
003F8000
003F8000
007F0000
007F0000
007F0000
007F0000
007E0000
00FE0000
00FE0000
00FE0000
00FE0000
01FC0000
01FC0000
01FC0000
01FC0000
03F80000
03F80000
03F80000
03F80000
07F00000
07F00000
07F00000
07F00000
0FE00000
0FE00000
0FE00000
0FE00000
1FC00000
1FC00000
1FC00000
1FC00000
1F800000
3F800000
3F800000
3F800000
3F800000
7F000000
7F000000
7F000000
7F000000
FE000000
FE000000
FE000000
FE000000
ENDCHAR
STARTCHAR 007D
ENCODING 125
SWIDTH 495 0
DWIDTH 44 0
BBX 43 77 0 -15
BITMAP
00003FFF0000
00003FFFC000
00003FFFF000
00007FFFF800
00007FFFF800
00007FFFFC00
00000003FC00
00000001FC00
00000001FC00
00000001FC00
00000001FC00
00000001FC00
00000001FC00
00000001F800
00000003F800
00000003F800
00000003F800
00000003F000
00000007F000
00000007F000
00000007F000
00000007E000
0000000FE000
0000000FE000
0000000FE000
0000000FC000
0000000FC000
0000001FC000
0000001FC000
0000001FC000
0000001FC000
0000001FC000
0000001FC000
0000001FE000
0000001FF000
0000000FFFE0
0000000FFFE0
00000007FFC0
00000003FFC0
0000000FFFC0
0000001FFFC0
0000003FE000
0000007F8000
000000FF0000
000000FE0000
000001FC0000
000001FC0000
000001F80000
000003F80000
000003F80000
000003F80000
000003F00000
000007F00000
000007F00000
000007F00000
000007E00000
00000FE00000
00000FE00000
00000FE00000
00000FC00000
00001FC00000
00001FC00000
00001FC00000
00001FC00000
00003F800000
00003F800000
00003F800000
00007F000000
0000FF000000
0001FE000000
0007FE000000
7FFFFC000000
7FFFF8000000
7FFFF0000000
7FFFC0000000
FFFF00000000
FFE000000000
ENDCHAR
STARTCHAR 007E
ENCODING 126
SWIDTH 495 0
DWIDTH 44 0
BBX 39 13 7 17
BITMAP
007F000000
01FFC00078
03FFE0007E
0FFFF800FC
1FFFFC01FC
1FFFFE03FC
3FFFFFC7F8
7F81FFFFF0
7E00FFFFE0
FE003FFFE0
FC001FFF80
780007FF00
080003FC00
ENDCHAR
STARTCHAR 00A0
ENCODING 160
SWIDTH 495 0
DWIDTH 44 0
BBX 0 0 0 0
BITMAP
ENDCHAR
STARTCHAR 00A1
ENCODING 161
SWIDTH 495 0
DWIDTH 44 0
BBX 21 56 13 -15
BITMAP
0007E0
000FF0
001FF8
003FF8
003FF8
003FF8
003FF8
003FF8
003FF8
001FF0
001FE0
000700
000000
000000
000000
000000
000000
000000
000000
003E00
003E00
007E00
007E00
00FC00
00FC00
00FC00
01FC00
01FC00
01FC00
01FC00
03F800
03F800
03F800
07F800
07F800
07F800
0FF000
0FF000
0FF000
0FF000
1FE000
1FE000
1FE000
1FE000
1FC000
3FC000
3FC000
3FC000
3FC000
7F8000
7F8000
7F8000
7F8000
FF0000
FF0000
FF0000
ENDCHAR
STARTCHAR 00A2
ENCODING 162
SWIDTH 495 0
DWIDTH 44 0
BBX 37 64 8 -9
BITMAP
0000007E00
000000FE00
000000FE00
000000FC00
000000FC00
000001FC00
000001FC00
000001F800
000001F800
000003F800
000003F800
000003FF80
00003FFFF0
0001FFFFF8
0007FFFFF8
000FFFFFF0
003FFFFFF0
007FFF87E0
00FFF00020
01FFC00000
03FF000000
03FE000000
07FC000000
0FF8000000
0FF0000000
1FE0000000
1FE0000000
3FC0000000
3FC0000000
3F80000000
7F80000000
7F00000000
7F00000000
7F00000000
7F00000000
FF00000000
FF00000000
FF00000000
FF00000000
7F00000000
7F00000000
7F80000000
7F80000000
7FC0000000
3FE0000400
3FFC007C00
1FFFFFFC00
0FFFFFFC00
07FFFFFC00
03FFFFFC00
01FFFFF800
003FFFC000
000FE00000
000FC00000
000FC00000
001FC00000
001F800000
001F800000
001F800000
003F800000
003F800000
003F000000
003F000000
007F000000
ENDCHAR
STARTCHAR 00A3
ENCODING 163
SWIDTH 495 0
DWIDTH 44 0
BBX 42 56 8 0
BITMAP
0000003FF800
000003FFFF00
00000FFFFFC0
00001FFFFFC0
00003FFFFF80
00007FFFFF80
0000FFF8FF00
0001FFC00600
0001FF000000
0003FE000000
0003FC000000
0007F8000000
0007F8000000
0007F0000000
000FF0000000
000FE0000000
000FE0000000
001FE0000000
001FC0000000
001FC0000000
001FC0000000
003FC0000000
003F80000000
003F80000000
003F80000000
007F80000000
3FFFFFFF0000
3FFFFFFE0000
7FFFFFFE0000
7FFFFFFE0000
7FFFFFFE0000
7FFFFFFC0000
00FE00000000
01FE00000000
01FE00000000
01FC00000000
01FC00000000
03FC00000000
03F800000000
03F800000000
07F800000000
07F800000000
07F000000000
0FF000000000
0FF000000000
0FE000000000
1FE000000000
1FC000000000
1FC000000000
3FC000000000
3FFFFFFF0000
3FFFFFFF0000
7FFFFFFF0000
7FFFFFFF0000
FFFFFFFE0000
FFFFFFFE0000
ENDCHAR
STARTCHAR 00A4
ENCODING 164
SWIDTH 495 0
DWIDTH 44 0
BBX 38 37 8 9
BITMAP
0C000000C0
1E000001E0
3F000003F0
7F80FC07F8
FFC7FF8FFC
7FFFFFFFF8
3FFFFFFFF0
1FFFFFFFE0
0FFFFFFFC0
07FE01FF80
03F8007F00
07F0003F80
07E0001F80
0FE0001FC0
0FC0000FC0
0FC0000FC0
0FC0000FC0
0FC0000FC0
0FC0000FC0
0FC0000FC0
0FC0000FC0
0FC0000FC0
0FC0000FC0
0FE0001FC0
07E0001F80
07F0003F80
03F8007F00
07FE01FF80
0FFFFFFFC0
1FFFFFFFE0
3FFFFFFFF0
7FFFFFFFF8
FFCFFF8FFC
7F80FC07F8
3F000003F0
1E000001E0
0C000000C0
ENDCHAR
STARTCHAR 00A5
ENCODING 165
SWIDTH 495 0
DWIDTH 44 0
BBX 47 55 7 0
BITMAP
03FC000001FE
03FC000003FE
01FC000003FC
01FE000007F8
01FE00000FF8
00FE00000FF0
00FE00001FE0
00FF00003FC0
00FF00003FC0
007F00007F80
007F0000FF00
007F8001FE00
003F8001FC00
003F8003FC00
003FC007F800
001FC00FF000
001FC01FE000
001FE01FC000
000FE03FC000
000FE07F8000
000FF0FF0000
0007F1FE0000
0007F1FC0000
0003FBF80000
0003FFF80000
0003FFF00000
0001FFE00000
0FFFFFFFF800
0FFFFFFFF800
0FFFFFFFF800
1FFFFFFFF000
1FFFFFFFF000
1FFFFFFFF000
0000FE000000
0001FE000000
0001FC000000
0001FC000000
0001FC000000
0003FC000000
0003F8000000
0003F8000000
7FFFFFFFC000
7FFFFFFFC000
FFFFFFFF8000
FFFFFFFF8000
FFFFFFFF8000
FFFFFFFF8000
000FF0000000
000FE0000000
000FE0000000
000FE0000000
001FE0000000
001FC0000000
001FC0000000
001FC0000000
ENDCHAR
STARTCHAR 00A6
ENCODING 166
SWIDTH 495 0
DWIDTH 44 0
BBX 25 77 14 -15
BITMAP
00003F80
00003F80
00007F00
00007F00
00007F00
00007F00
0000FE00
0000FE00
0000FE00
0000FE00
0000FC00
0001FC00
0001FC00
0001FC00
0001F800
0003F800
0003F800
0003F800
0003F800
0007F000
0007F000
0007F000
0007F000
000FE000
000FE000
000FE000
000FE000
001FC000
001FC000
001FC000
00000000
00000000
00000000
00000000
00000000
00000000
00000000
00000000
00000000
00000000
00000000
00000000
00000000
00000000
00000000
00000000
01FC0000
01FC0000
03F80000
03F80000
03F80000
03F80000
07F00000
07F00000
07F00000
07F00000
0FE00000
0FE00000
0FE00000
0FE00000
1FC00000
1FC00000
1FC00000
1FC00000
1F800000
3F800000
3F800000
3F800000
3F800000
7F000000
7F000000
7F000000
7F000000
FE000000
FE000000
FE000000
FE000000
ENDCHAR
STARTCHAR 00A7
ENCODING 167
SWIDTH 495 0
DWIDTH 44 0
BBX 43 65 4 -9
BITMAP
0000007FFC00
000003FFFF80
00000FFFFFE0
00003FFFFFC0
00007FFFFFC0
0000FFFFFF80
0000FF800F80
0001FE000100
0001FC000000
0003FC000000
0003F8000000
0003F8000000
0003F8000000
0003F8000000
0003F8000000
0003FC000000
0003FE000000
0001FF800000
0001FFF00000
0000FFFC0000
0001FFFF8000
0007FFFFC000
000FFFFFE000
001FF3FFF000
003FC07FF800
007F801FF800
00FF0007FC00
00FE0003FC00
01FC0001FC00
01FC0001FC00
01FC0001FC00
01F80001FC00
03F80001FC00
03F80001FC00
03FC0001FC00
01FC0003F800
01FE0007F800
01FF8007F000
01FFC01FE000
00FFF83FC000
007FFE7F8000
003FFFFF0000
001FFFFE0000
0007FFF80000
0001FFF80000
00003FFC0000
00000FFE0000
000003FE0000
000001FE0000
000000FF0000
000000FF0000
000000FF0000
000000FF0000
000000FE0000
000000FE0000
000001FE0000
100003FE0000
3C0007FC0000
3FE0FFF80000
7FFFFFF80000
7FFFFFE00000
FFFFFFC00000
7FFFFF000000
0FFFFC000000
001E80000000
ENDCHAR
STARTCHAR 00A8
ENCODING 168
SWIDTH 495 0
DWIDTH 44 0
BBX 25 9 21 49
BITMAP
1F003E00
3F807F00
7F80FF00
FFC0FF80
FFC1FF80
FF81FF00
7F80FF00
7F00FE00
3E007C00
ENDCHAR
STARTCHAR 00A9
ENCODING 169
SWIDTH 495 0
DWIDTH 44 0
BBX 39 43 6 -1
BITMAP
0003FF8000
000FFFF000
003FFFF800
00FFFFFE00
01FFFFFF00
03FE00FF80
07F8003FC0
0FE0000FE0
0FC00007E0
1F800003F0
1F803E01F8
3F01FFC1F8
3E03FFC0F8
7E07FF80FC
7C0FFF807C
7C1FFF807C
7C1F80007C
7C1F80007E
FC3F00007E
FC3F00003E
F83F00003E
F83F00003E
F83F00003E
FC3F00003E
FC3F00007E
7C3F80007E
7C1FC0007C
7C1FFF807C
7E0FFF807C
7E07FFC0FC
3E03FFC0F8
3F01FFC1F8
1F807C03F0
1F800003F0
0FC00007E0
0FF0000FC0
07F8003FC0
03FE00FF80
01FFFFFF00
007FFFFC00
003FFFF800
000FFFE000
0001FF0000
ENDCHAR
STARTCHAR 00AA
ENCODING 170
SWIDTH 495 0
DWIDTH 44 0
BBX 28 30 16 26
BITMAP
0003FF80
001FFFF0
007FFFE0
00FFFFE0
01FFFFE0
07FC07E0
0FF00FC0
0FE00FC0
1FC00FC0
3F800F80
3F001F80
7F001F80
7E001F80
7E001F00
FC003F00
FC003F00
FC003F00
FC003E00
FC007E00
FC007E00
FC007E00
FC007E00
FC00FE00
FE01FE00
7F07FE00
7FFFFE00
3FFFFE00
1FFFFF00
0FFE3F00
03F83000
ENDCHAR
STARTCHAR 00AB
ENCODING 171
SWIDTH 495 0
DWIDTH 44 0
BBX 34 31 10 7
BITMAP
0004000400
0007000F00
000F800F80
001FC01FC0
003F803F80
007F007F00
00FE00FE00
01FC01FC00
03FC03FC00
03F803F800
07F007F000
0FE00FE000
1FC01FC000
3FC03FC000
7F807F8000
FF00FF0000
FE00FE0000
FE00FE0000
FF00FF0000
7F007F0000
7F007F0000
3F803F8000
3F803F8000
1F801F8000
1FC01FC000
0FC00FC000
0FC00FC000
07E007E000
07E007E000
03E003E000
0380038000
ENDCHAR
STARTCHAR 00AC
ENCODING 172
SWIDTH 495 0
DWIDTH 44 0
BBX 38 27 8 4
BITMAP
3FFFFFFFFC
7FFFFFFFFC
7FFFFFFFFC
7FFFFFFFF8
7FFFFFFFF8
FFFFFFFFF8
00000003F8
00000003F0
00000003F0
00000007F0
00000007F0
00000007E0
00000007E0
0000000FE0
0000000FE0
0000000FC0
0000000FC0
0000000FC0
0000001FC0
0000001F80
0000001F80
0000001F80
0000003F80
0000003F80
0000003F00
0000003F00
0000007F00
ENDCHAR
STARTCHAR 00AD
ENCODING 173
SWIDTH 495 0
DWIDTH 44 0
BBX 21 7 16 19
BITMAP
7FFFF8
7FFFF0
7FFFF0
FFFFF0
FFFFF0
FFFFF0
FFFFE0
ENDCHAR
STARTCHAR 00AE
ENCODING 174
SWIDTH 495 0
DWIDTH 44 0
BBX 39 43 6 -1
BITMAP
0003FF8000
000FFFF000
003FFFF800
00FFFFFE00
01FFFFFF00
03FE00FF80
07F8003FC0
0FE0000FE0
0FC00007E0
1F800003F0
1F81F001F8
3F0FFF01F8
3E0FFFC0F8
7E0FFFE0FC
7C0FFFE07C
7C0F83F07C
7C0F81F07C
7C0F81F07E
FC0F81F07E
FC0F81F03E
F80F87F03E
F80FFFE03E
F80FFFE03E
FC0FFFC03E
FC0FFF807E
7C0F8F807E
7C0F87C07C
7C0F87C07C
7E0F83E07C
7E0F83F0FC
3E0F81F0F8
3F0F80F9F8
1F800003F0
1F800003F0
0FC00007E0
0FF0000FC0
07F8003FC0
03FE00FF80
01FFFFFF00
007FFFFC00
003FFFF800
000FFFE000
0001FF0000
ENDCHAR
STARTCHAR 00AF
ENCODING 175
SWIDTH 495 0
DWIDTH 44 0
BBX 23 5 21 51
BITMAP
7FFFFE
7FFFFE
7FFFFE
FFFFFE
FFFFFC
ENDCHAR
STARTCHAR 00B0
ENCODING 176
SWIDTH 495 0
DWIDTH 44 0
BBX 22 22 20 40
BITMAP
007800
03FF00
0FFFC0
1FFFE0
3FFFF0
7FCFF0
7E03F8
FC01F8
FC00FC
F800FC
F8007C
F8007C
F8007C
F800FC
FC00FC
FE01F8
7F03F8
7FFFF0
3FFFF0
1FFFE0
0FFF80
03FF00
ENDCHAR
STARTCHAR 00B1
ENCODING 177
SWIDTH 495 0
DWIDTH 44 0
BBX 43 49 3 0
BITMAP
0000003F8000
0000003F8000
0000003F0000
0000007F0000
0000007F0000
0000007F0000
0000007E0000
000000FE0000
000000FE0000
000000FE0000
000000FE0000
000000FC0000
000001FC0000
000001FC0000
000001FC0000
000001F80000
00FFFFFFFFE0
00FFFFFFFFE0
01FFFFFFFFE0
01FFFFFFFFE0
01FFFFFFFFE0
01FFFFFFFFC0
000007F00000
000007E00000
00000FE00000
00000FE00000
00000FE00000
00000FC00000
00001FC00000
00001FC00000
00001FC00000
00001F800000
00003F800000
00003F800000
00003F800000
00003F000000
00003F000000
00007F000000
000000000000
000000000000
000000000000
000000000000
000000000000
7FFFFFFFF800
7FFFFFFFF800
7FFFFFFFF000
7FFFFFFFF000
FFFFFFFFF000
FFFFFFFFF000
ENDCHAR
STARTCHAR 00B2
ENCODING 178
SWIDTH 495 0
DWIDTH 44 0
BBX 25 31 16 25
BITMAP
001FF800
007FFE00
01FFFF00
03FFFF00
03FFFF80
03E03F80
01801F80
01001F80
00001F80
00001F80
00001F80
00003F00
00007E00
0000FE00
0003FC00
0007F800
001FF000
003FC000
00FF8000
01FE0000
03FC0000
07F00000
0FE00000
1F800000
3F000000
3F000000
7FFFFC00
7FFFFC00
7FFFFC00
7FFFFC00
FFFFF800
ENDCHAR
STARTCHAR 00B3
ENCODING 179
SWIDTH 495 0
DWIDTH 44 0
BBX 26 32 16 24
BITMAP
000FFC00
007FFF00
01FFFF80
00FFFF80
00FFFF80
00E01FC0
00000FC0
00000FC0
00000F80
00000F80
00001F80
00007F00
0007FE00
003FF800
003FF000
003FF800
007FFC00
0001FE00
00007F00
00003F00
00003F00
00003F00
00003F00
00003F00
00007E00
2000FE00
3F07FC00
7FFFFC00
7FFFF800
FFFFE000
3FFF8000
03F80000
ENDCHAR
STARTCHAR 00B4
ENCODING 180
SWIDTH 495 0
DWIDTH 44 0
BBX 16 15 27 46
BITMAP
0008
001C
003E
007E
01FF
03FF
07FE
0FFC
1FF0
3FE0
7FC0
FF80
7E00
3C00
3800
ENDCHAR
STARTCHAR 00B5
ENCODING 181
SWIDTH 495 0
DWIDTH 44 0
BBX 45 56 0 -15
BITMAP
0007F80003F8
0007F80003F8
0007F00003F8
0007F00007F8
0007F00007F0
000FF00007F0
000FE00007F0
000FE0000FF0
000FE0000FE0
001FE0000FE0
001FC0000FE0
001FC0001FE0
001FC0001FC0
003FC0001FC0
003FC0001FC0
003F80003FC0
003F80003FC0
007F80003F80
007F80003F80
007F00007F80
007F00007F80
00FF00007F00
00FF00007F00
00FE0000FF00
00FE0000FF00
00FE0000FE00
01FE0000FE00
01FE0000FE00
01FE0000FE00
01FE0001FE00
03FE0001FE00
03FE0001FE00
03FE0001FE00
03FF0007FE00
07FF801FFF00
07FFFFFFFFC0
07FFFFFFFFE0
07FFFFFFFFE0
0FEFFFFF3FC0
0FE7FFFC1FC0
0FE3FFF00FC0
0FE0FF000180
1FE000000000
1FC000000000
1FC000000000
1FC000000000
1FC000000000
3FC000000000
3F8000000000
3F8000000000
3F8000000000
7F8000000000
7F0000000000
7F0000000000
7F0000000000
FF0000000000
ENDCHAR
STARTCHAR 00B6
ENCODING 182
SWIDTH 495 0
DWIDTH 44 0
BBX 42 71 8 -15
BITMAP
0000000D0000
00001FFFFF80
0000FFFFFFC0
0007FFFFFFC0
001FFFFFFF80
003FFFFFFF80
00FFFFFFFF80
01FFFFE01F80
03FFFFE03F00
07FFFFE03F00
0FFFFFE03F00
1FFFFFC03F00
1FFFFFC07E00
3FFFFFC07E00
3FFFFFC07E00
7FFFFF807E00
7FFFFF80FE00
7FFFFF80FC00
7FFFFF80FC00
FFFFFF00FC00
FFFFFF01FC00
FFFFFF01F800
FFFFFF01F800
FFFFFE01F800
FFFFFE03F800
7FFFFE03F000
7FFFFE03F000
7FFFFC03F000
3FFFFC07F000
3FFFFC07E000
1FFFFC07E000
0FFFFC07E000
07FFF80FE000
01FFF80FC000
003FF80FC000
0003F80FC000
0003F00FC000
0003F01F8000
0003F01F8000
0007F01F8000
0007E01F8000
0007E03F8000
0007E03F0000
000FE03F0000
000FC03F0000
000FC07F0000
000FC07E0000
001FC07E0000
001F807E0000
001F80FE0000
001F80FC0000
003F80FC0000
003F00FC0000
003F01FC0000
003F01F80000
003F01F80000
007F01F80000
007E03F80000
007E03F00000
007E03F00000
00FE03F00000
00FC07F00000
00FC07E00000
00FC07E00000
01FC07E00000
01F807E00000
01F80FE00000
01F80FC00000
03F80FC00000
03F00FC00000
03F01FC00000
ENDCHAR
STARTCHAR 00B7
ENCODING 183
SWIDTH 495 0
DWIDTH 44 0
BBX 14 14 19 16
BITMAP
07C0
1FF0
3FF8
7FF8
7FF8
7FFC
7FFC
FFF8
FFF8
7FF8
7FF0
3FE0
1FC0
0700
ENDCHAR
STARTCHAR 00B8
ENCODING 184
SWIDTH 495 0
DWIDTH 44 0
BBX 15 17 11 -15
BITMAP
003E
003E
007C
00F8
01F0
01F8
03FC
03FE
00FE
007E
007E
40FE
7FFE
7FFC
FFFC
FFF0
7FC0
ENDCHAR
STARTCHAR 00B9
ENCODING 185
SWIDTH 495 0
DWIDTH 44 0
BBX 22 31 16 25
BITMAP
000078
0000F8
0003F8
000FF8
001FF0
00FFF0
03FFF0
03FFF0
03FBE0
03E3E0
0307E0
0007E0
0007C0
0007C0
000FC0
000FC0
000F80
000F80
001F80
001F80
001F00
001F00
003F00
003F00
003E00
003E00
7FFFFC
7FFFFC
7FFFFC
7FFFF8
FFFFF8
ENDCHAR
STARTCHAR 00BA
ENCODING 186
SWIDTH 495 0
DWIDTH 44 0
BBX 27 30 17 26
BITMAP
000FFC00
007FFF00
00FFFF80
03FFFFC0
07FFFFC0
0FF01FE0
0FE00FE0
1FC007E0
3F8007E0
3F0007E0
7F0007E0
7E0007E0
7E0007E0
FC0007E0
FC0007E0
FC0007E0
FC000FE0
FC000FC0
FC000FC0
F8001FC0
FC003F80
FC003F80
FC007F00
FE00FE00
FF03FC00
7FFFF800
3FFFF000
3FFFE000
0FFF8000
03FC0000
ENDCHAR
STARTCHAR 00BB
ENCODING 187
SWIDTH 495 0
DWIDTH 44 0
BBX 35 32 8 6
BITMAP
0010001000
0070007000
01F801F800
01F801F800
00FC00FC00
00FC00FC00
00FE00FE00
007E007E00
007F007F00
007F007F00
003F803F80
003F803F80
001FC03F80
001FC01FC0
001FC01FC0
001FE01FE0
003FC03FC0
007F807F80
00FF00FF00
00FE00FE00
01FC01FC00
03F803F800
07F807F800
0FF00FF000
0FE00FE000
1FC01FC000
3F803F8000
7F007F0000
FE00FE0000
3C003C0000
1C001C0000
0800080000
ENDCHAR
STARTCHAR 00BC
ENCODING 188
SWIDTH 495 0
DWIDTH 44 0
BBX 49 56 3 0
BITMAP
00000F00000000
00001E00003F80
00007E00007F00
0001FE0000FE00
0007FE0000FE00
001FFE0001FC00
007FFC0003F800
007FFC0007F000
003C7C000FE000
0030FC000FE000
0000F8001FC000
0000F8003F8000
0000F8007F0000
0001F8007E0000
0001F000FE0000
0001F001FC0000
0001F003F80000
0003F007F00000
0003E007F00000
0003E00FE00000
0003E01FC00000
0007E03F800000
0007C03F000000
0000007F000000
000000FE000000
000001FC000000
000003F8000000
000003F8000000
000007F0000000
00000FE0000000
00001FC0000000
00001F80000000
00003F80000000
00007F00000000
0000FE001F8000
0001FC003F8000
0001FC00FF0000
0003F801FF0000
0007F003FF0000
000FE007FF0000
000FC00FBE0000
001FC01F3E0000
003F803E3E0000
007F007C7E0000
00FE00F87C0000
00FC01F07C0000
01FC03E07C0000
03F807FFFF8000
07F007FFFF8000
07E007FFFF0000
0FE00FFFFF0000
1FC00FFFFF0000
3F800001F80000
7F000001F00000
7E000001F00000
FE000001F00000
ENDCHAR
STARTCHAR 00BD
ENCODING 189
SWIDTH 495 0
DWIDTH 44 0
BBX 49 56 2 0
BITMAP
00000780000000
00000F00003F80
00003F00007F00
0000FF00007F00
0003FF0000FE00
000FFF0001FC00
003FFE0003F800
003FFE0007F000
001E3E0007F000
00187E000FE000
00007C001FC000
00007C003F8000
00007C003F0000
0000FC007F0000
0000F800FE0000
0000F801FC0000
0000F803F80000
0001F803F80000
0001F007F00000
0001F00FE00000
0001F01FC00000
0003F01F800000
0003E03F800000
0000007F000000
000000FE000000
000001FC000000
000001FC000000
000003F8000000
000007F0000000
00000FE0000000
00000FC0000000
00001FC0000000
00003F80000000
00007F00780000
0000FE07FF0000
0000FC0FFF8000
0001FC3FFF8000
0003F81FFFC000
0007F01E0FC000
0007E00807C000
000FE00007C000
001FC000078000
003F80000F8000
007F00003F0000
007E00007E0000
00FE0001FC0000
01FC0007F80000
03F8000FF00000
03F0003FC00000
07F0007F000000
0FE000FC000000
1FC000F8000000
3F8001FFFF0000
3F0001FFFF0000
7F0001FFFF0000
FE0003FFFE0000
ENDCHAR
STARTCHAR 00BE
ENCODING 190
SWIDTH 495 0
DWIDTH 44 0
BBX 49 56 3 0
BITMAP
000FF800000000
003FFE00003F80
007FFE00007F00
003FFF0000FE00
003C7F0000FE00
00001F0001FC00
00001F0003F800
00003E0007F000
00007E000FE000
001FFC000FE000
001FF0001FC000
001FF8003F8000
003FFC007F0000
0007FC007E0000
00007C00FE0000
00007E01FC0000
00007C03F80000
00007C07F00000
0301FC07F00000
07FFF80FE00000
07FFF01FC00000
0FFFE03F800000
03FF803F000000
0000007F000000
000000FE000000
000001FC000000
000003F8000000
000003F8000000
000007F0000000
00000FE0000000
00001FC0000000
00001F80000000
00003F80000000
00007F00000000
0000FE001F8000
0001FC003F8000
0001FC00FF0000
0003F801FF0000
0007F003FF0000
000FE007FF0000
000FC00FBE0000
001FC01F3E0000
003F803E3E0000
007F007C7E0000
00FE00F87C0000
00FC01F07C0000
01FC03E07C0000
03F807FFFF8000
07F007FFFF8000
07E007FFFF0000
0FE00FFFFF0000
1FC00FFFFF0000
3F800001F80000
7F000001F00000
7E000001F00000
FE000001F00000
ENDCHAR
STARTCHAR 00BF
ENCODING 191
SWIDTH 495 0
DWIDTH 44 0
BBX 31 56 7 -15
BITMAP
000001F8
000003FC
000007FE
00000FFE
00000FFE
00000FFE
00000FFE
00000FFE
00000FFE
000007FC
000003F8
000000C0
00000000
00000000
00000000
00000000
00000000
00000000
00000000
00001FC0
00001FC0
00001F80
00003F80
00003F80
00007F00
0000FF00
0001FE00
0003FC00
0007F800
001FF000
003FE000
007FC000
01FF8000
03FE0000
07FC0000
0FF80000
1FF00000
3FE00000
3FC00000
7F800000
7F000000
FF000000
FE000000
FE000000
FE000000
FE000000
FE000000
FF000000
FF800380
FFE01F80
7FFFFF80
3FFFFF80
3FFFFF80
1FFFFF80
07FFFC00
00FFE000
ENDCHAR
STARTCHAR 00C0
ENCODING 192
SWIDTH 495 0
DWIDTH 44 0
BBX 43 74 -1 0
BITMAP
000000008000
00000001C000
00000003C000
00000007E000
0000000FF000
0000000FF800
00000007FC00
00000003FC00
00000001FE00
00000000FF00
000000007F80
000000003FC0
000000001FC0
000000000FC0
000000000780
000000000300
000000000000
000000000000
000000000000
00000003FE00
00000007FE00
0000000FFE00
0000000FFE00
0000001FFE00
0000001FFF00
0000003FFF00
0000007F7F00
0000007E7F00
000000FE7F00
000000FC7F00
000001FC7F00
000003F87F00
000003F83F00
000007F03F00
000007E03F80
00000FE03F80
00000FC03F80
00001FC03F80
00001F803F80
00003F803F80
00007F003F80
00007F003F80
0000FE003F80
0000FC003F80
0001FC003F80
0001F8001F80
0003F8001F80
0003F0001FC0
0007F0001FC0
0007E0001FC0
000FE0001FC0
001FC0001FC0
001FC0001FC0
003F80001FC0
003FFFFFFFC0
007FFFFFFFC0
007FFFFFFFC0
00FFFFFFFFC0
00FFFFFFFFC0
01FFFFFFFFC0
01FC00001FC0
03F800001FC0
03F800001FC0
07F000001FC0
07F000001FC0
0FE000001FC0
0FE000001FC0
1FC000001FC0
1FC000001FC0
3F8000001FE0
3F8000001FE0
7F0000001FE0
7F0000001FE0
FE0000001FE0
ENDCHAR
STARTCHAR 00C1
ENCODING 193
SWIDTH 495 0
DWIDTH 44 0
BBX 47 74 -1 0
BITMAP
000000000010
000000000038
000000000078
0000000000FC
0000000001FE
0000000003FE
0000000007FE
000000000FFC
000000001FF0
000000003FE0
000000007FC0
00000000FF00
00000001FE00
00000000FC00
000000007000
000000002000
000000000000
000000000000
000000000000
00000003FE00
00000007FE00
0000000FFE00
0000000FFE00
0000001FFE00
0000001FFF00
0000003FFF00
0000007F7F00
0000007E7F00
000000FE7F00
000000FC7F00
000001FC7F00
000003F87F00
000003F83F00
000007F03F00
000007E03F80
00000FE03F80
00000FC03F80
00001FC03F80
00001F803F80
00003F803F80
00007F003F80
00007F003F80
0000FE003F80
0000FC003F80
0001FC003F80
0001F8001F80
0003F8001F80
0003F0001FC0
0007F0001FC0
0007E0001FC0
000FE0001FC0
001FC0001FC0
001FC0001FC0
003F80001FC0
003FFFFFFFC0
007FFFFFFFC0
007FFFFFFFC0
00FFFFFFFFC0
00FFFFFFFFC0
01FFFFFFFFC0
01FC00001FC0
03F800001FC0
03F800001FC0
07F000001FC0
07F000001FC0
0FE000001FC0
0FE000001FC0
1FC000001FC0
1FC000001FC0
3F8000001FE0
3F8000001FE0
7F0000001FE0
7F0000001FE0
FE0000001FE0
ENDCHAR
STARTCHAR 00C2
ENCODING 194
SWIDTH 495 0
DWIDTH 44 0
BBX 47 73 -1 0
BITMAP
000000000600
000000000F00
000000001F80
000000003F80
000000007FC0
00000000FFE0
00000003FFE0
00000007FFF0
0000000FF3F8
0000001FE1FC
0000003F80FC
0000003F007E
0000001E007C
000000080038
000000000010
000000000000
000000000000
000000000000
00000003FE00
00000007FE00
0000000FFE00
0000000FFE00
0000001FFE00
0000001FFF00
0000003FFF00
0000007F7F00
0000007E7F00
000000FE7F00
000000FC7F00
000001FC7F00
000003F87F00
000003F83F00
000007F03F00
000007E03F80
00000FE03F80
00000FC03F80
00001FC03F80
00001F803F80
00003F803F80
00007F003F80
00007F003F80
0000FE003F80
0000FC003F80
0001FC003F80
0001F8001F80
0003F8001F80
0003F0001FC0
0007F0001FC0
0007E0001FC0
000FE0001FC0
001FC0001FC0
001FC0001FC0
003F80001FC0
003FFFFFFFC0
007FFFFFFFC0
007FFFFFFFC0
00FFFFFFFFC0
00FFFFFFFFC0
01FFFFFFFFC0
01FC00001FC0
03F800001FC0
03F800001FC0
07F000001FC0
07F000001FC0
0FE000001FC0
0FE000001FC0
1FC000001FC0
1FC000001FC0
3F8000001FE0
3F8000001FE0
7F0000001FE0
7F0000001FE0
FE0000001FE0
ENDCHAR
STARTCHAR 00C3
ENCODING 195
SWIDTH 495 0
DWIDTH 44 0
BBX 50 71 -1 0
BITMAP
00000000000200
0000000FF00780
0000001FF807C0
0000003FFF1FC0
0000007FFFFF80
000000FFFFFF00
000001FC7FFE00
000001F01FFC00
000000F007F800
00000020000000
00000000000000
00000000000000
00000000000000
00000000000000
00000000000000
00000000000000
00000003FE0000
00000007FE0000
0000000FFE0000
0000000FFE0000
0000001FFE0000
0000001FFF0000
0000003FFF0000
0000007F7F0000
0000007E7F0000
000000FE7F0000
000000FC7F0000
000001FC7F0000
000003F87F0000
000003F83F0000
000007F03F0000
000007E03F8000
00000FE03F8000
00000FC03F8000
00001FC03F8000
00001F803F8000
00003F803F8000
00007F003F8000
00007F003F8000
0000FE003F8000
0000FC003F8000
0001FC003F8000
0001F8001F8000
0003F8001F8000
0003F0001FC000
0007F0001FC000
0007E0001FC000
000FE0001FC000
001FC0001FC000
001FC0001FC000
003F80001FC000
003FFFFFFFC000
007FFFFFFFC000
007FFFFFFFC000
00FFFFFFFFC000
00FFFFFFFFC000
01FFFFFFFFC000
01FC00001FC000
03F800001FC000
03F800001FC000
07F000001FC000
07F000001FC000
0FE000001FC000
0FE000001FC000
1FC000001FC000
1FC000001FC000
3F8000001FE000
3F8000001FE000
7F0000001FE000
7F0000001FE000
FE0000001FE000
ENDCHAR
STARTCHAR 00C4
ENCODING 196
SWIDTH 495 0
DWIDTH 44 0
BBX 50 71 -1 0
BITMAP
00000002000400
0000001F803F00
0000003FC07F80
0000003FC07F80
0000007FE07FC0
0000007FE0FFC0
0000007FC07F80
0000003FC07F80
0000003F807F00
0000000E001C00
00000000000000
00000000000000
00000000000000
00000000000000
00000000000000
00000000000000
00000003FE0000
00000007FE0000
0000000FFE0000
0000000FFE0000
0000001FFE0000
0000001FFF0000
0000003FFF0000
0000007F7F0000
0000007E7F0000
000000FE7F0000
000000FC7F0000
000001FC7F0000
000003F87F0000
000003F83F0000
000007F03F0000
000007E03F8000
00000FE03F8000
00000FC03F8000
00001FC03F8000
00001F803F8000
00003F803F8000
00007F003F8000
00007F003F8000
0000FE003F8000
0000FC003F8000
0001FC003F8000
0001F8001F8000
0003F8001F8000
0003F0001FC000
0007F0001FC000
0007E0001FC000
000FE0001FC000
001FC0001FC000
001FC0001FC000
003F80001FC000
003FFFFFFFC000
007FFFFFFFC000
007FFFFFFFC000
00FFFFFFFFC000
00FFFFFFFFC000
01FFFFFFFFC000
01FC00001FC000
03F800001FC000
03F800001FC000
07F000001FC000
07F000001FC000
0FE000001FC000
0FE000001FC000
1FC000001FC000
1FC000001FC000
3F8000001FE000
3F8000001FE000
7F0000001FE000
7F0000001FE000
FE0000001FE000
ENDCHAR
STARTCHAR 00C5
ENCODING 197
SWIDTH 495 0
DWIDTH 44 0
BBX 43 67 -1 0
BITMAP
000000003000
00000003FE00
00000007FF00
0000000FFF80
0000001F8FC0
0000001E03C0
0000001E03E0
0000003E01E0
0000003C01E0
0000003C01E0
0000001E03E0
0000001E03C0
0000001F8FC0
0000000FFF80
0000000FFF00
0000000FFE00
0000001FFE00
0000001FFE00
0000003FFF00
0000007F7F00
0000007E7F00
000000FE7F00
000000FC7F00
000001FC7F00
000001F87F00
000003F83F00
000007F03F00
000007E03F00
00000FE03F80
00000FC03F80
00001FC03F80
00001F803F80
00003F803F80
00007F003F80
00007F003F80
0000FE003F80
0000FC003F80
0001FC003F80
0001F8001F80
0003F8001F80
0003F0001F80
0007F0001F80
0007E0001FC0
000FE0001FC0
001FC0001FC0
001FC0001FC0
003F80001FC0
003FFFFFFFC0
007FFFFFFFC0
007FFFFFFFC0
00FFFFFFFFC0
00FFFFFFFFC0
01FFFFFFFFC0
01FC00001FC0
03F800001FC0
03F800001FC0
07F000001FC0
07F000001FC0
0FE000001FC0
0FE000001FC0
1FC000001FC0
1FC000001FC0
3F8000001FE0
3F8000001FE0
7F0000001FE0
7F0000001FE0
FE0000001FE0
ENDCHAR
STARTCHAR 00C6
ENCODING 198
SWIDTH 495 0
DWIDTH 44 0
BBX 52 55 1 0
BITMAP
00000003FFFFF0
00000007FFFFF0
0000000FFFFFF0
0000000FFFFFF0
0000001FFFFFE0
0000003FFFFFE0
0000003F7E0000
0000007EFE0000
0000007EFE0000
000000FCFE0000
000001FCFE0000
000001F9FC0000
000003F9FC0000
000003F1FC0000
000007E1FC0000
00000FE3F80000
00000FC3F80000
00001FC3F80000
00001F83F80000
00003F87F00000
00003F07F00000
00007F07F00000
00007E07F00000
0000FE0FFFF800
0001FC0FFFF000
0001F80FFFF000
0003F80FFFF000
0003F01FFFF000
0007F01FFFE000
0007E01FC00000
000FE01FC00000
000FC03FC00000
001FC03F800000
001F803F800000
003F803F800000
003FFFFF800000
007FFFFF000000
007FFFFF000000
00FFFFFF000000
01FFFFFF000000
01FFFFFE000000
03F800FE000000
03F800FE000000
07F000FE000000
07F001FC000000
0FE001FC000000
0FE001FC000000
1FC001FC000000
1FC003F8000000
3F8003FFFFC000
3F8003FFFF8000
7F0003FFFF8000
7F0007FFFF8000
FF0007FFFF8000
FE0007FFFF0000
ENDCHAR
STARTCHAR 00C7
ENCODING 199
SWIDTH 495 0
DWIDTH 44 0
BBX 43 71 8 -15
BITMAP
000001FFF000
00000FFFFE00
00003FFFFF80
00007FFFFFE0
0001FFFFFFE0
0003FFFFFFC0
0007FFC0FF80
000FFE000F80
001FF8000300
003FE0000100
007FC0000000
00FF80000000
01FF00000000
01FE00000000
03FC00000000
03F800000000
07F800000000
0FF000000000
0FF000000000
0FE000000000
1FE000000000
1FC000000000
3FC000000000
3FC000000000
3F8000000000
3F8000000000
7F8000000000
7F0000000000
7F0000000000
7F0000000000
FF0000000000
FF0000000000
FF0000000000
FE0000000000
FE0000000000
FE0000000000
FE0000000000
FE0000000000
FE0000000000
FE0000000000
FF0000000000
FF0000000000
FF0000000000
FF0000000000
7F8000000000
7F8000000000
7FC000000000
3FE000000000
3FF000060000
1FF8003E0000
1FFF87FE0000
0FFFFFFE0000
07FFFFFE0000
03FFFFFF0000
01FFFFFC0000
007FFFF00000
000FFF000000
0007C0000000
000F80000000
000FC0000000
001FE0000000
003FF0000000
0007F0000000
0007F0000000
0007F0000000
0007F0000000
03FFF0000000
07FFE0000000
07FFC0000000
07FF80000000
03FE00000000
ENDCHAR
STARTCHAR 00C8
ENCODING 200
SWIDTH 495 0
DWIDTH 44 0
BBX 44 73 6 1
BITMAP
000000180000
0000007C0000
000000FE0000
000001FF0000
000000FF0000
0000007F8000
0000003FC000
0000003FE000
0000001FF000
0000000FF000
00000007F800
00000003FC00
00000001FC00
00000000F000
000000006000
000000000000
000000000000
000000000000
0003FFFFFFF0
0007FFFFFFF0
0007FFFFFFF0
0007FFFFFFF0
0007FFFFFFE0
000FFFFFFFE0
000FE0000000
000FE0000000
000FE0000000
001FE0000000
001FC0000000
001FC0000000
001FC0000000
003FC0000000
003F80000000
003F80000000
003F80000000
007F80000000
007F00000000
007F00000000
007F00000000
00FF00000000
00FE00000000
00FFFFFFF000
00FFFFFFF000
01FFFFFFE000
01FFFFFFE000
01FFFFFFE000
01FFFFFFE000
03FC00000000
03FC00000000
03F800000000
03F800000000
03F800000000
07F800000000
07F000000000
07F000000000
07F000000000
0FF000000000
0FE000000000
0FE000000000
0FE000000000
1FE000000000
1FC000000000
1FC000000000
1FC000000000
3FC000000000
3FC000000000
3F8000000000
3FFFFFFFC000
7FFFFFFFC000
7FFFFFFFC000
7FFFFFFFC000
7FFFFFFF8000
FFFFFFFF8000
ENDCHAR
STARTCHAR 00C9
ENCODING 201
SWIDTH 495 0
DWIDTH 44 0
BBX 44 74 6 0
BITMAP
000000000800
000000001C00
000000003C00
000000007E00
00000000FF00
00000001FF00
00000003FF00
00000007FE00
0000000FF800
0000001FF000
0000003FE000
0000007F8000
000000FF0000
0000007E0000
0000003C0000
000000100000
000000000000
000000000000
000000000000
0003FFFFFFF0
0007FFFFFFF0
0007FFFFFFF0
0007FFFFFFF0
0007FFFFFFE0
000FFFFFFFE0
000FE0000000
000FE0000000
000FE0000000
001FE0000000
001FC0000000
001FC0000000
001FC0000000
003FC0000000
003F80000000
003F80000000
003F80000000
007F80000000
007F00000000
007F00000000
007F00000000
00FF00000000
00FE00000000
00FFFFFFF000
00FFFFFFF000
01FFFFFFE000
01FFFFFFE000
01FFFFFFE000
01FFFFFFE000
03FC00000000
03FC00000000
03F800000000
03F800000000
03F800000000
07F800000000
07F000000000
07F000000000
07F000000000
0FF000000000
0FE000000000
0FE000000000
0FE000000000
1FE000000000
1FC000000000
1FC000000000
1FC000000000
3FC000000000
3FC000000000
3F8000000000
3FFFFFFFC000
7FFFFFFFC000
7FFFFFFFC000
7FFFFFFFC000
7FFFFFFF8000
FFFFFFFF8000
ENDCHAR
STARTCHAR 00CA
ENCODING 202
SWIDTH 495 0
DWIDTH 44 0
BBX 44 73 6 0
BITMAP
00000000C000
00000001E000
00000003E000
00000007F000
0000000FF800
0000003FFC00
0000007FFC00
000000FFFE00
000001FE7F00
000003F83F00
00000FF03F80
000007E01F80
000003800F00
000003000600
000000000000
000000000000
000000000000
000000000000
0003FFFFFFF0
0007FFFFFFF0
0007FFFFFFF0
0007FFFFFFF0
0007FFFFFFE0
000FFFFFFFE0
000FE0000000
000FE0000000
000FE0000000
001FE0000000
001FC0000000
001FC0000000
001FC0000000
003FC0000000
003F80000000
003F80000000
003F80000000
007F80000000
007F00000000
007F00000000
007F00000000
00FF00000000
00FE00000000
00FFFFFFF000
00FFFFFFF000
01FFFFFFE000
01FFFFFFE000
01FFFFFFE000
01FFFFFFE000
03FC00000000
03FC00000000
03F800000000
03F800000000
03F800000000
07F800000000
07F000000000
07F000000000
07F000000000
0FF000000000
0FE000000000
0FE000000000
0FE000000000
1FE000000000
1FC000000000
1FC000000000
1FC000000000
3FC000000000
3FC000000000
3F8000000000
3FFFFFFFC000
7FFFFFFFC000
7FFFFFFFC000
7FFFFFFFC000
7FFFFFFF8000
FFFFFFFF8000
ENDCHAR
STARTCHAR 00CB
ENCODING 203
SWIDTH 495 0
DWIDTH 44 0
BBX 44 71 6 0
BITMAP
000001000200
00000FC00F80
00001FE01FC0
00001FF03FE0
00001FF03FE0
00003FF03FE0
00003FE03FC0
00001FE03FC0
00001FC01F80
000007000E00
000000000000
000000000000
000000000000
000000000000
000000000000
000000000000
0003FFFFFFF0
0007FFFFFFF0
0007FFFFFFF0
0007FFFFFFF0
0007FFFFFFE0
000FFFFFFFE0
000FE0000000
000FE0000000
000FE0000000
001FE0000000
001FC0000000
001FC0000000
001FC0000000
003FC0000000
003F80000000
003F80000000
003F80000000
007F80000000
007F00000000
007F00000000
007F00000000
00FF00000000
00FE00000000
00FFFFFFF000
00FFFFFFF000
01FFFFFFE000
01FFFFFFE000
01FFFFFFE000
01FFFFFFE000
03FC00000000
03FC00000000
03F800000000
03F800000000
03F800000000
07F800000000
07F000000000
07F000000000
07F000000000
0FF000000000
0FE000000000
0FE000000000
0FE000000000
1FE000000000
1FC000000000
1FC000000000
1FC000000000
3FC000000000
3FC000000000
3F8000000000
3FFFFFFFC000
7FFFFFFFC000
7FFFFFFFC000
7FFFFFFFC000
7FFFFFFF8000
FFFFFFFF8000
ENDCHAR
STARTCHAR 00CC
ENCODING 204
SWIDTH 495 0
DWIDTH 44 0
BBX 42 74 6 0
BITMAP
000000400000
000000E00000
000001F00000
000003F00000
000007F80000
000007FC0000
000003FE0000
000001FF0000
000000FF0000
0000007F8000
0000003FC000
0000001FE000
0000000FF000
00000007E000
00000003C000
000000018000
000000000000
000000000000
000000000000
0007FFFFFFC0
0007FFFFFFC0
0007FFFFFF80
0007FFFFFF80
000FFFFFFF80
000FFFFFFF80
000001FC0000
000003FC0000
000003F80000
000003F80000
000003F80000
000007F80000
000007F00000
000007F00000
000007F00000
00000FF00000
00000FF00000
00000FE00000
00000FE00000
00001FE00000
00001FE00000
00001FC00000
00001FC00000
00003FC00000
00003FC00000
00003F800000
00003F800000
00007F800000
00007F800000
00007F000000
00007F000000
00007F000000
0000FF000000
0000FE000000
0000FE000000
0000FE000000
0001FE000000
0001FC000000
0001FC000000
0001FC000000
0003FC000000
0003F8000000
0003F8000000
0003F8000000
0007F8000000
0007F0000000
0007F0000000
0007F0000000
000FF0000000
3FFFFFFC0000
7FFFFFFC0000
7FFFFFFC0000
7FFFFFF80000
7FFFFFF80000
FFFFFFF80000
ENDCHAR
STARTCHAR 00CD
ENCODING 205
SWIDTH 495 0
DWIDTH 44 0
BBX 42 74 6 0
BITMAP
000000001000
000000003000
000000007800
00000000FC00
00000001FC00
00000003FE00
00000007FE00
0000000FF800
0000001FF000
0000003FE000
0000007F8000
000000FF0000
000001FE0000
000000FC0000
000000700000
000000600000
000000000000
000000000000
000000000000
0007FFFFFFC0
0007FFFFFFC0
0007FFFFFF80
0007FFFFFF80
000FFFFFFF80
000FFFFFFF80
000001FC0000
000003FC0000
000003F80000
000003F80000
000003F80000
000007F80000
000007F00000
000007F00000
000007F00000
00000FF00000
00000FF00000
00000FE00000
00000FE00000
00001FE00000
00001FE00000
00001FC00000
00001FC00000
00003FC00000
00003FC00000
00003F800000
00003F800000
00007F800000
00007F800000
00007F000000
00007F000000
00007F000000
0000FF000000
0000FE000000
0000FE000000
0000FE000000
0001FE000000
0001FC000000
0001FC000000
0001FC000000
0003FC000000
0003F8000000
0003F8000000
0003F8000000
0007F8000000
0007F0000000
0007F0000000
0007F0000000
000FF0000000
3FFFFFFC0000
7FFFFFFC0000
7FFFFFFC0000
7FFFFFF80000
7FFFFFF80000
FFFFFFF80000
ENDCHAR
STARTCHAR 00CE
ENCODING 206
SWIDTH 495 0
DWIDTH 44 0
BBX 42 73 6 0
BITMAP
000000010000
000000078000
0000000FC000
0000001FC000
0000003FE000
0000007FF000
000000FFF800
000003FFF800
000007F9FC00
00000FF0FE00
00001FC07E00
00001F803F00
00000F001E00
000004000C00
000000000800
000000000000
000000000000
000000000000
0007FFFFFFC0
0007FFFFFFC0
0007FFFFFF80
0007FFFFFF80
000FFFFFFF80
000FFFFFFF80
000001FC0000
000003FC0000
000003F80000
000003F80000
000003F80000
000007F80000
000007F00000
000007F00000
000007F00000
00000FF00000
00000FF00000
00000FE00000
00000FE00000
00001FE00000
00001FE00000
00001FC00000
00001FC00000
00003FC00000
00003FC00000
00003F800000
00003F800000
00007F800000
00007F800000
00007F000000
00007F000000
00007F000000
0000FF000000
0000FE000000
0000FE000000
0000FE000000
0001FE000000
0001FC000000
0001FC000000
0001FC000000
0003FC000000
0003F8000000
0003F8000000
0003F8000000
0007F8000000
0007F0000000
0007F0000000
0007F0000000
000FF0000000
3FFFFFFC0000
7FFFFFFC0000
7FFFFFFC0000
7FFFFFF80000
7FFFFFF80000
FFFFFFF80000
ENDCHAR
STARTCHAR 00CF
ENCODING 207
SWIDTH 495 0
DWIDTH 44 0
BBX 43 71 6 0
BITMAP
000001000300
000007E00FC0
00000FE01FC0
00001FF03FE0
00001FF03FE0
00001FF03FE0
00001FE03FC0
00001FE03FC0
00000FC01F80
000007000E00
000000000000
000000000000
000000000000
000000000000
000000000000
000000000000
0007FFFFFFC0
0007FFFFFFC0
0007FFFFFF80
0007FFFFFF80
000FFFFFFF80
000FFFFFFF80
000001FC0000
000003FC0000
000003F80000
000003F80000
000003F80000
000007F80000
000007F00000
000007F00000
000007F00000
00000FF00000
00000FF00000
00000FE00000
00000FE00000
00001FE00000
00001FE00000
00001FC00000
00001FC00000
00003FC00000
00003FC00000
00003F800000
00003F800000
00007F800000
00007F800000
00007F000000
00007F000000
00007F000000
0000FF000000
0000FE000000
0000FE000000
0000FE000000
0001FE000000
0001FC000000
0001FC000000
0001FC000000
0003FC000000
0003F8000000
0003F8000000
0003F8000000
0007F8000000
0007F0000000
0007F0000000
0007F0000000
000FF0000000
3FFFFFFC0000
7FFFFFFC0000
7FFFFFFC0000
7FFFFFF80000
7FFFFFF80000
FFFFFFF80000
ENDCHAR
STARTCHAR 00D0
ENCODING 208
SWIDTH 495 0
DWIDTH 44 0
BBX 40 56 6 0
BITMAP
0000070000
0003FFFC00
0007FFFF00
0007FFFFC0
000FFFFFE0
000FFFFFF0
000FFFFFF8
000FE01FF8
001FE007FC
001FC003FC
001FC003FE
001FC001FE
003FC000FE
003F8000FF
003F8000FF
003F8000FF
007F80007F
007F80007F
007F00007F
007F00007F
00FF00007F
00FF00007F
00FE00007F
00FE00007F
7FFFFC007F
7FFFFC007F
7FFFF8007F
FFFFF8007F
FFFFF800FF
FFFFF800FF
03F80000FE
03F80000FE
03F80001FE
07F80001FE
07F00001FC
07F00003FC
07F00003FC
0FF00003F8
0FF00007F8
0FE00007F8
0FE0000FF0
1FE0001FF0
1FE0001FE0
1FC0003FC0
1FC0007FC0
3FC000FF80
3FC001FF00
3F8007FE00
3F801FFE00
3F807FFC00
7FFFFFF000
7FFFFFE000
7FFFFFC000
7FFFFF0000
FFFFFC0000
7FFFC00000
ENDCHAR
STARTCHAR 00D1
ENCODING 209
SWIDTH 495 0
DWIDTH 44 0
BBX 47 71 4 0
BITMAP
000000000040
000000FE0070
000003FF80F8
000007FFE1F8
00000FFFFFF0
00001FFFFFF0
00001F8FFFE0
00003F03FFC0
00001E00FF00
000004000000
000000000000
000000000000
000000000000
000000000000
000000000000
000000000000
0007F000007E
000FF00000FE
000FF80000FE
000FF80000FE
000FF80000FC
001FFC0001FC
001FFC0001FC
001FFC0001FC
001FFE0001F8
003FFE0001F8
003FFE0003F8
003FFE0003F8
003F7F0003F0
003F3F0003F0
007F3F0007F0
007F3F8007F0
007E1F8007F0
007E1F8007E0
00FE1F800FE0
00FE1FC00FE0
00FC0FC00FE0
00FC0FC00FC0
01FC0FC01FC0
01FC0FE01FC0
01F807E01FC0
01F807E01F80
03F807E03F80
03F807F03F80
03F803F03F80
03F003F03F00
07F003F03F00
07F003F07F00
07F001F87F00
07E001F87E00
0FE001F87E00
0FE001F8FE00
0FE000F8FE00
0FC000FCFC00
0FC000FCFC00
1FC000FDFC00
1FC000FDFC00
1F80007DF800
1F80007DF800
3F80007FF800
3F80007FF800
3F00007FF800
3F00003FF000
7F00003FF000
7F00003FF000
7F00003FF000
7E00003FE000
FE00003FE000
FE00001FE000
FE00001FE000
FC00001FC000
ENDCHAR
STARTCHAR 00D2
ENCODING 210
SWIDTH 495 0
DWIDTH 44 0
BBX 41 74 7 0
BITMAP
000000C00000
000003E00000
000007F00000
00000FF80000
000007F80000
000003FC0000
000001FE0000
000000FF0000
0000007F8000
0000003F8000
0000001FC000
0000000FE000
00000007E000
00000007C000
000000030000
000000000000
000000000000
000007FF0000
00001FFFC000
00007FFFF000
0001FFFFF800
0003FFFFFC00
0007FFFFFC00
000FFE0FFE00
001FF003FE00
003FE001FF00
007FC000FF00
007F80007F00
00FF00007F80
01FE00007F80
01FC00007F80
03FC00003F80
03F800003F80
07F800003F80
07F000003F80
0FF000003F80
0FE000003F80
0FE000003F80
1FE000003F80
1FC000007F80
1FC000007F80
3FC000007F80
3F8000007F00
3F8000007F00
3F8000007F00
7F8000007F00
7F000000FF00
7F000000FE00
7F000000FE00
7F000000FE00
7F000001FC00
FF000001FC00
FF000001FC00
FF000003F800
FF000003F800
FE000007F800
FE000007F000
FF00000FF000
FF00000FE000
FF00001FE000
FF00001FC000
FF00003FC000
7F00007F8000
7F8000FF8000
7F8001FF0000
7FC003FE0000
3FE007FC0000
3FF83FF80000
1FFFFFF00000
0FFFFFE00000
07FFFFC00000
03FFFF000000
01FFFE000000
003FF0000000
ENDCHAR
STARTCHAR 00D3
ENCODING 211
SWIDTH 495 0
DWIDTH 44 0
BBX 41 75 7 -1
BITMAP
000000001000
000000003000
000000007800
00000000FC00
00000001FC00
00000003FE00
00000007FE00
0000000FFC00
0000001FF000
0000003FE000
0000007FC000
000000FF0000
000001FE0000
000000FC0000
000000700000
000000200000
000000000000
000000000000
000007FF0000
00001FFFC000
00007FFFF000
0001FFFFF800
0003FFFFFC00
0007FFFFFC00
000FFE0FFE00
001FF003FE00
003FE001FF00
007FC000FF00
007F80007F00
00FF00007F80
01FE00007F80
01FC00007F80
03FC00003F80
03F800003F80
07F800003F80
07F000003F80
0FF000003F80
0FE000003F80
0FE000003F80
1FE000003F80
1FC000007F80
1FC000007F80
3FC000007F80
3F8000007F00
3F8000007F00
3F8000007F00
7F8000007F00
7F000000FF00
7F000000FE00
7F000000FE00
7F000000FE00
7F000001FC00
FF000001FC00
FF000001FC00
FF000003F800
FF000003F800
FE000007F800
FE000007F000
FF00000FF000
FF00000FE000
FF00001FE000
FF00001FC000
FF00003FC000
7F00007F8000
7F8000FF8000
7F8001FF0000
7FC003FE0000
3FE007FC0000
3FF83FF80000
1FFFFFF00000
0FFFFFE00000
07FFFFC00000
03FFFF000000
01FFFE000000
003FF0000000
ENDCHAR
STARTCHAR 00D4
ENCODING 212
SWIDTH 495 0
DWIDTH 44 0
BBX 41 74 7 -1
BITMAP
000000030000
000000070000
0000000F8000
0000003FC000
0000007FE000
000000FFE000
000001FFF000
000003FFF800
000007F3F800
00001FE1FC00
00003FC0FE00
00001F007E00
00001E003C00
00000C001800
000000000000
000000000000
000000000000
000007FF0000
00001FFFC000
00007FFFF000
0001FFFFF800
0003FFFFFC00
0007FFFFFC00
000FFE0FFE00
001FF003FE00
003FE001FF00
007FC000FF00
007F80007F00
00FF00007F80
01FE00007F80
01FC00007F80
03FC00003F80
03F800003F80
07F800003F80
07F000003F80
0FF000003F80
0FE000003F80
0FE000003F80
1FE000003F80
1FC000007F80
1FC000007F80
3FC000007F80
3F8000007F00
3F8000007F00
3F8000007F00
7F8000007F00
7F000000FF00
7F000000FE00
7F000000FE00
7F000000FE00
7F000001FC00
FF000001FC00
FF000001FC00
FF000003F800
FF000003F800
FE000007F800
FE000007F000
FF00000FF000
FF00000FE000
FF00001FE000
FF00001FC000
FF00003FC000
7F00007F8000
7F8000FF8000
7F8001FF0000
7FC003FE0000
3FE007FC0000
3FF83FF80000
1FFFFFF00000
0FFFFFE00000
07FFFFC00000
03FFFF000000
01FFFE000000
003FF0000000
ENDCHAR
STARTCHAR 00D5
ENCODING 213
SWIDTH 495 0
DWIDTH 44 0
BBX 43 72 7 -1
BITMAP
000000000100
000007F00380
00001FFC07E0
00003FFF0FC0
00007FFFFFC0
00007FFFFF80
0000FC3FFF00
0000F80FFE00
00007003F800
000030000000
000000000000
000000000000
000000000000
000000000000
000000000000
000007FF0000
00001FFFC000
00007FFFF000
0001FFFFF800
0003FFFFFC00
0007FFFFFC00
000FFE0FFE00
001FF003FE00
003FE001FF00
007FC000FF00
007F80007F00
00FF00007F80
01FE00007F80
01FC00007F80
03FC00003F80
03F800003F80
07F800003F80
07F000003F80
0FF000003F80
0FE000003F80
0FE000003F80
1FE000003F80
1FC000007F80
1FC000007F80
3FC000007F80
3F8000007F00
3F8000007F00
3F8000007F00
7F8000007F00
7F000000FF00
7F000000FE00
7F000000FE00
7F000000FE00
7F000001FC00
FF000001FC00
FF000001FC00
FF000003F800
FF000003F800
FE000007F800
FE000007F000
FF00000FF000
FF00000FE000
FF00001FE000
FF00001FC000
FF00003FC000
7F00007F8000
7F8000FF8000
7F8001FF0000
7FC003FE0000
3FE007FC0000
3FF83FF80000
1FFFFFF00000
0FFFFFE00000
07FFFFC00000
03FFFF000000
01FFFE000000
003FF0000000
ENDCHAR
STARTCHAR 00D6
ENCODING 214
SWIDTH 495 0
DWIDTH 44 0
BBX 42 72 7 -1
BITMAP
000000000200
00000FC01F80
00001FE03FC0
00003FE07FC0
00003FE07FC0
00003FE07FC0
00003FE07FC0
00003FC07F80
00001F803F00
000006000C00
000000000000
000000000000
000000000000
000000000000
000000000000
000007FF0000
00001FFFC000
00007FFFF000
0001FFFFF800
0003FFFFFC00
0007FFFFFC00
000FFE0FFE00
001FF003FE00
003FE001FF00
007FC000FF00
007F80007F00
00FF00007F80
01FE00007F80
01FC00007F80
03FC00003F80
03F800003F80
07F800003F80
07F000003F80
0FF000003F80
0FE000003F80
0FE000003F80
1FE000003F80
1FC000007F80
1FC000007F80
3FC000007F80
3F8000007F00
3F8000007F00
3F8000007F00
7F8000007F00
7F000000FF00
7F000000FE00
7F000000FE00
7F000000FE00
7F000001FC00
FF000001FC00
FF000001FC00
FF000003F800
FF000003F800
FE000007F800
FE000007F000
FF00000FF000
FF00000FE000
FF00001FE000
FF00001FC000
FF00003FC000
7F00007F8000
7F8000FF8000
7F8001FF0000
7FC003FE0000
3FE007FC0000
3FF83FF80000
1FFFFFF00000
0FFFFFE00000
07FFFFC00000
03FFFF000000
01FFFE000000
003FF0000000
ENDCHAR
STARTCHAR 00D7
ENCODING 215
SWIDTH 495 0
DWIDTH 44 0
BBX 37 32 8 7
BITMAP
00200000C0
00F00001E0
01F80003F0
03F80007F8
03FC001FF8
01FE003FF0
00FF007FE0
00FF00FF80
007F83FF00
003FC7FE00
001FEFFC00
001FFFF000
000FFFE000
0007FFC000
0003FF8000
0003FE0000
0007FE0000
001FFF0000
003FFF8000
007FFF8000
00FFBFC000
03FF1FE000
07FE0FF000
0FFC0FF000
1FF007F800
3FE003FC00
FFC001FE00
FF8001FE00
7E0000FC00
3C00007800
1800003000
1000000000
ENDCHAR
STARTCHAR 00D8
ENCODING 216
SWIDTH 495 0
DWIDTH 44 0
BBX 46 61 4 -3
BITMAP
000000000040
0000000000E0
000001FFC0F8
000007FFF1FC
00001FFFFFF8
00007FFFFFF0
0000FFFFFFF0
0001FFFFFFE0
0003FF81FFC0
0007FE007FC0
000FF8003FC0
000FF0007FC0
001FE000FFE0
003FC000FFE0
003F8001FFE0
007F8003FFE0
00FF0007FFE0
00FE0007FFE0
01FE000FEFE0
01FC001FCFE0
01FC001F8FE0
03FC003F8FE0
03F8007F0FE0
03F800FE0FE0
07F000FE0FE0
07F001FC0FE0
07F003F80FE0
0FE003F00FE0
0FE007F01FC0
0FE00FE01FC0
0FE01FC01FC0
1FC01F801FC0
1FC03F801FC0
1FC07F003F80
1FC0FE003F80
1FC0FE003F80
1FC1FC007F00
1FC3F8007F00
3FC3F0007F00
3FC7F000FE00
3FCFE000FE00
3FDFC001FC00
3FDF8001FC00
3FFF8003FC00
3FFF0003F800
1FFE0007F800
1FFE000FF000
1FFC000FE000
1FF8001FE000
1FF0003FC000
0FF0007F8000
0FF801FF0000
1FFE07FF0000
1FFFFFFE0000
3FFFFFF80000
7FFFFFF00000
7EFFFFE00000
FE3FFF800000
7C0FFC000000
380000000000
100000000000
ENDCHAR
STARTCHAR 00D9
ENCODING 217
SWIDTH 495 0
DWIDTH 44 0
BBX 44 75 7 -1
BITMAP
000002000000
000006000000
00000F000000
00001F800000
00007FC00000
00003FE00000
00001FE00000
00000FF00000
000007F80000
000003FC0000
000001FE0000
000000FE0000
0000007F0000
0000003F0000
0000001E0000
0000000C0000
000000000000
000000000000
000000000000
007F800007F0
007F000007F0
007F00000FF0
007F00000FE0
00FF00000FE0
00FE00000FE0
00FE00001FE0
00FE00001FC0
01FE00001FC0
01FC00001FC0
01FC00003FC0
01FC00003F80
03FC00003F80
03F800003F80
03F800007F80
03F800007F00
07F800007F00
07F000007F00
07F00000FF00
07F00000FF00
0FF00000FE00
0FE00000FE00
0FE00001FE00
0FE00001FE00
1FE00001FC00
1FE00001FC00
1FC00001FC00
1FC00003FC00
1FC00003F800
3FC00003F800
3F800003F800
3F800007F800
3F800007F000
7F800007F000
7F000007F000
7F00000FF000
7F00000FE000
FF00000FE000
FF00000FE000
FF00001FE000
FE00001FC000
FE00001FC000
FF00003FC000
FF00003F8000
FF00007F8000
7F0000FF8000
7F8000FF0000
7F8001FE0000
3FE007FE0000
3FF83FFC0000
1FFFFFF80000
1FFFFFF00000
0FFFFFE00000
03FFFFC00000
01FFFF000000
007FF0000000
ENDCHAR
STARTCHAR 00DA
ENCODING 218
SWIDTH 495 0
DWIDTH 44 0
BBX 44 74 7 0
BITMAP
000000003800
000000007800
00000000FC00
00000001FE00
00000003FF00
00000007FE00
0000000FFC00
0000001FF800
0000003FE000
0000007FC000
000000FF8000
000000FE0000
000000FC0000
000000780000
000000200000
000000000000
000000000000
000000000000
007F800007F0
007F000007F0
007F00000FF0
007F00000FE0
00FF00000FE0
00FE00000FE0
00FE00001FE0
00FE00001FC0
01FE00001FC0
01FC00001FC0
01FC00003FC0
01FC00003F80
03FC00003F80
03F800003F80
03F800007F80
03F800007F00
07F800007F00
07F000007F00
07F00000FF00
07F00000FF00
0FF00000FE00
0FE00000FE00
0FE00001FE00
0FE00001FE00
1FE00001FC00
1FE00001FC00
1FC00001FC00
1FC00003FC00
1FC00003F800
3FC00003F800
3F800003F800
3F800007F800
3F800007F000
7F800007F000
7F000007F000
7F00000FF000
7F00000FE000
FF00000FE000
FF00000FE000
FF00001FE000
FE00001FC000
FE00001FC000
FF00003FC000
FF00003F8000
FF00007F8000
7F0000FF8000
7F8000FF0000
7F8001FE0000
3FE007FE0000
3FF83FFC0000
1FFFFFF80000
1FFFFFF00000
0FFFFFE00000
03FFFFC00000
01FFFF000000
007FF0000000
ENDCHAR
STARTCHAR 00DB
ENCODING 219
SWIDTH 495 0
DWIDTH 44 0
BBX 44 74 7 -1
BITMAP
000000020000
0000000F0000
0000001F8000
0000003F8000
0000007FC000
000000FFE000
000001FFF000
000007FFF000
00000FF3F800
00001FE1FC00
00003F80FC00
00003F007E00
00001E003C00
000008001800
000000001000
000000000000
000000000000
000000000000
007F800007F0
007F000007F0
007F00000FF0
007F00000FE0
00FF00000FE0
00FE00000FE0
00FE00001FE0
00FE00001FC0
01FE00001FC0
01FC00001FC0
01FC00003FC0
01FC00003F80
03FC00003F80
03F800003F80
03F800007F80
03F800007F00
07F800007F00
07F000007F00
07F00000FF00
07F00000FF00
0FF00000FE00
0FE00000FE00
0FE00001FE00
0FE00001FE00
1FE00001FC00
1FE00001FC00
1FC00001FC00
1FC00003FC00
1FC00003F800
3FC00003F800
3F800003F800
3F800007F800
3F800007F000
7F800007F000
7F000007F000
7F00000FF000
7F00000FE000
FF00000FE000
FF00000FE000
FF00001FE000
FE00001FC000
FE00001FC000
FF00003FC000
FF00003F8000
FF00007F8000
7F0000FF8000
7F8000FF0000
7F8001FE0000
3FE007FE0000
3FF83FFC0000
1FFFFFF80000
1FFFFFF00000
0FFFFFE00000
03FFFFC00000
01FFFF000000
007FF0000000
ENDCHAR
STARTCHAR 00DC
ENCODING 220
SWIDTH 495 0
DWIDTH 44 0
BBX 44 72 7 -1
BITMAP
000002000600
00000FC01F80
00001FC03F80
00003FE07FC0
00003FE07FC0
00003FE07FC0
00003FC07F80
00003FC07F80
00001F803F00
00000E001C00
000000000000
000000000000
000000000000
000000000000
000000000000
000000000000
007F800007F0
007F000007F0
007F00000FF0
007F00000FE0
00FF00000FE0
00FE00000FE0
00FE00001FE0
00FE00001FC0
01FE00001FC0
01FC00001FC0
01FC00003FC0
01FC00003F80
03FC00003F80
03F800003F80
03F800007F80
03F800007F00
07F800007F00
07F000007F00
07F00000FF00
07F00000FF00
0FF00000FE00
0FE00000FE00
0FE00001FE00
0FE00001FE00
1FE00001FC00
1FE00001FC00
1FC00001FC00
1FC00003FC00
1FC00003F800
3FC00003F800
3F800003F800
3F800007F800
3F800007F000
7F800007F000
7F000007F000
7F00000FF000
7F00000FE000
FF00000FE000
FF00000FE000
FF00001FE000
FE00001FC000
FE00001FC000
FF00003FC000
FF00003F8000
FF00007F8000
7F0000FF8000
7F8000FF0000
7F8001FE0000
3FE007FE0000
3FF83FFC0000
1FFFFFF80000
1FFFFFF00000
0FFFFFE00000
03FFFFC00000
01FFFF000000
007FF0000000
ENDCHAR
STARTCHAR 00DD
ENCODING 221
SWIDTH 495 0
DWIDTH 44 0
BBX 42 74 13 0
BITMAP
000000020000
000000070000
0000000F0000
0000001F8000
0000003FC000
0000007FC000
000000FFC000
000001FF8000
000003FE0000
000007FC0000
00000FF80000
00001FE00000
00003FC00000
00001F800000
00000E000000
000004000000
000000000000
000000000000
000000000000
FE0000003FC0
FF0000007F80
FF0000007F80
7F000000FF00
7F000001FE00
7F000001FE00
7F000003FC00
7F000007F800
3F800007F800
3F80000FF000
3F80001FE000
3F80001FE000
3FC0003FC000
1FC0007F8000
1FC0007F0000
1FC000FF0000
1FE001FE0000
0FE001FC0000
0FE003F80000
0FE007F80000
07F00FF00000
07F00FE00000
07F01FC00000
03F03FC00000
03F87F800000
03F87F000000
03F8FE000000
01FDFC000000
01FFFC000000
01FFF8000000
00FFF0000000
00FFE0000000
007FC0000000
007F80000000
007F80000000
007F00000000
007F00000000
007F00000000
00FF00000000
00FE00000000
00FE00000000
00FE00000000
01FE00000000
01FE00000000
01FC00000000
01FC00000000
03FC00000000
03FC00000000
03F800000000
03F800000000
07F800000000
07F800000000
07F000000000
07F000000000
07F000000000
ENDCHAR
STARTCHAR 00DE
ENCODING 222
SWIDTH 495 0
DWIDTH 44 0
BBX 41 55 5 0
BITMAP
0007F0000000
0007F0000000
000FF0000000
000FE0000000
000FE0000000
000FE0000000
001FE0000000
001FC0000000
001FC0000000
001FFFFC0000
003FFFFF8000
003FFFFFE000
003FFFFFF800
003FFFFFFC00
007FFFFFFC00
007FE1FFFE00
007F000FFF00
007F0003FF00
00FF0001FF00
00FF0000FF80
00FE00007F80
00FE00007F80
00FE00007F80
01FE00007F80
01FC00007F80
01FC00007F80
01FC00007F80
03FC00007F80
03F80000FF00
03F80000FF00
03F80001FF00
07F80001FE00
07F00003FE00
07F00007FC00
07F0001FFC00
0FF0007FF800
0FE003FFF000
0FFFFFFFE000
0FFFFFFF8000
1FFFFFFF0000
1FFFFFFC0000
1FFFFFF00000
1FFFFF000000
3FFF80000000
3FC000000000
3F8000000000
3F8000000000
3F8000000000
7F8000000000
7F0000000000
7F0000000000
7F0000000000
FF0000000000
FE0000000000
FE0000000000
ENDCHAR
STARTCHAR 00DF
ENCODING 223
SWIDTH 495 0
DWIDTH 44 0
BBX 54 77 -8 -15
BITMAP
00000000007000
000000001FFF00
000000007FFFC0
00000000FFFFE0
00000001FFFFF0
00000003FFFFF0
00000007FFFFF8
0000000FFC07F8
0000000FF003FC
0000001FE003FC
0000001FE003FC
0000003FC001FC
0000003FC001FC
0000003F8003FC
0000007F8003F8
0000007F0003F8
0000007F0007F8
000000FF000FF0
000000FE001FF0
000000FE003FE0
000000FE007FC0
000001FE00FF80
000001FE01FF00
000001FC03FE00
000001FC07FC00
000001FC0FF800
000003FC1FF000
000003F83FC000
000003F83FC000
000003F87F8000
000007F87F0000
000007F87F0000
000007F07F0000
000007F07F8000
000007F07F8000
00000FF07FC000
00000FF03FF000
00000FE03FF800
00000FE01FFC00
00000FE00FFF00
00001FE007FF80
00001FC001FFC0
00001FC0007FC0
00001FC0003FE0
00003FC0001FE0
00003FC0000FF0
00003F80000FF0
00003F800007F0
00003F800007F0
00007F800007F0
00007F800007F0
00007F000007F0
00007F00000FF0
00007F00000FE0
0000FF00001FE0
0000FE0C007FE0
0000FE0FE7FFC0
0000FE1FFFFF80
0001FE1FFFFF00
0001FE1FFFFE00
0001FC3FFFFC00
0001FC1FFFF000
0003FC03FF8000
0003FC00000000
0003F800000000
0007F800000000
0007F800000000
000FF000000000
000FF000000000
403FE000000000
7DFFE000000000
7FFFC000000000
7FFF8000000000
FFFF0000000000
FFFE0000000000
FFFC0000000000
3FC00000000000
ENDCHAR
STARTCHAR 00E0
ENCODING 224
SWIDTH 495 0
DWIDTH 44 0
BBX 39 62 6 -1
BITMAP
0000018000
000003C000
000007E000
00000FE000
00001FF000
00000FF800
000007FC00
000003FE00
000001FE00
000000FF00
0000007F80
0000003FC0
0000001FC0
0000000F80
0000000700
0000000200
0000000000
0000000000
0000000000
000003FFE0
00001FFFFE
0000FFFFFE
0003FFFFFE
000FFFFFFE
001FFFFFFE
003FFE01FC
007FF001FC
00FFC001FC
01FF8001FC
03FE0003FC
07FC0003F8
07F80003F8
0FF00003F8
1FF00007F8
1FE00007F0
1FC00007F0
3FC00007F0
3F80000FF0
3F80000FE0
7F80000FE0
7F00000FE0
7F00001FE0
7F00001FC0
7F00001FC0
FF00001FC0
FF00003FC0
FF00003F80
FF00003F80
FF00003F80
FF00003F80
7F00003F80
7F00007F80
7F8000FF00
7FC001FF00
3FC007FF80
3FF01FFF80
1FFFFFFF80
1FFFFFFF80
0FFFFF3F80
07FFFE1FC0
01FFF81FC0
007FC00000
ENDCHAR
STARTCHAR 00E1
ENCODING 225
SWIDTH 495 0
DWIDTH 44 0
BBX 39 62 6 -1
BITMAP
0000000030
0000000078
00000000F8
00000001FC
00000003FE
00000007FE
0000000FFC
0000001FF8
0000003FE0
0000007FC0
000000FF80
000001FE00
000000FC00
000000F800
0000006000
0000000000
0000000000
0000000000
0000000000
000003FFE0
00001FFFFE
0000FFFFFE
0003FFFFFE
000FFFFFFE
001FFFFFFE
003FFE01FC
007FF001FC
00FFC001FC
01FF8001FC
03FE0003FC
07FC0003F8
07F80003F8
0FF00003F8
1FF00007F8
1FE00007F0
1FC00007F0
3FC00007F0
3F80000FF0
3F80000FE0
7F80000FE0
7F00000FE0
7F00001FE0
7F00001FC0
7F00001FC0
FF00001FC0
FF00003FC0
FF00003F80
FF00003F80
FF00003F80
FF00003F80
7F00003F80
7F00007F80
7F8000FF00
7FC001FF00
3FC007FF80
3FF01FFF80
1FFFFFFF80
1FFFFFFF80
0FFFFF3F80
07FFFE1FC0
01FFF81FC0
007FC00000
ENDCHAR
STARTCHAR 00E2
ENCODING 226
SWIDTH 495 0
DWIDTH 44 0
BBX 39 62 6 -1
BITMAP
0000000200
0000000E00
0000001F00
0000003F80
0000007FC0
000000FFC0
000001FFE0
000007FFF0
00000FF7F0
00001FE3F8
00003FC1FC
00003F00FE
00003E007C
0000180038
0000000010
0000000000
0000000000
0000000000
0000000000
000003FFE0
00001FFFFE
0000FFFFFE
0003FFFFFE
000FFFFFFE
001FFFFFFE
003FFE01FC
007FF001FC
00FFC001FC
01FF8001FC
03FE0003FC
07FC0003F8
07F80003F8
0FF00003F8
1FF00007F8
1FE00007F0
1FC00007F0
3FC00007F0
3F80000FF0
3F80000FE0
7F80000FE0
7F00000FE0
7F00001FE0
7F00001FC0
7F00001FC0
FF00001FC0
FF00003FC0
FF00003F80
FF00003F80
FF00003F80
FF00003F80
7F00003F80
7F00007F80
7F8000FF00
7FC001FF00
3FC007FF80
3FF01FFF80
1FFFFFFF80
1FFFFFFF80
0FFFFF3F80
07FFFE1FC0
01FFF81FC0
007FC00000
ENDCHAR
STARTCHAR 00E3
ENCODING 227
SWIDTH 495 0
DWIDTH 44 0
BBX 42 59 6 -1
BITMAP
000003E00380
00000FF807C0
00001FFE0FC0
00003FFFFFC0
00007FFFFF80
0000FFFFFF00
0000F81FFE00
0000F007FC00
00003000C000
000000000000
000000000000
000000000000
000000000000
000000000000
000000000000
000000000000
000003FFE000
00001FFFFE00
0000FFFFFE00
0003FFFFFE00
000FFFFFFE00
001FFFFFFE00
003FFE01FC00
007FF001FC00
00FFC001FC00
01FF8001FC00
03FE0003FC00
07FC0003F800
07F80003F800
0FF00003F800
1FF00007F800
1FE00007F000
1FC00007F000
3FC00007F000
3F80000FF000
3F80000FE000
7F80000FE000
7F00000FE000
7F00001FE000
7F00001FC000
7F00001FC000
FF00001FC000
FF00003FC000
FF00003F8000
FF00003F8000
FF00003F8000
FF00003F8000
7F00003F8000
7F00007F8000
7F8000FF0000
7FC001FF0000
3FC007FF8000
3FF01FFF8000
1FFFFFFF8000
1FFFFFFF8000
0FFFFF3F8000
07FFFE1FC000
01FFF81FC000
007FC0000000
ENDCHAR
STARTCHAR 00E4
ENCODING 228
SWIDTH 495 0
DWIDTH 44 0
BBX 42 59 6 -1
BITMAP
00000F800F00
00001FC03F80
00003FE03FC0
00003FE07FC0
00003FE07FC0
00003FE07FC0
00003FE07FC0
00001FC03F80
00000F001E00
000000000000
000000000000
000000000000
000000000000
000000000000
000000000000
000000000000
000003FFE000
00001FFFFE00
0000FFFFFE00
0003FFFFFE00
000FFFFFFE00
001FFFFFFE00
003FFE01FC00
007FF001FC00
00FFC001FC00
01FF8001FC00
03FE0003FC00
07FC0003F800
07F80003F800
0FF00003F800
1FF00007F800
1FE00007F000
1FC00007F000
3FC00007F000
3F80000FF000
3F80000FE000
7F80000FE000
7F00000FE000
7F00001FE000
7F00001FC000
7F00001FC000
FF00001FC000
FF00003FC000
FF00003F8000
FF00003F8000
FF00003F8000
FF00003F8000
7F00003F8000
7F00007F8000
7F8000FF0000
7FC001FF0000
3FC007FF8000
3FF01FFF8000
1FFFFFFF8000
1FFFFFFF8000
0FFFFF3F8000
07FFFE1FC000
01FFF81FC000
007FC0000000
ENDCHAR
STARTCHAR 00E5
ENCODING 229
SWIDTH 495 0
DWIDTH 44 0
BBX 39 63 6 -1
BITMAP
0000001F00
000000FFC0
000001FFE0
000003FFF0
000003E1F8
000007C078
0000078078
0000078078
0000078078
0000078078
000007C078
000003C0F8
000003F3F0
000001FFF0
000000FFE0
0000007F80
0000000000
0000000000
0000000000
0000000000
000003FFE0
00001FFFFE
0000FFFFFE
0003FFFFFE
000FFFFFFE
001FFFFFFE
003FFE01FC
007FF001FC
00FFC001FC
01FF8001FC
03FE0003FC
07FC0003F8
07F80003F8
0FF00003F8
1FF00007F8
1FE00007F0
1FC00007F0
3FC00007F0
3F80000FF0
3F80000FE0
7F80000FE0
7F00000FE0
7F00001FE0
7F00001FC0
7F00001FC0
FF00001FC0
FF00003FC0
FF00003F80
FF00003F80
FF00003F80
FF00003F80
7F00003F80
7F00007F80
7F8000FF00
7FC001FF00
3FC007FF80
3FF01FFF80
1FFFFFFF80
1FFFFFFF80
0FFFFF3F80
07FFFE1FC0
01FFF81FC0
007FC00000
ENDCHAR
STARTCHAR 00E6
ENCODING 230
SWIDTH 495 0
DWIDTH 44 0
BBX 44 43 4 -1
BITMAP
001FE0007F00
007FF801FFC0
00FFFE03FFE0
01FFFF0FFFE0
01FFFF1FFFF0
01FFFF9FFFF0
01E1FFBF8FF0
01007FFF07F0
00003FFE07F0
00001FFC07F0
00001FF807F0
00001FF807F0
00001FF007F0
00001FF007F0
00001FE00FE0
00001FE00FE0
00001FE01FC0
0003FFC03FC0
001FFFC0FF80
007FFFC7FF00
01FFFFFFFE00
03FFFFFFFC00
07FFFFFFF800
0FFE1FFFE000
1FF03FFF8000
1FC03FF80000
3F803F800000
7F803F800000
7F007F800000
7F007F800000
FE00FF800000
FE00FF800000
FE01FFC00000
FE01FFC00000
FE03FFE00000
FF07EFF01800
FF9FEFFFF800
7FFFCFFFF800
7FFF87FFF800
7FFF03FFF800
3FFE03FFF800
1FF800FFE000
07E0003F8000
ENDCHAR
STARTCHAR 00E7
ENCODING 231
SWIDTH 495 0
DWIDTH 44 0
BBX 39 57 6 -15
BITMAP
000007FFF0
00007FFFFE
0001FFFFFE
0007FFFFFE
000FFFFFFC
003FFFFFFC
007FFC0078
00FFE00008
01FFC00000
03FF000000
07FE000000
07FC000000
0FF8000000
0FF0000000
1FE0000000
1FE0000000
3FC0000000
3FC0000000
3F80000000
7F80000000
7F00000000
7F00000000
7F00000000
7F00000000
FF00000000
FF00000000
FF00000000
FF00000000
FF00000000
FF00000000
7F00000000
7F80000000
7F80000000
7FC0000000
3FE0000100
3FF8000F00
1FFF81FF00
0FFFFFFF00
07FFFFFF80
03FFFFFF80
01FFFFFF00
003FFFFC00
0007FFC000
0007C00000
000FC00000
000FC00000
001FE00000
001FF00000
0007F00000
0003F00000
0003F00000
0207F00000
03FFF00000
03FFE00000
07FFE00000
07FF800000
03FE000000
ENDCHAR
STARTCHAR 00E8
ENCODING 232
SWIDTH 495 0
DWIDTH 44 0
BBX 39 62 6 -1
BITMAP
0000018000
000003C000
000007E000
00000FF000
00001FF000
00000FF800
000007FC00
000003FE00
000001FF00
000000FF00
0000007F80
0000003FC0
0000001FC0
0000000F80
0000000700
0000000200
0000000000
0000000000
0000000000
00001FFE00
0000FFFFC0
0003FFFFE0
000FFFFFF0
001FFFFFF8
003FFFFFFC
007FF80FFC
00FFC003FC
01FF8001FE
03FE0001FE
07FC0001FE
07F80001FE
0FF00001FE
1FF00001FC
1FE00003FC
1FC00003FC
3FC00007F8
3F80001FF8
3F80007FF0
7F8007FFE0
7FFFFFFFC0
7FFFFFFF80
7FFFFFFE00
7FFFFFF000
FFFFFF0000
FFFF800000
FE00000000
FE00000000
FE00000000
FF00000000
7F00000000
7F00000000
7F80000000
7FC0000000
3FE0000100
3FF8000F00
1FFF83FF00
0FFFFFFF00
07FFFFFF80
03FFFFFF80
01FFFFFF00
007FFFF800
000FFF8000
ENDCHAR
STARTCHAR 00E9
ENCODING 233
SWIDTH 495 0
DWIDTH 44 0
BBX 39 62 6 -1
BITMAP
0000000040
00000000E0
00000001F0
00000003F0
0000000FF8
0000001FF8
0000003FF0
0000007FE0
000000FF80
000001FF00
000003FE00
000007FC00
000003F000
000001E000
000001C000
0000000000
0000000000
0000000000
0000000000
00001FFE00
0000FFFFC0
0003FFFFE0
000FFFFFF0
001FFFFFF8
003FFFFFFC
007FF80FFC
00FFC003FC
01FF8001FE
03FE0001FE
07FC0001FE
07F80001FE
0FF00001FE
1FF00001FC
1FE00003FC
1FC00003FC
3FC00007F8
3F80001FF8
3F80007FF0
7F8007FFE0
7FFFFFFFC0
7FFFFFFF80
7FFFFFFE00
7FFFFFF000
FFFFFF0000
FFFF800000
FE00000000
FE00000000
FE00000000
FF00000000
7F00000000
7F00000000
7F80000000
7FC0000000
3FE0000100
3FF8000F00
1FFF83FF00
0FFFFFFF00
07FFFFFF80
03FFFFFF80
01FFFFFF00
007FFFF800
000FFF8000
ENDCHAR
STARTCHAR 00EA
ENCODING 234
SWIDTH 495 0
DWIDTH 44 0
BBX 39 62 6 -1
BITMAP
0000000400
0000000E00
0000003E00
0000007F00
000000FF80
000001FF80
000003FFC0
000007FFE0
00001FEFE0
00003FC7F0
00007F83F8
00007E01FC
00003C00F8
0000380070
0000000020
0000000000
0000000000
0000000000
0000000000
00001FFE00
0000FFFFC0
0003FFFFE0
000FFFFFF0
001FFFFFF8
003FFFFFFC
007FF80FFC
00FFC003FC
01FF8001FE
03FE0001FE
07FC0001FE
07F80001FE
0FF00001FE
1FF00001FC
1FE00003FC
1FC00003FC
3FC00007F8
3F80001FF8
3F80007FF0
7F8007FFE0
7FFFFFFFC0
7FFFFFFF80
7FFFFFFE00
7FFFFFF000
FFFFFF0000
FFFF800000
FE00000000
FE00000000
FE00000000
FF00000000
7F00000000
7F00000000
7F80000000
7FC0000000
3FE0000100
3FF8000F00
1FFF83FF00
0FFFFFFF00
07FFFFFF80
03FFFFFF80
01FFFFFF00
007FFFF800
000FFF8000
ENDCHAR
STARTCHAR 00EB
ENCODING 235
SWIDTH 495 0
DWIDTH 44 0
BBX 41 59 6 -1
BITMAP
00000F801F00
00001FC03F80
00003FC07F80
00007FC0FF80
00007FC0FF80
00007FC0FF80
00007FC07F80
00003F807F00
00001F003E00
000000000000
000000000000
000000000000
000000000000
000000000000
000000000000
000000000000
00001FFE0000
0000FFFFC000
0003FFFFE000
000FFFFFF000
001FFFFFF800
003FFFFFFC00
007FF80FFC00
00FFC003FC00
01FF8001FE00
03FE0001FE00
07FC0001FE00
07F80001FE00
0FF00001FE00
1FF00001FC00
1FE00003FC00
1FC00003FC00
3FC00007F800
3F80001FF800
3F80007FF000
7F8007FFE000
7FFFFFFFC000
7FFFFFFF8000
7FFFFFFE0000
7FFFFFF00000
FFFFFF000000
FFFF80000000
FE0000000000
FE0000000000
FE0000000000
FF0000000000
7F0000000000
7F0000000000
7F8000000000
7FC000000000
3FE000010000
3FF8000F0000
1FFF83FF0000
0FFFFFFF0000
07FFFFFF8000
03FFFFFF8000
01FFFFFF0000
007FFFF80000
000FFF800000
ENDCHAR
STARTCHAR 00EC
ENCODING 236
SWIDTH 495 0
DWIDTH 44 0
BBX 26 61 12 0
BITMAP
000C0000
001E0000
003F0000
007F8000
007F8000
003FC000
001FE000
000FF000
0007F800
0003F800
0001FC00
0000FE00
0000FE00
00007C00
00003800
00001000
00000000
00000000
00000000
00000000
7FFFF000
7FFFF000
7FFFF000
FFFFF000
FFFFE000
FFFFE000
000FE000
001FE000
001FC000
001FC000
001FC000
003FC000
003FC000
003F8000
003F8000
007F8000
007F8000
007F0000
007F0000
00FF0000
00FF0000
00FE0000
00FE0000
00FE0000
01FE0000
01FE0000
01FC0000
01FC0000
01FC0000
01FC0000
01FC0000
01FC0000
01FE0000
01FE0000
01FF8040
00FFFFC0
00FFFFC0
007FFFC0
003FFFC0
001FFFC0
0007FF80
ENDCHAR
STARTCHAR 00ED
ENCODING 237
SWIDTH 495 0
DWIDTH 44 0
BBX 28 61 12 0
BITMAP
00000080
000001C0
000003E0
000007E0
00001FF0
00003FF0
00007FE0
0000FFC0
0001FF00
0003FE00
0007FC00
000FF000
0007E000
0003C000
00038000
00000000
00000000
00000000
00000000
00000000
7FFFF000
7FFFF000
7FFFF000
FFFFF000
FFFFE000
FFFFE000
000FE000
001FE000
001FC000
001FC000
001FC000
003FC000
003FC000
003F8000
003F8000
007F8000
007F8000
007F0000
007F0000
00FF0000
00FF0000
00FE0000
00FE0000
00FE0000
01FE0000
01FE0000
01FC0000
01FC0000
01FC0000
01FC0000
01FC0000
01FC0000
01FE0000
01FE0000
01FF8040
00FFFFC0
00FFFFC0
007FFFC0
003FFFC0
001FFFC0
0007FF80
ENDCHAR
STARTCHAR 00EE
ENCODING 238
SWIDTH 495 0
DWIDTH 44 0
BBX 28 61 12 0
BITMAP
00001000
00003800
0000F800
0001FC00
0003FE00
0007FE00
000FFF00
001FFF80
007FBFC0
00FF1FC0
01FE0FE0
01F807F0
00F003E0
00E001C0
00000080
00000000
00000000
00000000
00000000
00000000
7FFFF000
7FFFF000
7FFFF000
FFFFF000
FFFFE000
FFFFE000
000FE000
001FE000
001FC000
001FC000
001FC000
003FC000
003FC000
003F8000
003F8000
007F8000
007F8000
007F0000
007F0000
00FF0000
00FF0000
00FE0000
00FE0000
00FE0000
01FE0000
01FE0000
01FC0000
01FC0000
01FC0000
01FC0000
01FC0000
01FC0000
01FE0000
01FE0000
01FF8040
00FFFFC0
00FFFFC0
007FFFC0
003FFFC0
001FFFC0
0007FF80
ENDCHAR
STARTCHAR 00EF
ENCODING 239
SWIDTH 495 0
DWIDTH 44 0
BBX 31 58 12 0
BITMAP
007C00F8
00FE01FC
01FE03FC
03FF03FE
03FF07FE
03FE07FC
01FE03FC
01FC03F8
00F801F0
00000000
00000000
00000000
00000000
00000000
00000000
00000000
00000000
7FFFF000
7FFFF000
7FFFF000
FFFFF000
FFFFE000
FFFFE000
000FE000
001FE000
001FC000
001FC000
001FC000
003FC000
003FC000
003F8000
003F8000
007F8000
007F8000
007F0000
007F0000
00FF0000
00FF0000
00FE0000
00FE0000
00FE0000
01FE0000
01FE0000
01FC0000
01FC0000
01FC0000
01FC0000
01FC0000
01FC0000
01FE0000
01FE0000
01FF8040
00FFFFC0
00FFFFC0
007FFFC0
003FFFC0
001FFFC0
0007FF80
ENDCHAR
STARTCHAR 00F0
ENCODING 240
SWIDTH 495 0
DWIDTH 44 0
BBX 43 62 7 0
BITMAP
000000E00000
000003F00000
000007F80000
00000FF80000
000007FC0060
000003FE03E0
000001FF1FE0
000000FFFFE0
0000007FFFE0
0000007FFFC0
000003FFFC00
00001FFFE000
00007FFFE000
00007FFFE000
00007FCFE000
00007E0FF000
00007007F000
00000007F000
00000007F800
00000007F800
00000007F800
00000003F800
00007FC3F800
0003FFF3F800
000FFFFFF800
003FFFFFF800
00FFFFFFF800
01FFFFFFF800
03FFE0FFF800
03FF001FF800
07FC000FF800
0FF80003F800
1FF00003F800
1FE00003F800
1FC00007F800
3FC00007F800
3F800007F800
7F800007F000
7F800007F000
7F000007F000
7F00000FF000
FF00000FF000
FF00000FE000
FF00001FE000
FF00001FE000
FF00001FC000
FE00003FC000
FE00003F8000
FF00007F8000
FF00007F8000
FF0000FF0000
7F0001FF0000
7F8003FE0000
7FC007FC0000
3FE00FF80000
3FF87FF80000
1FFFFFF00000
0FFFFFE00000
07FFFF800000
03FFFF000000
01FFFC000000
003FE0000000
ENDCHAR
STARTCHAR 00F1
ENCODING 241
SWIDTH 495 0
DWIDTH 44 0
BBX 40 58 6 0
BITMAP
00001F800C
00007FE01F
0000FFF83F
0001FFFFFE
0003FFFFFC
0003FFFFFC
0007E0FFF8
0003C03FE0
0001800300
0000000000
0000000000
0000000000
0000000000
0000000000
0000000000
0000000000
00007FFC00
000FFFFF00
007FFFFFC0
007FFFFFE0
007FFFFFF0
00FFFFFFF0
00FFC07FF8
00FE000FF8
00FE0007F8
01FE0003FC
01FC0003FC
01FC0003FC
01FC0001FC
03FC0001FC
03FC0001FC
03F80003FC
03F80003FC
07F80003F8
07F80003F8
07F00003F8
07F00007F8
0FF00007F8
0FF00007F0
0FE00007F0
0FE00007F0
0FE0000FF0
1FE0000FE0
1FC0000FE0
1FC0000FE0
1FC0001FE0
3FC0001FC0
3F80001FC0
3F80001FC0
3F80003FC0
7F80003F80
7F00003F80
7F00003F80
7F00007F80
FF00007F00
FF00007F00
FE00007F00
FE0000FF00
ENDCHAR
STARTCHAR 00F2
ENCODING 242
SWIDTH 495 0
DWIDTH 44 0
BBX 38 62 7 -1
BITMAP
0000060000
00000F0000
00001F8000
00003FC000
00007FC000
00003FE000
00001FF000
00000FF800
000007FC00
000003FC00
000001FE00
000000FF00
0000007F00
0000003E00
0000001C00
0000000800
0000000000
0000000000
0000000000
00003FF800
0001FFFE00
0007FFFF80
000FFFFFC0
003FFFFFE0
007FFFFFF0
00FFF07FF0
01FFC00FF8
03FF0007F8
03FE0007F8
07FC0003FC
0FF80003FC
0FF00003FC
1FE00003FC
1FE00001FC
3FC00003FC
3FC00003FC
3F800003FC
7F800003FC
7F800003F8
7F800003F8
7F000003F8
7F000007F8
FF000007F8
FF000007F0
FF00000FF0
FF00000FF0
FE00000FE0
FE00001FE0
FF00003FE0
FF00003FC0
FF00007F80
FF0000FF80
7F8001FF00
7FC003FF00
7FE00FFE00
3FFFFFFC00
3FFFFFF800
1FFFFFE000
0FFFFFC000
07FFFF8000
01FFFC0000
003FE00000
ENDCHAR
STARTCHAR 00F3
ENCODING 243
SWIDTH 495 0
DWIDTH 44 0
BBX 38 62 7 -1
BITMAP
0000000080
00000001C0
00000003E0
00000007E0
0000001FF0
0000003FF0
0000007FE0
000000FFC0
000001FF00
000003FE00
000007FC00
00000FF800
000007E000
000003C000
0000038000
0000000000
0000000000
0000000000
0000000000
00003FF800
0001FFFE00
0007FFFF80
000FFFFFC0
003FFFFFE0
007FFFFFF0
00FFF07FF0
01FFC00FF8
03FF0007F8
03FE0007F8
07FC0003FC
0FF80003FC
0FF00003FC
1FE00003FC
1FE00001FC
3FC00003FC
3FC00003FC
3F800003FC
7F800003FC
7F800003F8
7F800003F8
7F000003F8
7F000007F8
FF000007F8
FF000007F0
FF00000FF0
FF00000FF0
FE00000FE0
FE00001FE0
FF00003FE0
FF00003FC0
FF00007F80
FF0000FF80
7F8001FF00
7FC003FF00
7FE00FFE00
3FFFFFFC00
3FFFFFF800
1FFFFFE000
0FFFFFC000
07FFFF8000
01FFFC0000
003FE00000
ENDCHAR
STARTCHAR 00F4
ENCODING 244
SWIDTH 495 0
DWIDTH 44 0
BBX 38 62 7 -1
BITMAP
0000000800
0000003800
0000007C00
000000FE00
000001FF00
000003FF00
000007FF80
00001FFFC0
00003FDFC0
00007F8FE0
0000FF07F0
0000FC03F8
0000F801F0
00006000E0
0000000040
0000000000
0000000000
0000000000
0000000000
00003FF800
0001FFFE00
0007FFFF80
000FFFFFC0
003FFFFFE0
007FFFFFF0
00FFF07FF0
01FFC00FF8
03FF0007F8
03FE0007F8
07FC0003FC
0FF80003FC
0FF00003FC
1FE00003FC
1FE00001FC
3FC00003FC
3FC00003FC
3F800003FC
7F800003FC
7F800003F8
7F800003F8
7F000003F8
7F000007F8
FF000007F8
FF000007F0
FF00000FF0
FF00000FF0
FE00000FE0
FE00001FE0
FF00003FE0
FF00003FC0
FF00007F80
FF0000FF80
7F8001FF00
7FC003FF00
7FE00FFE00
3FFFFFFC00
3FFFFFF800
1FFFFFE000
0FFFFFC000
07FFFF8000
01FFFC0000
003FE00000
ENDCHAR
STARTCHAR 00F5
ENCODING 245
SWIDTH 495 0
DWIDTH 44 0
BBX 39 59 7 -1
BITMAP
00000F801C
00007FE01E
0000FFF83E
0001FFFFFE
0003FFFFFC
0007FFFFF8
0007E0FFF8
0007C03FE0
0001800F00
0000000000
0000000000
0000000000
0000000000
0000000000
0000000000
0000000000
00003FF800
0001FFFE00
0007FFFF80
000FFFFFC0
003FFFFFE0
007FFFFFF0
00FFF07FF0
01FFC00FF8
03FF0007F8
03FE0007F8
07FC0003FC
0FF80003FC
0FF00003FC
1FE00003FC
1FE00001FC
3FC00003FC
3FC00003FC
3F800003FC
7F800003FC
7F800003F8
7F800003F8
7F000003F8
7F000007F8
FF000007F8
FF000007F0
FF00000FF0
FF00000FF0
FE00000FE0
FE00001FE0
FF00003FE0
FF00003FC0
FF00007F80
FF0000FF80
7F8001FF00
7FC003FF00
7FE00FFE00
3FFFFFFC00
3FFFFFF800
1FFFFFE000
0FFFFFC000
07FFFF8000
01FFFC0000
003FE00000
ENDCHAR
STARTCHAR 00F6
ENCODING 246
SWIDTH 495 0
DWIDTH 44 0
BBX 39 59 7 -1
BITMAP
00003C007C
0000FF01FE
0000FF01FE
0001FF03FE
0001FF03FE
0001FF03FE
0001FF03FE
0000FE01FC
00007800F0
0000000000
0000000000
0000000000
0000000000
0000000000
0000000000
0000000000
00003FF800
0001FFFE00
0007FFFF80
000FFFFFC0
003FFFFFE0
007FFFFFF0
00FFF07FF0
01FFC00FF8
03FF0007F8
03FE0007F8
07FC0003FC
0FF80003FC
0FF00003FC
1FE00003FC
1FE00001FC
3FC00003FC
3FC00003FC
3F800003FC
7F800003FC
7F800003F8
7F800003F8
7F000003F8
7F000007F8
FF000007F8
FF000007F0
FF00000FF0
FF00000FF0
FE00000FE0
FE00001FE0
FF00003FE0
FF00003FC0
FF00007F80
FF0000FF80
7F8001FF00
7FC003FF00
7FE00FFE00
3FFFFFFC00
3FFFFFF800
1FFFFFE000
0FFFFFC000
07FFFF8000
01FFFC0000
003FE00000
ENDCHAR
STARTCHAR 00F7
ENCODING 247
SWIDTH 495 0
DWIDTH 44 0
BBX 37 40 8 3
BITMAP
00001F8000
00007FC000
00007FC000
0000FFC000
0000FFC000
0000FFC000
0000FFC000
0000FF8000
0000FF0000
00007E0000
0000000000
0000000000
0000000000
0000000000
0000000000
0000000000
0000000000
7FFFFFFFF8
7FFFFFFFF0
7FFFFFFFF0
FFFFFFFFF0
FFFFFFFFF0
FFFFFFFFE0
0000000000
0000000000
0000000000
0000000000
0000000000
0000000000
0003E00000
0007F00000
000FF80000
001FF80000
001FF80000
001FF80000
003FF80000
001FF00000
001FF00000
000FE00000
0007800000
ENDCHAR
STARTCHAR 00F8
ENCODING 248
SWIDTH 495 0
DWIDTH 44 0
BBX 46 47 3 -3
BITMAP
000000000020
000000000070
000003FF80F8
00001FFFE1FC
00007FFFFBF8
0000FFFFFFF0
0003FFFFFFE0
0007FFFFFFC0
000FFF0FFF80
001FFC00FF80
003FF000FF80
003FE001FF80
007FC003FFC0
00FF8007FFC0
00FF000FFFC0
01FE001FDFC0
01FE003F9FC0
03FC007F1FC0
03FC00FE1FC0
03F801FC1FC0
07F803F81FC0
07F807F03F80
07F00FE03F80
07F01FC03F80
07F03F803F80
0FF07F007F80
0FE0FF007F00
0FE1FE007F00
0FE3FC00FF00
0FE7F800FE00
0FEFF001FE00
0FFFE003FE00
0FFFC003FC00
0FFF8007F800
0FFF000FF800
07FE001FF000
07FC003FF000
07FE00FFE000
0FFFFFFFC000
1FFFFFFF8000
3FFFFFFE0000
7FFFFFFC0000
FF7FFFF80000
FE1FFFC00000
7C03FE000000
380000000000
100000000000
ENDCHAR
STARTCHAR 00F9
ENCODING 249
SWIDTH 495 0
DWIDTH 44 0
BBX 39 62 7 -1
BITMAP
0000180000
00003C0000
00007C0000
0001FE0000
0001FF0000
0000FF8000
00007FC000
00003FC000
00001FE000
00000FF000
000007F800
000003FC00
000001FC00
000000F800
0000007000
0000002000
0000000000
0000000000
0000000000
0000000000
03FC0001FE
03FC0001FC
03F80001FC
03F80001FC
03F80003FC
07F80003F8
07F00003F8
07F00003F8
07F00007F8
0FF00007F0
0FE00007F0
0FE00007F0
0FE0000FF0
1FE0000FF0
1FE0000FE0
1FC0000FE0
1FC0001FE0
3FC0001FE0
3FC0001FC0
3F80001FC0
3F80003FC0
7F80003FC0
7F80003F80
7F00003F80
7F00003F80
7F00007F80
7F00007F00
FF00007F00
FF00007F00
FF00007F00
7F00007F00
7F0000FF00
7F0001FF00
7F8007FF00
7FC00FFF00
3FF0FFFF00
3FFFFFFF00
1FFFFFFF00
0FFFFE7F00
07FFFC3F80
03FFF03F80
007F800000
ENDCHAR
STARTCHAR 00FA
ENCODING 250
SWIDTH 495 0
DWIDTH 44 0
BBX 39 62 7 -1
BITMAP
0000000300
0000000780
0000000F80
0000001FC0
0000003FE0
0000007FE0
000000FFC0
000001FF00
000003FE00
000007FC00
00000FF000
00001FE000
00001FC000
00000F0000
0000060000
0000000000
0000000000
0000000000
0000000000
0000000000
03FC0001FE
03FC0001FC
03F80001FC
03F80001FC
03F80003FC
07F80003F8
07F00003F8
07F00003F8
07F00007F8
0FF00007F0
0FE00007F0
0FE00007F0
0FE0000FF0
1FE0000FF0
1FE0000FE0
1FC0000FE0
1FC0001FE0
3FC0001FE0
3FC0001FC0
3F80001FC0
3F80003FC0
7F80003FC0
7F80003F80
7F00003F80
7F00003F80
7F00007F80
7F00007F00
FF00007F00
FF00007F00
FF00007F00
7F00007F00
7F0000FF00
7F0001FF00
7F8007FF00
7FC00FFF00
3FF0FFFF00
3FFFFFFF00
1FFFFFFF00
0FFFFE7F00
07FFFC3F80
03FFF03F80
007F800000
ENDCHAR
STARTCHAR 00FB
ENCODING 251
SWIDTH 495 0
DWIDTH 44 0
BBX 39 62 7 -1
BITMAP
0000002000
0000007000
000000F800
000001F800
000003FC00
00000FFE00
00001FFF00
00003FFF00
00007FBF80
0000FE1FC0
0003FC0FC0
0003F807E0
0001E003C0
0000C00380
0000800100
0000000000
0000000000
0000000000
0000000000
0000000000
03FC0001FE
03FC0001FC
03F80001FC
03F80001FC
03F80003FC
07F80003F8
07F00003F8
07F00003F8
07F00007F8
0FF00007F0
0FE00007F0
0FE00007F0
0FE0000FF0
1FE0000FF0
1FE0000FE0
1FC0000FE0
1FC0001FE0
3FC0001FE0
3FC0001FC0
3F80001FC0
3F80003FC0
7F80003FC0
7F80003F80
7F00003F80
7F00003F80
7F00007F80
7F00007F00
FF00007F00
FF00007F00
FF00007F00
7F00007F00
7F0000FF00
7F0001FF00
7F8007FF00
7FC00FFF00
3FF0FFFF00
3FFFFFFF00
1FFFFFFF00
0FFFFE7F00
07FFFC3F80
03FFF03F80
007F800000
ENDCHAR
STARTCHAR 00FC
ENCODING 252
SWIDTH 495 0
DWIDTH 44 0
BBX 39 59 7 -1
BITMAP
0001F001E0
0003F807F0
0007FC07F8
0007FC0FF8
0007FC0FF8
0007FC0FF8
0007FC0FF8
0003F807F0
0001E003C0
0000000000
0000000000
0000000000
0000000000
0000000000
0000000000
0000000000
0000000000
03FC0001FE
03FC0001FC
03F80001FC
03F80001FC
03F80003FC
07F80003F8
07F00003F8
07F00003F8
07F00007F8
0FF00007F0
0FE00007F0
0FE00007F0
0FE0000FF0
1FE0000FF0
1FE0000FE0
1FC0000FE0
1FC0001FE0
3FC0001FE0
3FC0001FC0
3F80001FC0
3F80003FC0
7F80003FC0
7F80003F80
7F00003F80
7F00003F80
7F00007F80
7F00007F00
FF00007F00
FF00007F00
FF00007F00
7F00007F00
7F0000FF00
7F0001FF00
7F8007FF00
7FC00FFF00
3FF0FFFF00
3FFFFFFF00
1FFFFFFF00
0FFFFE7F00
07FFFC3F80
03FFF03F80
007F800000
ENDCHAR
STARTCHAR 00FD
ENCODING 253
SWIDTH 495 0
DWIDTH 44 0
BBX 48 76 -1 -15
BITMAP
000000000300
000000000700
000000000F80
000000001FC0
000000003FE0
000000007FE0
00000000FFC0
00000001FF00
00000003FE00
00000007FC00
0000000FF000
0000001FE000
0000001FC000
0000000F0000
000000060000
000000000000
000000000000
000000000000
000000000000
000000000000
0007F800007F
0007F80000FF
0007F80000FF
0007F80000FE
0007F80000FE
0003F80001FE
0003F80001FC
0003F80001FC
0003F80003FC
0003F80003F8
0003F80003F8
0003FC0007F8
0003FC0007F0
0003FC000FF0
0001FC000FE0
0001FC000FE0
0001FC001FC0
0001FE001FC0
0001FE003FC0
0001FE003F80
0000FE007F80
0000FE007F00
0000FE00FF00
0000FF00FE00
00007F00FE00
00007F01FC00
00007F01FC00
00007F83F800
00007F83F800
00003F87F000
00003F8FF000
00003F8FE000
00003FDFC000
00001FDFC000
00001FFF8000
00001FFF8000
00000FFF0000
00000FFE0000
00000FFE0000
00000FFC0000
000007F80000
000007F80000
00000FF00000
00000FE00000
00001FC00000
00003FC00000
00007F800000
0001FF000000
0007FE000000
7CFFFC000000
7FFFF8000000
7FFFF0000000
FFFFC0000000
FFFF00000000
FFFC00000000
1FE000000000
ENDCHAR
STARTCHAR 00FE
ENCODING 254
SWIDTH 495 0
DWIDTH 44 0
BBX 43 76 2 -14
BITMAP
00003F800000
00007F800000
00007F000000
00007F000000
00007F000000
0000FF000000
0000FF000000
0000FE000000
0000FE000000
0001FE000000
0001FE000000
0001FC000000
0001FC000000
0001FC000000
0003FC000000
0003F8000000
0003F8000000
0003F8000000
0007F8000000
0007F8FFC000
0007F3FFF800
0007FFFFFC00
000FFFFFFE00
000FFFFFFF00
000FFFFFFF80
000FFF01FF80
001FF8007FC0
001FE0003FC0
001FC0003FC0
001FC0001FE0
003FC0001FE0
003F80001FE0
003F80001FE0
003F80000FE0
007F80000FE0
007F80000FE0
007F00001FE0
007F00001FE0
007F00001FC0
00FF00001FC0
00FE00001FC0
00FE00003FC0
00FE00003FC0
01FE00003F80
01FC00007F80
01FC00007F00
01FC0000FF00
03FC0001FF00
03F80003FE00
03F80003FE00
03F80007FC00
07F8001FF800
07F0003FF000
07F000FFE000
07F003FFE000
0FFFFFFF8000
0FFFFFFF0000
0FFFFFFE0000
0FFFFFF80000
1FFFFFE00000
1FFFFF800000
1FFFF0000000
1FC000000000
1FC000000000
3FC000000000
3F8000000000
3F8000000000
3F8000000000
7F8000000000
7F0000000000
7F0000000000
7F0000000000
FF0000000000
FE0000000000
FE0000000000
FE0000000000
ENDCHAR
STARTCHAR 00FF
ENCODING 255
SWIDTH 495 0
DWIDTH 44 0
BBX 48 73 -1 -15
BITMAP
000001F003E0
000003F807F0
000007FC0FF8
000007FC0FF8
000007FC0FF8
000007FC0FF8
000007F80FF0
000003F807F0
000001E003C0
000000000000
000000000000
000000000000
000000000000
000000000000
000000000000
000000000000
000000000000
0007F800007F
0007F80000FF
0007F80000FF
0007F80000FE
0007F80000FE
0003F80001FE
0003F80001FC
0003F80001FC
0003F80003FC
0003F80003F8
0003F80003F8
0003FC0007F8
0003FC0007F0
0003FC000FF0
0001FC000FE0
0001FC000FE0
0001FC001FC0
0001FE001FC0
0001FE003FC0
0001FE003F80
0000FE007F80
0000FE007F00
0000FE00FF00
0000FF00FE00
00007F00FE00
00007F01FC00
00007F01FC00
00007F83F800
00007F83F800
00003F87F000
00003F8FF000
00003F8FE000
00003FDFC000
00001FDFC000
00001FFF8000
00001FFF8000
00000FFF0000
00000FFE0000
00000FFE0000
00000FFC0000
000007F80000
000007F80000
00000FF00000
00000FE00000
00001FC00000
00003FC00000
00007F800000
0001FF000000
0007FE000000
7CFFFC000000
7FFFF8000000
7FFFF0000000
FFFFC0000000
FFFF00000000
FFFC00000000
1FE000000000
ENDCHAR
STARTCHAR 0100
ENCODING 256
SWIDTH 495 0
DWIDTH 44 0
BBX 49 69 -1 0
BITMAP
0000003FFFFF80
0000003FFFFF00
0000003FFFFF00
0000003FFFFF00
0000007FFFFF00
0000007FFFFE00
00000000000000
00000000000000
00000000000000
00000000000000
00000000000000
00000000000000
00000000000000
00000000000000
00000003FE0000
00000007FE0000
0000000FFE0000
0000000FFE0000
0000001FFE0000
0000001FFF0000
0000003FFF0000
0000007F7F0000
0000007E7F0000
000000FE7F0000
000000FC7F0000
000001FC7F0000
000003F87F0000
000003F83F0000
000007F03F0000
000007E03F8000
00000FE03F8000
00000FC03F8000
00001FC03F8000
00001F803F8000
00003F803F8000
00007F003F8000
00007F003F8000
0000FE003F8000
0000FC003F8000
0001FC003F8000
0001F8001F8000
0003F8001F8000
0003F0001FC000
0007F0001FC000
0007E0001FC000
000FE0001FC000
001FC0001FC000
001FC0001FC000
003F80001FC000
003FFFFFFFC000
007FFFFFFFC000
007FFFFFFFC000
00FFFFFFFFC000
00FFFFFFFFC000
01FFFFFFFFC000
01FC00001FC000
03F800001FC000
03F800001FC000
07F000001FC000
07F000001FC000
0FE000001FC000
0FE000001FC000
1FC000001FC000
1FC000001FC000
3F8000001FE000
3F8000001FE000
7F0000001FE000
7F0000001FE000
FE0000001FE000
ENDCHAR
STARTCHAR 0101
ENCODING 257
SWIDTH 495 0
DWIDTH 44 0
BBX 41 57 6 -1
BITMAP
00001FFFFF80
00001FFFFF80
00001FFFFF80
00003FFFFF80
00003FFFFF80
000000000000
000000000000
000000000000
000000000000
000000000000
000000000000
000000000000
000000000000
000000000000
000003FFE000
00001FFFFE00
0000FFFFFE00
0003FFFFFE00
000FFFFFFE00
001FFFFFFE00
003FFE01FC00
007FF001FC00
00FFC001FC00
01FF8001FC00
03FE0003FC00
07FC0003F800
07F80003F800
0FF00003F800
1FF00007F800
1FE00007F000
1FC00007F000
3FC00007F000
3F80000FF000
3F80000FE000
7F80000FE000
7F00000FE000
7F00001FE000
7F00001FC000
7F00001FC000
FF00001FC000
FF00003FC000
FF00003F8000
FF00003F8000
FF00003F8000
FF00003F8000
7F00003F8000
7F00007F8000
7F8000FF0000
7FC001FF0000
3FC007FF8000
3FF01FFF8000
1FFFFFFF8000
1FFFFFFF8000
0FFFFF3F8000
07FFFE1FC000
01FFF81FC000
007FC0000000
ENDCHAR
STARTCHAR 0102
ENCODING 258
SWIDTH 495 0
DWIDTH 44 0
BBX 49 72 -1 0
BITMAP
0000000F000F80
0000000F000F80
0000000F001F80
0000000F803F00
0000000F803F00
0000000FE0FE00
0000000FFFFE00
00000007FFFC00
00000003FFF800
00000001FFE000
000000007F8000
00000000000000
00000000000000
00000000000000
00000000000000
00000000000000
00000000000000
00000003FE0000
00000007FE0000
0000000FFE0000
0000000FFE0000
0000001FFE0000
0000001FFF0000
0000003FFF0000
0000007F7F0000
0000007E7F0000
000000FE7F0000
000000FC7F0000
000001FC7F0000
000003F87F0000
000003F83F0000
000007F03F0000
000007E03F8000
00000FE03F8000
00000FC03F8000
00001FC03F8000
00001F803F8000
00003F803F8000
00007F003F8000
00007F003F8000
0000FE003F8000
0000FC003F8000
0001FC003F8000
0001F8001F8000
0003F8001F8000
0003F0001FC000
0007F0001FC000
0007E0001FC000
000FE0001FC000
001FC0001FC000
001FC0001FC000
003F80001FC000
003FFFFFFFC000
007FFFFFFFC000
007FFFFFFFC000
00FFFFFFFFC000
00FFFFFFFFC000
01FFFFFFFFC000
01FC00001FC000
03F800001FC000
03F800001FC000
07F000001FC000
07F000001FC000
0FE000001FC000
0FE000001FC000
1FC000001FC000
1FC000001FC000
3F8000001FE000
3F8000001FE000
7F0000001FE000
7F0000001FE000
FE0000001FE000
ENDCHAR
STARTCHAR 0103
ENCODING 259
SWIDTH 495 0
DWIDTH 44 0
BBX 42 60 6 -1
BITMAP
0000078007C0
000007800FC0
000007C00F80
000007C01F80
000007E03F80
000007FFFF00
000003FFFE00
000003FFFC00
000001FFF800
0000007FE000
000000040000
000000000000
000000000000
000000000000
000000000000
000000000000
000000000000
000003FFE000
00001FFFFE00
0000FFFFFE00
0003FFFFFE00
000FFFFFFE00
001FFFFFFE00
003FFE01FC00
007FF001FC00
00FFC001FC00
01FF8001FC00
03FE0003FC00
07FC0003F800
07F80003F800
0FF00003F800
1FF00007F800
1FE00007F000
1FC00007F000
3FC00007F000
3F80000FF000
3F80000FE000
7F80000FE000
7F00000FE000
7F00001FE000
7F00001FC000
7F00001FC000
FF00001FC000
FF00003FC000
FF00003F8000
FF00003F8000
FF00003F8000
FF00003F8000
7F00003F8000
7F00007F8000
7F8000FF0000
7FC001FF0000
3FC007FF8000
3FF01FFF8000
1FFFFFFF8000
1FFFFFFF8000
0FFFFF3F8000
07FFFE1FC000
01FFF81FC000
007FC0000000
ENDCHAR
STARTCHAR 0104
ENCODING 260
SWIDTH 495 0
DWIDTH 44 0
BBX 43 70 -1 -15
BITMAP
00000003FE00
00000007FE00
0000000FFE00
0000000FFE00
0000001FFE00
0000001FFF00
0000003FFF00
0000007F7F00
0000007E7F00
000000FE7F00
000000FC7F00
000001FC7F00
000003F87F00
000003F83F00
000007F03F00
000007E03F80
00000FE03F80
00000FC03F80
00001FC03F80
00001F803F80
00003F803F80
00007F003F80
00007F003F80
0000FE003F80
0000FC003F80
0001FC003F80
0001F8001F80
0003F8001F80
0003F0001FC0
0007F0001FC0
0007E0001FC0
000FE0001FC0
001FC0001FC0
001FC0001FC0
003F80001FC0
003FFFFFFFC0
007FFFFFFFC0
007FFFFFFFC0
00FFFFFFFFC0
00FFFFFFFFC0
01FFFFFFFFC0
01FC00001FC0
03F800001FC0
03F800001FC0
07F000001FC0
07F000001FC0
0FE000001FC0
0FE000001FC0
1FC000001FC0
1FC000001FC0
3F8000001FE0
3F8000001FE0
7F0000001FE0
7F0000001FE0
FE0000001FE0
000000001FC0
000000007F80
00000000FE00
00000001FC00
00000003F800
00000007F000
00000007E000
0000000FE000
0000000FE000
0000000FF080
0000000FFF80
0000000FFF80
00000007FF80
00000003FF00
00000000FE00
ENDCHAR
STARTCHAR 0105
ENCODING 261
SWIDTH 495 0
DWIDTH 44 0
BBX 39 57 6 -15
BITMAP
000003FFE0
00001FFFFE
0000FFFFFE
0003FFFFFE
000FFFFFFE
001FFFFFFE
003FFE01FC
007FF001FC
00FFC001FC
01FF8001FC
03FE0003FC
07FC0003F8
07F80003F8
0FF00003F8
1FF00007F8
1FE00007F0
1FC00007F0
3FC00007F0
3F80000FF0
3F80000FE0
7F80000FE0
7F00000FE0
7F00001FE0
7F00001FC0
7F00001FC0
FF00001FC0
FF00003FC0
FF00003F80
FF00003F80
FF00003F80
FF00003F80
7F00003F80
7F00007F80
7F8000FF00
7FC001FF00
3FC007FF80
3FF01FFF80
1FFFFFFF80
1FFFFFFF80
0FFFFF3F80
07FFFE1FC0
01FFF81FC0
007FC07F80
000000FE00
000001FC00
000003F800
000007E000
00000FC000
00001FC000
00001F8000
00003F8000
00003FE200
00003FFE00
00001FFE00
00001FFE00
00000FFE00
000003F800
ENDCHAR
STARTCHAR 0106
ENCODING 262
SWIDTH 495 0
DWIDTH 44 0
BBX 43 75 8 -1
BITMAP
000000001000
000000003800
000000007800
00000000FC00
00000001FE00
00000003FE00
00000007FE00
0000000FFC00
0000001FF000
0000003FE000
0000007FC000
000000FF0000
000001FE0000
000000FC0000
000000700000
000000200000
000000000000
000000000000
000001FFF000
00000FFFFE00
00003FFFFF80
00007FFFFFE0
0001FFFFFFE0
0003FFFFFFC0
0007FFC0FF80
000FFE000F80
001FF8000300
003FE0000100
007FC0000000
00FF80000000
01FF00000000
01FE00000000
03FC00000000
03F800000000
07F800000000
0FF000000000
0FF000000000
0FE000000000
1FE000000000
1FC000000000
3FC000000000
3FC000000000
3F8000000000
3F8000000000
7F8000000000
7F0000000000
7F0000000000
7F0000000000
FF0000000000
FF0000000000
FF0000000000
FE0000000000
FE0000000000
FE0000000000
FE0000000000
FE0000000000
FE0000000000
FE0000000000
FF0000000000
FF0000000000
FF0000000000
FF0000000000
7F8000000000
7F8000000000
7FC000000000
3FE000000000
3FF000060000
1FF8003E0000
1FFF87FE0000
0FFFFFFE0000
07FFFFFE0000
03FFFFFF0000
01FFFFFC0000
007FFFF00000
000FFE000000
ENDCHAR
STARTCHAR 0107
ENCODING 263
SWIDTH 495 0
DWIDTH 44 0
BBX 39 62 6 -1
BITMAP
0000000030
0000000078
00000000F8
00000001FC
00000003FE
00000007FE
0000000FFC
0000001FF8
0000003FE0
0000007FC0
000000FF80
000001FE00
000000FC00
000000F800
0000006000
0000000000
0000000000
0000000000
0000000000
000007FFF0
00007FFFFE
0001FFFFFE
0007FFFFFE
000FFFFFFC
003FFFFFFC
007FFC0078
00FFE00008
01FFC00000
03FF000000
07FE000000
07FC000000
0FF8000000
0FF0000000
1FE0000000
1FE0000000
3FC0000000
3FC0000000
3F80000000
7F80000000
7F00000000
7F00000000
7F00000000
7F00000000
FF00000000
FF00000000
FF00000000
FF00000000
FF00000000
FF00000000
7F00000000
7F80000000
7F80000000
7FC0000000
3FE0000100
3FF8000F00
1FFF81FF00
0FFFFFFF00
07FFFFFF80
03FFFFFF80
01FFFFFF00
007FFFFC00
0007FFC000
ENDCHAR
STARTCHAR 0108
ENCODING 264
SWIDTH 495 0
DWIDTH 44 0
BBX 43 74 8 -1
BITMAP
000000008000
00000001C000
00000007E000
0000000FF000
0000001FF000
0000003FF800
0000007FFC00
000000FFFC00
000003FCFE00
000007F87F00
00000FF03F80
000007C01F80
000007800F00
000002000600
000000000000
000000000000
000000000000
000001FFF000
00000FFFFE00
00003FFFFF80
00007FFFFFE0
0001FFFFFFE0
0003FFFFFFC0
0007FFC0FF80
000FFE000F80
001FF8000300
003FE0000100
007FC0000000
00FF80000000
01FF00000000
01FE00000000
03FC00000000
03F800000000
07F800000000
0FF000000000
0FF000000000
0FE000000000
1FE000000000
1FC000000000
3FC000000000
3FC000000000
3F8000000000
3F8000000000
7F8000000000
7F0000000000
7F0000000000
7F0000000000
FF0000000000
FF0000000000
FF0000000000
FE0000000000
FE0000000000
FE0000000000
FE0000000000
FE0000000000
FE0000000000
FE0000000000
FF0000000000
FF0000000000
FF0000000000
FF0000000000
7F8000000000
7F8000000000
7FC000000000
3FE000000000
3FF000060000
1FF8003E0000
1FFF87FE0000
0FFFFFFE0000
07FFFFFE0000
03FFFFFF0000
01FFFFFC0000
007FFFF00000
000FFE000000
ENDCHAR
STARTCHAR 0109
ENCODING 265
SWIDTH 495 0
DWIDTH 44 0
BBX 39 62 6 -1
BITMAP
0000000200
0000000E00
0000001F00
0000003F80
0000007FC0
000000FFC0
000001FFE0
000007FFF0
00000FF7F0
00001FE3F8
00003FC1FC
00003F00FE
00003E007C
0000180038
0000000010
0000000000
0000000000
0000000000
0000000000
000007FFF0
00007FFFFE
0001FFFFFE
0007FFFFFE
000FFFFFFC
003FFFFFFC
007FFC0078
00FFE00008
01FFC00000
03FF000000
07FE000000
07FC000000
0FF8000000
0FF0000000
1FE0000000
1FE0000000
3FC0000000
3FC0000000
3F80000000
7F80000000
7F00000000
7F00000000
7F00000000
7F00000000
FF00000000
FF00000000
FF00000000
FF00000000
FF00000000
FF00000000
7F00000000
7F80000000
7F80000000
7FC0000000
3FE0000100
3FF8000F00
1FFF81FF00
0FFFFFFF00
07FFFFFF80
03FFFFFF80
01FFFFFF00
007FFFFC00
0007FFC000
ENDCHAR
STARTCHAR 010A
ENCODING 266
SWIDTH 495 0
DWIDTH 44 0
BBX 43 72 8 -1
BITMAP
000000070000
0000001FC000
0000003FC000
0000003FE000
0000007FE000
0000007FE000
0000007FE000
0000003FC000
0000003F8000
0000000F0000
000000000000
000000000000
000000000000
000000000000
000000000000
000001FFF000
00000FFFFE00
00003FFFFF80
00007FFFFFE0
0001FFFFFFE0
0003FFFFFFC0
0007FFC0FF80
000FFE000F80
001FF8000300
003FE0000100
007FC0000000
00FF80000000
01FF00000000
01FE00000000
03FC00000000
03F800000000
07F800000000
0FF000000000
0FF000000000
0FE000000000
1FE000000000
1FC000000000
3FC000000000
3FC000000000
3F8000000000
3F8000000000
7F8000000000
7F0000000000
7F0000000000
7F0000000000
FF0000000000
FF0000000000
FF0000000000
FE0000000000
FE0000000000
FE0000000000
FE0000000000
FE0000000000
FE0000000000
FE0000000000
FF0000000000
FF0000000000
FF0000000000
FF0000000000
7F8000000000
7F8000000000
7FC000000000
3FE000000000
3FF000060000
1FF8003E0000
1FFF87FE0000
0FFFFFFE0000
07FFFFFE0000
03FFFFFF0000
01FFFFFC0000
007FFFF00000
000FFE000000
ENDCHAR
STARTCHAR 010B
ENCODING 267
SWIDTH 495 0
DWIDTH 44 0
BBX 39 59 6 -1
BITMAP
0000001F80
0000003FC0
0000007FC0
0000007FC0
0000007FC0
0000007FC0
0000007FC0
0000003F80
0000001F00
0000000000
0000000000
0000000000
0000000000
0000000000
0000000000
0000000000
000007FFF0
00007FFFFE
0001FFFFFE
0007FFFFFE
000FFFFFFC
003FFFFFFC
007FFC0078
00FFE00008
01FFC00000
03FF000000
07FE000000
07FC000000
0FF8000000
0FF0000000
1FE0000000
1FE0000000
3FC0000000
3FC0000000
3F80000000
7F80000000
7F00000000
7F00000000
7F00000000
7F00000000
FF00000000
FF00000000
FF00000000
FF00000000
FF00000000
FF00000000
7F00000000
7F80000000
7F80000000
7FC0000000
3FE0000100
3FF8000F00
1FFF81FF00
0FFFFFFF00
07FFFFFF80
03FFFFFF80
01FFFFFF00
007FFFFC00
0007FFC000
ENDCHAR
STARTCHAR 010C
ENCODING 268
SWIDTH 495 0
DWIDTH 44 0
BBX 43 75 8 -1
BITMAP
000000800000
000001C00300
000003E00780
000007E00FC0
000003F03FC0
000003F87F80
000001FCFF00
000000FFFC00
0000007FF800
0000007FF000
0000003FE000
0000001FC000
0000001F8000
0000000E0000
000000040000
000000000000
000000000000
000000000000
000001FFF000
00000FFFFE00
00003FFFFF80
00007FFFFFE0
0001FFFFFFE0
0003FFFFFFC0
0007FFC0FF80
000FFE000F80
001FF8000300
003FE0000100
007FC0000000
00FF80000000
01FF00000000
01FE00000000
03FC00000000
03F800000000
07F800000000
0FF000000000
0FF000000000
0FE000000000
1FE000000000
1FC000000000
3FC000000000
3FC000000000
3F8000000000
3F8000000000
7F8000000000
7F0000000000
7F0000000000
7F0000000000
FF0000000000
FF0000000000
FF0000000000
FE0000000000
FE0000000000
FE0000000000
FE0000000000
FE0000000000
FE0000000000
FE0000000000
FF0000000000
FF0000000000
FF0000000000
FF0000000000
7F8000000000
7F8000000000
7FC000000000
3FE000000000
3FF000060000
1FF8003E0000
1FFF87FE0000
0FFFFFFE0000
07FFFFFE0000
03FFFFFF0000
01FFFFFC0000
007FFFF00000
000FFE000000
ENDCHAR
STARTCHAR 010D
ENCODING 269
SWIDTH 495 0
DWIDTH 44 0
BBX 40 62 6 -1
BITMAP
0000030004
000007000E
00001F803F
00000FC07F
00000FE0FE
000007F3FC
000003FFF8
000001FFF0
000001FFE0
000000FFC0
0000007F00
0000007E00
0000003C00
0000001800
0000000000
0000000000
0000000000
0000000000
0000000000
000007FFF0
00007FFFFE
0001FFFFFE
0007FFFFFE
000FFFFFFC
003FFFFFFC
007FFC0078
00FFE00008
01FFC00000
03FF000000
07FE000000
07FC000000
0FF8000000
0FF0000000
1FE0000000
1FE0000000
3FC0000000
3FC0000000
3F80000000
7F80000000
7F00000000
7F00000000
7F00000000
7F00000000
FF00000000
FF00000000
FF00000000
FF00000000
FF00000000
FF00000000
7F00000000
7F80000000
7F80000000
7FC0000000
3FE0000100
3FF8000F00
1FFF81FF00
0FFFFFFF00
07FFFFFF80
03FFFFFF80
01FFFFFF00
007FFFFC00
0007FFC000
ENDCHAR
STARTCHAR 010E
ENCODING 270
SWIDTH 495 0
DWIDTH 44 0
BBX 43 73 3 1
BITMAP
000001800300
000007C00F00
00000FE01F80
000007F03F80
000003F8FF00
000001FDFE00
000001FFFC00
000000FFF800
0000007FE000
0000007FC000
0000003F8000
0000001F0000
0000000E0000
0000000C0000
000000000000
000000000000
000000000000
000001800000
0003FFFF0000
0007FFFFC000
000FFFFFF000
000FFFFFF800
000FFFFFFC00
000FFFFFFE00
000FE00FFF00
001FE001FF80
001FC000FF80
001FC0007FC0
001FC0003FC0
003FC0003FC0
003F80001FE0
003F80001FE0
003F80001FE0
007F80000FE0
007F00000FE0
007F00000FE0
007F00000FE0
00FF00000FE0
00FE00000FE0
00FE00000FE0
00FE00000FE0
01FE00000FE0
01FC00000FE0
01FC00000FE0
01FC00000FE0
01FC00001FE0
03FC00001FE0
03F800001FC0
03F800001FC0
03F800003FC0
07F800003FC0
07F000003F80
07F000007F80
07F000007F80
0FF00000FF00
0FE00000FF00
0FE00001FE00
0FE00001FE00
1FE00003FC00
1FC00007FC00
1FC0000FF800
1FC0001FF000
3FC0003FF000
3FC0007FE000
3F8001FFC000
3F8007FF8000
3F803FFF0000
7FFFFFFC0000
7FFFFFF80000
7FFFFFF00000
7FFFFFC00000
FFFFFE000000
7FFFF0000000
ENDCHAR
STARTCHAR 010F
ENCODING 271
SWIDTH 495 0
DWIDTH 44 0
BBX 53 63 4 -1
BITMAP
000000000003F8
000000003F83F8
000000007F83F8
000000007F03F0
000000007F07F0
000000007F07F0
00000000FF07E0
00000000FE07E0
00000000FE0FC0
00000000FE0FC0
00000001FE0FC0
00000001FC0F80
00000001FC1F80
00000001FC1F80
00000003FC1F00
00000003FC1F00
00000003F83F00
00000003F83E00
00000003F80000
00000007F80000
00000FFFF00000
00007FFFF00000
0001FFFFF00000
0007FFFFF00000
001FFFFFE00000
003FFFFFE00000
007FF80FE00000
00FFE00FE00000
01FF801FC00000
03FF001FC00000
03FC001FC00000
07F8001FC00000
0FF8003F800000
0FF0003F800000
1FE0003F800000
1FE0003F800000
1FC0007F000000
3FC0007F000000
3F80007F000000
3F80007F000000
7F8000FE000000
7F0000FE000000
7F0000FE000000
7F0000FE000000
7F0001FE000000
FF0001FC000000
FF0001FC000000
FF0001FC000000
FF0003FC000000
FF0003F8000000
FF0003F8000000
FF0003F8000000
FF0003F8000000
7F0007F8000000
7F800FF8000000
7FC03FF8000000
3FE0FFF8000000
3FFFFFF8000000
1FFFFDF8000000
0FFFF9FC000000
07FFF1FC000000
03FFC1FC000000
00FF0000000000
ENDCHAR
STARTCHAR 0110
ENCODING 272
SWIDTH 495 0
DWIDTH 44 0
BBX 40 56 6 0
BITMAP
0000070000
0003FFFC00
0007FFFF00
0007FFFFC0
000FFFFFE0
000FFFFFF0
000FFFFFF8
000FE01FF8
001FE007FC
001FC003FC
001FC003FE
001FC001FE
003FC000FE
003F8000FF
003F8000FF
003F8000FF
007F80007F
007F80007F
007F00007F
007F00007F
00FF00007F
00FF00007F
00FE00007F
00FE00007F
7FFFFC007F
7FFFFC007F
7FFFF8007F
FFFFF8007F
FFFFF800FF
FFFFF800FF
03F80000FE
03F80000FE
03F80001FE
07F80001FE
07F00001FC
07F00003FC
07F00003FC
0FF00003F8
0FF00007F8
0FE00007F8
0FE0000FF0
1FE0001FF0
1FE0001FE0
1FC0003FC0
1FC0007FC0
3FC000FF80
3FC001FF00
3F8007FE00
3F801FFE00
3F807FFC00
7FFFFFF000
7FFFFFE000
7FFFFFC000
7FFFFF0000
FFFFFC0000
7FFFC00000
ENDCHAR
STARTCHAR 0111
ENCODING 273
SWIDTH 495 0
DWIDTH 44 0
BBX 47 63 7 -1
BITMAP
000000000020
000000000FE0
000000001FC0
000000001FC0
000000001FC0
000000003FC0
000000003F80
000000003F80
00001FFFFFFE
00001FFFFFFE
00003FFFFFFC
00003FFFFFFC
00003FFFFFFC
000000007F00
00000000FF00
00000000FE00
00000000FE00
00000000FE00
00000001FE00
00000001FC00
000007FFFC00
00007FFFFC00
0001FFFFFC00
0007FFFFF800
000FFFFFF800
003FFFFFF800
007FFC03F800
00FFE007F000
01FF8007F000
03FF0007F000
03FE0007F000
07FC000FE000
0FF8000FE000
0FF0000FE000
1FE0000FE000
1FE0001FC000
3FC0001FC000
3FC0001FC000
3F80001FC000
7F80003FC000
7F00003F8000
7F00003F8000
7F00003F8000
FF00007F8000
FF00007F0000
FF00007F0000
FF00007F0000
FE0000FF0000
FF0000FE0000
FF0000FE0000
FF0000FE0000
FF0000FE0000
FF0000FE0000
7F0003FE0000
7F8007FE0000
7FC00FFE0000
3FE07FFE0000
3FFFFFFE0000
1FFFFFFE0000
0FFFFE7F0000
07FFF87F0000
03FFF07F0000
00FF80000000
ENDCHAR
STARTCHAR 0112
ENCODING 274
SWIDTH 495 0
DWIDTH 44 0
BBX 44 69 6 0
BITMAP
000007FFFFE0
000007FFFFE0
00000FFFFFE0
00000FFFFFC0
00000FFFFFC0
00000FFFFFC0
000000000000
000000000000
000000000000
000000000000
000000000000
000000000000
000000000000
000000000000
0003FFFFFFF0
0007FFFFFFF0
0007FFFFFFF0
0007FFFFFFF0
0007FFFFFFE0
000FFFFFFFE0
000FE0000000
000FE0000000
000FE0000000
001FE0000000
001FC0000000
001FC0000000
001FC0000000
003FC0000000
003F80000000
003F80000000
003F80000000
007F80000000
007F00000000
007F00000000
007F00000000
00FF00000000
00FE00000000
00FFFFFFF000
00FFFFFFF000
01FFFFFFE000
01FFFFFFE000
01FFFFFFE000
01FFFFFFE000
03FC00000000
03FC00000000
03F800000000
03F800000000
03F800000000
07F800000000
07F000000000
07F000000000
07F000000000
0FF000000000
0FE000000000
0FE000000000
0FE000000000
1FE000000000
1FC000000000
1FC000000000
1FC000000000
3FC000000000
3FC000000000
3F8000000000
3FFFFFFFC000
7FFFFFFFC000
7FFFFFFFC000
7FFFFFFFC000
7FFFFFFF8000
FFFFFFFF8000
ENDCHAR
STARTCHAR 0113
ENCODING 275
SWIDTH 495 0
DWIDTH 44 0
BBX 40 57 6 -1
BITMAP
00003FFFFF
00003FFFFF
00007FFFFF
00007FFFFE
00007FFFFE
0000000000
0000000000
0000000000
0000000000
0000000000
0000000000
0000000000
0000000000
0000000000
00001FFE00
0000FFFFC0
0003FFFFE0
000FFFFFF0
001FFFFFF8
003FFFFFFC
007FF80FFC
00FFC003FC
01FF8001FE
03FE0001FE
07FC0001FE
07F80001FE
0FF00001FE
1FF00001FC
1FE00003FC
1FC00003FC
3FC00007F8
3F80001FF8
3F80007FF0
7F8007FFE0
7FFFFFFFC0
7FFFFFFF80
7FFFFFFE00
7FFFFFF000
FFFFFF0000
FFFF800000
FE00000000
FE00000000
FE00000000
FF00000000
7F00000000
7F00000000
7F80000000
7FC0000000
3FE0000100
3FF8000F00
1FFF83FF00
0FFFFFFF00
07FFFFFF80
03FFFFFF80
01FFFFFF00
007FFFF800
000FFF8000
ENDCHAR
STARTCHAR 0114
ENCODING 276
SWIDTH 495 0
DWIDTH 44 0
BBX 44 72 6 0
BITMAP
000003E001F0
000003E003E0
000003E003E0
000003E007E0
000003F00FC0
000001F81FC0
000001FFFF80
000001FFFF00
000000FFFE00
0000007FFC00
0000001FF000
000000000000
000000000000
000000000000
000000000000
000000000000
000000000000
0003FFFFFFF0
0007FFFFFFF0
0007FFFFFFF0
0007FFFFFFF0
0007FFFFFFE0
000FFFFFFFE0
000FE0000000
000FE0000000
000FE0000000
001FE0000000
001FC0000000
001FC0000000
001FC0000000
003FC0000000
003F80000000
003F80000000
003F80000000
007F80000000
007F00000000
007F00000000
007F00000000
00FF00000000
00FE00000000
00FFFFFFF000
00FFFFFFF000
01FFFFFFE000
01FFFFFFE000
01FFFFFFE000
01FFFFFFE000
03FC00000000
03FC00000000
03F800000000
03F800000000
03F800000000
07F800000000
07F000000000
07F000000000
07F000000000
0FF000000000
0FE000000000
0FE000000000
0FE000000000
1FE000000000
1FC000000000
1FC000000000
1FC000000000
3FC000000000
3FC000000000
3F8000000000
3FFFFFFFC000
7FFFFFFFC000
7FFFFFFFC000
7FFFFFFFC000
7FFFFFFF8000
FFFFFFFF8000
ENDCHAR
STARTCHAR 0115
ENCODING 277
SWIDTH 495 0
DWIDTH 44 0
BBX 40 60 6 -1
BITMAP
00001F001F
00001F001F
00001F003F
00001F803F
00001FC0FE
00000FFFFC
00000FFFFC
000007FFF8
000003FFF0
000001FFC0
0000000C00
0000000000
0000000000
0000000000
0000000000
0000000000
0000000000
00001FFE00
0000FFFFC0
0003FFFFE0
000FFFFFF0
001FFFFFF8
003FFFFFFC
007FF80FFC
00FFC003FC
01FF8001FE
03FE0001FE
07FC0001FE
07F80001FE
0FF00001FE
1FF00001FC
1FE00003FC
1FC00003FC
3FC00007F8
3F80001FF8
3F80007FF0
7F8007FFE0
7FFFFFFFC0
7FFFFFFF80
7FFFFFFE00
7FFFFFF000
FFFFFF0000
FFFF800000
FE00000000
FE00000000
FE00000000
FF00000000
7F00000000
7F00000000
7F80000000
7FC0000000
3FE0000100
3FF8000F00
1FFF83FF00
0FFFFFFF00
07FFFFFF80
03FFFFFF80
01FFFFFF00
007FFFF800
000FFF8000
ENDCHAR
STARTCHAR 0116
ENCODING 278
SWIDTH 495 0
DWIDTH 44 0
BBX 44 71 6 0
BITMAP
000000038000
0000000FE000
0000001FF000
0000001FF000
0000001FF000
0000001FF000
0000001FF000
0000001FE000
0000001FC000
000000078000
000000000000
000000000000
000000000000
000000000000
000000000000
000000000000
0003FFFFFFF0
0007FFFFFFF0
0007FFFFFFF0
0007FFFFFFF0
0007FFFFFFE0
000FFFFFFFE0
000FE0000000
000FE0000000
000FE0000000
001FE0000000
001FC0000000
001FC0000000
001FC0000000
003FC0000000
003F80000000
003F80000000
003F80000000
007F80000000
007F00000000
007F00000000
007F00000000
00FF00000000
00FE00000000
00FFFFFFF000
00FFFFFFF000
01FFFFFFE000
01FFFFFFE000
01FFFFFFE000
01FFFFFFE000
03FC00000000
03FC00000000
03F800000000
03F800000000
03F800000000
07F800000000
07F000000000
07F000000000
07F000000000
0FF000000000
0FE000000000
0FE000000000
0FE000000000
1FE000000000
1FC000000000
1FC000000000
1FC000000000
3FC000000000
3FC000000000
3F8000000000
3FFFFFFFC000
7FFFFFFFC000
7FFFFFFFC000
7FFFFFFFC000
7FFFFFFF8000
FFFFFFFF8000
ENDCHAR
STARTCHAR 0117
ENCODING 279
SWIDTH 495 0
DWIDTH 44 0
BBX 39 59 6 -1
BITMAP
0000003E00
0000007F00
000000FF80
000000FF80
000000FF80
000000FF80
000000FF00
000000FF00
0000007C00
0000000000
0000000000
0000000000
0000000000
0000000000
0000000000
0000000000
00001FFE00
0000FFFFC0
0003FFFFE0
000FFFFFF0
001FFFFFF8
003FFFFFFC
007FF80FFC
00FFC003FC
01FF8001FE
03FE0001FE
07FC0001FE
07F80001FE
0FF00001FE
1FF00001FC
1FE00003FC
1FC00003FC
3FC00007F8
3F80001FF8
3F80007FF0
7F8007FFE0
7FFFFFFFC0
7FFFFFFF80
7FFFFFFE00
7FFFFFF000
FFFFFF0000
FFFF800000
FE00000000
FE00000000
FE00000000
FF00000000
7F00000000
7F00000000
7F80000000
7FC0000000
3FE0000100
3FF8000F00
1FFF83FF00
0FFFFFFF00
07FFFFFF80
03FFFFFF80
01FFFFFF00
007FFFF800
000FFF8000
ENDCHAR
STARTCHAR 0118
ENCODING 280
SWIDTH 495 0
DWIDTH 44 0
BBX 44 70 6 -15
BITMAP
0003FFFFFFF0
0007FFFFFFF0
0007FFFFFFF0
0007FFFFFFF0
0007FFFFFFE0
000FFFFFFFE0
000FE0000000
000FE0000000
000FE0000000
001FE0000000
001FC0000000
001FC0000000
001FC0000000
003FC0000000
003F80000000
003F80000000
003F80000000
007F80000000
007F00000000
007F00000000
007F00000000
00FF00000000
00FE00000000
00FFFFFFF000
00FFFFFFF000
01FFFFFFE000
01FFFFFFE000
01FFFFFFE000
01FFFFFFE000
03FC00000000
03FC00000000
03F800000000
03F800000000
03F800000000
07F800000000
07F000000000
07F000000000
07F000000000
0FF000000000
0FE000000000
0FE000000000
0FE000000000
1FE000000000
1FC000000000
1FC000000000
1FC000000000
3FC000000000
3FC000000000
3F8000000000
3FFFFFFFC000
7FFFFFFFC000
7FFFFFFFC000
7FFFFFFFC000
7FFFFFFF8000
FFFFFFFF8000
0000007F0000
000001FE0000
000003F80000
000007F00000
00000FE00000
00001FC00000
00001F800000
00003F800000
00003F800000
00003FC20000
00003FFE0000
00003FFE0000
00001FFC0000
00001FFC0000
000003F00000
ENDCHAR
STARTCHAR 0119
ENCODING 281
SWIDTH 495 0
DWIDTH 44 0
BBX 39 57 6 -15
BITMAP
00001FFE00
0000FFFFC0
0003FFFFE0
000FFFFFF0
001FFFFFF8
003FFFFFFC
007FF80FFC
00FFC003FC
01FF8001FE
03FE0001FE
07FC0001FE
07F80001FE
0FF00001FE
1FF00001FC
1FE00003FC
1FC00003FC
3FC00007F8
3F80001FF8
3F80007FF0
7F8007FFE0
7FFFFFFFC0
7FFFFFFF80
7FFFFFFE00
7FFFFFF000
FFFFFF0000
FFFF800000
FE00000000
FE00000000
FE00000000
FF00000000
7F00000000
7F00000000
7F80000000
7FC0000000
3FE0000100
3FF8000F00
1FFF83FF00
0FFFFFFF00
07FFFFFF80
03FFFFFF80
01FFFFFF00
007FFFFE00
000FFFF800
000007F000
00001FC000
00003F8000
00007F0000
00007E0000
0000FC0000
0001FC0000
0001FC0000
0001FF1000
0001FFF000
0001FFF000
0000FFF000
00007FF000
00001FC000
ENDCHAR
STARTCHAR 011A
ENCODING 282
SWIDTH 495 0
DWIDTH 44 0
BBX 44 74 6 0
BITMAP
000000400000
000000E000C0
000001F003C0
000003F807E0
000001FC0FE0
000000FC3FC0
000000FE7F80
0000007FFF00
0000003FFC00
0000001FF800
0000001FF000
0000000FE000
00000007C000
000000078000
000000020000
000000000000
000000000000
000000000000
000000000000
0003FFFFFFF0
0007FFFFFFF0
0007FFFFFFF0
0007FFFFFFF0
0007FFFFFFE0
000FFFFFFFE0
000FE0000000
000FE0000000
000FE0000000
001FE0000000
001FC0000000
001FC0000000
001FC0000000
003FC0000000
003F80000000
003F80000000
003F80000000
007F80000000
007F00000000
007F00000000
007F00000000
00FF00000000
00FE00000000
00FFFFFFF000
00FFFFFFF000
01FFFFFFE000
01FFFFFFE000
01FFFFFFE000
01FFFFFFE000
03FC00000000
03FC00000000
03F800000000
03F800000000
03F800000000
07F800000000
07F000000000
07F000000000
07F000000000
0FF000000000
0FE000000000
0FE000000000
0FE000000000
1FE000000000
1FC000000000
1FC000000000
1FC000000000
3FC000000000
3FC000000000
3F8000000000
3FFFFFFFC000
7FFFFFFFC000
7FFFFFFFC000
7FFFFFFFC000
7FFFFFFF8000
FFFFFFFF8000
ENDCHAR
STARTCHAR 011B
ENCODING 283
SWIDTH 495 0
DWIDTH 44 0
BBX 40 62 6 -1
BITMAP
0000060008
00000F001C
00001F007E
00001F80FF
00001FC1FC
00000FE7F8
000007FFF0
000003FFE0
000003FFC0
000001FF80
000000FE00
000000FC00
0000007800
0000003000
0000000000
0000000000
0000000000
0000000000
0000000000
00001FFE00
0000FFFFC0
0003FFFFE0
000FFFFFF0
001FFFFFF8
003FFFFFFC
007FF80FFC
00FFC003FC
01FF8001FE
03FE0001FE
07FC0001FE
07F80001FE
0FF00001FE
1FF00001FC
1FE00003FC
1FC00003FC
3FC00007F8
3F80001FF8
3F80007FF0
7F8007FFE0
7FFFFFFFC0
7FFFFFFF80
7FFFFFFE00
7FFFFFF000
FFFFFF0000
FFFF800000
FE00000000
FE00000000
FE00000000
FF00000000
7F00000000
7F00000000
7F80000000
7FC0000000
3FE0000100
3FF8000F00
1FFF83FF00
0FFFFFFF00
07FFFFFF80
03FFFFFF80
01FFFFFF00
007FFFF800
000FFF8000
ENDCHAR
STARTCHAR 011C
ENCODING 284
SWIDTH 495 0
DWIDTH 44 0
BBX 42 74 7 -1
BITMAP
000000018000
00000003C000
00000007C000
0000000FE000
0000001FF000
0000007FF800
000000FFF800
000001FFFC00
000003FCFE00
000007F07E00
00001FE07F00
00000FC03F00
000007001E00
000006000C00
000000000000
000000000000
000000000000
000000FFF000
000007FFFE00
00003FFFFF80
00007FFFFFC0
0001FFFFFFC0
0003FFFFFFC0
0007FFC07F80
000FFE000F00
001FF8000700
003FE0000000
007FC0000000
00FF80000000
00FF00000000
01FE00000000
03FC00000000
03FC00000000
07F800000000
07F000000000
0FF000000000
0FE000000000
1FE000000000
1FC000000000
1FC000000000
3FC000000000
3F8000000000
3F8000000000
7F8000000000
7F8000000000
7F0000000000
7F000003F800
7F000003F800
7F000007F800
FF000007F800
FF000007F000
FF000007F000
FF00000FF000
FE00000FF000
FE00000FE000
FF00000FE000
FF00000FE000
FF00001FE000
FF00001FC000
FF00001FC000
7F00001FC000
7F80003FC000
7F80003F8000
7FC0003F8000
3FE0003F8000
3FF0007F8000
1FF8007F0000
1FFF03FF0000
0FFFFFFF0000
07FFFFFF0000
03FFFFFF0000
01FFFFFE0000
007FFFF80000
000FFF000000
ENDCHAR
STARTCHAR 011D
ENCODING 285
SWIDTH 495 0
DWIDTH 44 0
BBX 45 76 2 -15
BITMAP
000000003000
000000007000
00000000F800
00000001FC00
00000003FC00
00000007FE00
0000001FFF00
0000003FFF80
0000007FBF80
000000FF1FC0
000001FC0FE0
000001F807E0
000001F003E0
000000C001C0
000000000080
000000000000
000000000000
000000000000
000000000000
0000001FFF80
000001FFFFF0
000007FFFFF8
00001FFFFFF8
00007FFFFFF8
0000FFFFFFF0
0001FFF007F0
0003FF800FF0
0007FE000FF0
000FFC000FE0
001FF0000FE0
003FE0001FE0
003FC0001FE0
007FC0001FC0
007F80001FC0
00FF00001FC0
00FF00003FC0
01FE00003F80
01FE00003F80
01FC00003F80
01FC00007F80
03FC00007F00
03F800007F00
03F800007F00
03F80000FF00
03F80000FE00
03F80000FE00
03F80000FE00
03F80001FE00
03F80001FC00
03F80001FC00
03FC0003FC00
03FE000FFC00
01FF007FF800
01FFFFFFF800
00FFFFFFF800
00FFFFFFF800
007FFFFFF000
001FFFF7F000
0007FF87F000
00000007F000
0000000FE000
0000000FE000
0000001FE000
0000001FC000
0000003FC000
0000007F8000
000000FF8000
300001FF0000
3E0007FF0000
7FE07FFE0000
7FFFFFFC0000
FFFFFFF80000
FFFFFFE00000
7FFFFFC00000
0FFFFE000000
01FFE0000000
ENDCHAR
STARTCHAR 011E
ENCODING 286
SWIDTH 495 0
DWIDTH 44 0
BBX 43 73 7 -1
BITMAP
000007C003E0
000007C007C0
000007C007C0
000007C00FC0
000007E01F80
000003F03F80
000003FFFF00
000003FFFE00
000001FFFC00
000000FFF800
0000003FE000
000000000000
000000000000
000000000000
000000000000
000000000000
000000FFF000
000007FFFE00
00003FFFFF80
00007FFFFFC0
0001FFFFFFC0
0003FFFFFFC0
0007FFC07F80
000FFE000F00
001FF8000700
003FE0000000
007FC0000000
00FF80000000
00FF00000000
01FE00000000
03FC00000000
03FC00000000
07F800000000
07F000000000
0FF000000000
0FE000000000
1FE000000000
1FC000000000
1FC000000000
3FC000000000
3F8000000000
3F8000000000
7F8000000000
7F8000000000
7F0000000000
7F000003F800
7F000003F800
7F000007F800
FF000007F800
FF000007F000
FF000007F000
FF00000FF000
FE00000FF000
FE00000FE000
FF00000FE000
FF00000FE000
FF00001FE000
FF00001FC000
FF00001FC000
7F00001FC000
7F80003FC000
7F80003F8000
7FC0003F8000
3FE0003F8000
3FF0007F8000
1FF8007F0000
1FFF03FF0000
0FFFFFFF0000
07FFFFFF0000
03FFFFFF0000
01FFFFFE0000
007FFFF80000
000FFF000000
ENDCHAR
STARTCHAR 011F
ENCODING 287
SWIDTH 495 0
DWIDTH 44 0
BBX 45 74 2 -15
BITMAP
000000F800F8
000000F800F8
000000F801F8
000000FC03F0
000000FC07F0
0000007FFFE0
0000007FFFE0
0000003FFFC0
0000001FFF00
0000000FFE00
00000000E000
000000000000
000000000000
000000000000
000000000000
000000000000
000000000000
0000001FFF80
000001FFFFF0
000007FFFFF8
00001FFFFFF8
00007FFFFFF8
0000FFFFFFF0
0001FFF007F0
0003FF800FF0
0007FE000FF0
000FFC000FE0
001FF0000FE0
003FE0001FE0
003FC0001FE0
007FC0001FC0
007F80001FC0
00FF00001FC0
00FF00003FC0
01FE00003F80
01FE00003F80
01FC00003F80
01FC00007F80
03FC00007F00
03F800007F00
03F800007F00
03F80000FF00
03F80000FE00
03F80000FE00
03F80000FE00
03F80001FE00
03F80001FC00
03F80001FC00
03FC0003FC00
03FE000FFC00
01FF007FF800
01FFFFFFF800
00FFFFFFF800
00FFFFFFF800
007FFFFFF000
001FFFF7F000
0007FF87F000
00000007F000
0000000FE000
0000000FE000
0000001FE000
0000001FC000
0000003FC000
0000007F8000
000000FF8000
300001FF0000
3E0007FF0000
7FE07FFE0000
7FFFFFFC0000
FFFFFFF80000
FFFFFFE00000
7FFFFFC00000
0FFFFE000000
01FFE0000000
ENDCHAR
STARTCHAR 0120
ENCODING 288
SWIDTH 495 0
DWIDTH 44 0
BBX 42 72 7 -1
BITMAP
000000070000
0000001FC000
0000003FE000
0000003FE000
0000003FE000
0000003FE000
0000003FE000
0000003FC000
0000003F8000
0000000F0000
000000000000
000000000000
000000000000
000000000000
000000000000
000000FFF000
000007FFFE00
00003FFFFF80
00007FFFFFC0
0001FFFFFFC0
0003FFFFFFC0
0007FFC07F80
000FFE000F00
001FF8000700
003FE0000000
007FC0000000
00FF80000000
00FF00000000
01FE00000000
03FC00000000
03FC00000000
07F800000000
07F000000000
0FF000000000
0FE000000000
1FE000000000
1FC000000000
1FC000000000
3FC000000000
3F8000000000
3F8000000000
7F8000000000
7F8000000000
7F0000000000
7F000003F800
7F000003F800
7F000007F800
FF000007F800
FF000007F000
FF000007F000
FF00000FF000
FE00000FF000
FE00000FE000
FF00000FE000
FF00000FE000
FF00001FE000
FF00001FC000
FF00001FC000
7F00001FC000
7F80003FC000
7F80003F8000
7FC0003F8000
3FE0003F8000
3FF0007F8000
1FF8007F0000
1FFF03FF0000
0FFFFFFF0000
07FFFFFF0000
03FFFFFF0000
01FFFFFE0000
007FFFF80000
000FFF000000
ENDCHAR
STARTCHAR 0121
ENCODING 289
SWIDTH 495 0
DWIDTH 44 0
BBX 45 73 2 -15
BITMAP
00000001F800
00000003FC00
00000007FC00
00000007FC00
00000007FC00
00000007FC00
00000007FC00
00000003F800
00000001F000
000000000000
000000000000
000000000000
000000000000
000000000000
000000000000
000000000000
0000001FFF80
000001FFFFF0
000007FFFFF8
00001FFFFFF8
00007FFFFFF8
0000FFFFFFF0
0001FFF007F0
0003FF800FF0
0007FE000FF0
000FFC000FE0
001FF0000FE0
003FE0001FE0
003FC0001FE0
007FC0001FC0
007F80001FC0
00FF00001FC0
00FF00003FC0
01FE00003F80
01FE00003F80
01FC00003F80
01FC00007F80
03FC00007F00
03F800007F00
03F800007F00
03F80000FF00
03F80000FE00
03F80000FE00
03F80000FE00
03F80001FE00
03F80001FC00
03F80001FC00
03FC0003FC00
03FE000FFC00
01FF007FF800
01FFFFFFF800
00FFFFFFF800
00FFFFFFF800
007FFFFFF000
001FFFF7F000
0007FF87F000
00000007F000
0000000FE000
0000000FE000
0000001FE000
0000001FC000
0000003FC000
0000007F8000
000000FF8000
300001FF0000
3E0007FF0000
7FE07FFE0000
7FFFFFFC0000
FFFFFFF80000
FFFFFFE00000
7FFFFFC00000
0FFFFE000000
01FFE0000000
ENDCHAR
STARTCHAR 0122
ENCODING 290
SWIDTH 495 0
DWIDTH 44 0
BBX 42 71 7 -15
BITMAP
000000FFF000
000007FFFE00
00003FFFFF80
00007FFFFFC0
0001FFFFFFC0
0003FFFFFFC0
0007FFC07F80
000FFE000F00
001FF8000700
003FE0000000
007FC0000000
00FF80000000
00FF00000000
01FE00000000
03FC00000000
03FC00000000
07F800000000
07F000000000
0FF000000000
0FE000000000
1FE000000000
1FC000000000
1FC000000000
3FC000000000
3F8000000000
3F8000000000
7F8000000000
7F8000000000
7F0000000000
7F000003F800
7F000003F800
7F000007F800
FF000007F800
FF000007F000
FF000007F000
FF00000FF000
FE00000FF000
FE00000FE000
FF00000FE000
FF00000FE000
FF00001FE000
FF00001FC000
FF00001FC000
7F00001FC000
7F80003FC000
7F80003F8000
7FC0003F8000
3FE0003F8000
3FF0007F8000
1FF8007F0000
1FFF03FF0000
0FFFFFFF0000
07FFFFFF0000
03FFFFFF0000
01FFFFFE0000
007FFFF80000
000FFF000000
000000000000
000000000000
000000000000
001FE0000000
001FC0000000
001FC0000000
003FC0000000
003FC0000000
007F80000000
0FFF00000000
0FFF00000000
0FFE00000000
1FF800000000
1FE000000000
ENDCHAR
STARTCHAR 0123
ENCODING 291
SWIDTH 495 0
DWIDTH 44 0
BBX 45 77 2 -15
BITMAP
0000000000C0
0000000007E0
000000000FE0
000000001FF0
000000003FC0
000000007F80
00000000FF00
00000000FE00
00000001FE00
00000001FC00
00000001FC00
00000003FC00
00000003F800
00000003F800
000000000000
000000000000
000000000000
000000000000
000000000000
000000000000
0000001FFF80
000001FFFFF0
000007FFFFF8
00001FFFFFF8
00007FFFFFF8
0000FFFFFFF0
0001FFF007F0
0003FF800FF0
0007FE000FF0
000FFC000FE0
001FF0000FE0
003FE0001FE0
003FC0001FE0
007FC0001FC0
007F80001FC0
00FF00001FC0
00FF00003FC0
01FE00003F80
01FE00003F80
01FC00003F80
01FC00007F80
03FC00007F00
03F800007F00
03F800007F00
03F80000FF00
03F80000FE00
03F80000FE00
03F80000FE00
03F80001FE00
03F80001FC00
03F80001FC00
03FC0003FC00
03FE000FFC00
01FF007FF800
01FFFFFFF800
00FFFFFFF800
00FFFFFFF800
007FFFFFF000
001FFFF7F000
0007FF87F000
00000007F000
0000000FE000
0000000FE000
0000001FE000
0000001FC000
0000003FC000
0000007F8000
000000FF8000
300001FF0000
3E0007FF0000
7FE07FFE0000
7FFFFFFC0000
FFFFFFF80000
FFFFFFE00000
7FFFFFC00000
0FFFFE000000
01FFE0000000
ENDCHAR
STARTCHAR 0124
ENCODING 292
SWIDTH 495 0
DWIDTH 44 0
BBX 48 73 3 0
BITMAP
000000002000
00000000F000
00000001F800
00000003F800
00000007FC00
0000000FFE00
0000001FFF00
0000007FFF00
000000FF3F80
000001FE1FC0
000003F80FC0
000003F007E0
000001E003C0
000000800180
000000000100
000000000000
000000000000
000000000000
0007F800007F
0007F000007F
0007F00000FF
0007F00000FE
000FF00000FE
000FE00000FE
000FE00001FE
000FE00001FE
001FE00001FC
001FC00001FC
001FC00003FC
001FC00003FC
003FC00003F8
003F800003F8
003F800007F8
003F800007F8
007F800007F0
007F000007F0
007F000007F0
007F00000FF0
00FF00000FE0
00FF00000FE0
00FE00000FE0
00FFFFFFFFE0
01FFFFFFFFC0
01FFFFFFFFC0
01FFFFFFFFC0
01FFFFFFFFC0
01FFFFFFFF80
03FC00003F80
03F800003F80
03F800007F80
03F800007F00
07F800007F00
07F000007F00
07F00000FF00
07F00000FF00
0FF00000FE00
0FE00000FE00
0FE00001FE00
0FE00001FE00
1FE00001FC00
1FC00001FC00
1FC00003FC00
1FC00003FC00
3FC00003F800
3F800003F800
3F800003F800
3F800007F800
3F800007F000
7F800007F000
7F000007F000
7F00000FF000
7F00000FE000
FF00000FE000
ENDCHAR
STARTCHAR 0125
ENCODING 293
SWIDTH 495 0
DWIDTH 44 0
BBX 38 74 4 0
BITMAP
0000008000
000001C000
000003E000
00000FF000
00001FF800
00007FFC00
0000FFFC00
0001FE7E00
0003F83F00
0001F01F00
0001C00E00
0000000400
0000000000
0000040000
0003FC0000
0003F80000
0003F80000
0007F80000
0007F80000
0007F00000
0007F00000
0007F00000
000FF00000
000FE00000
000FE00000
000FE00000
001FE00000
001FC00000
001FC00000
001FC00000
003FC00000
003F800000
003F8FFC00
003FFFFF00
007FFFFFC0
007FFFFFE0
007FFFFFF0
007FFFFFF8
00FFF07FF8
00FF000FF8
00FE0007FC
00FE0003FC
00FE0003FC
01FE0001FC
01FC0001FC
01FC0001FC
01FC0001FC
03FC0001FC
03F80001FC
03F80001FC
03F80003FC
07F80003F8
07F00003F8
07F00003F8
07F00007F8
0FF00007F0
0FF00007F0
0FE00007F0
0FE0000FF0
1FE0000FF0
1FE0000FE0
1FC0000FE0
1FC0001FE0
1FC0001FE0
3FC0001FC0
3F80001FC0
3F80003FC0
3F80003FC0
7F80003F80
7F00003F80
7F00003F80
7F00007F80
FF00007F00
FE00007F00
ENDCHAR
STARTCHAR 0126
ENCODING 294
SWIDTH 495 0
DWIDTH 44 0
BBX 47 55 6 0
BITMAP
0007F0001FE0
000FF0001FE0
000FE0001FC0
000FE0001FC0
000FE0001FC0
001FE0003FC0
001FC0003F80
001FC0003F80
07FFFFFFFFFE
07FFFFFFFFFC
0FFFFFFFFFFC
0FFFFFFFFFFC
0FFFFFFFFFFC
007F8000FF00
007F8000FE00
007F0000FE00
007F0000FE00
007F0001FE00
00FF0001FC00
00FE0001FC00
00FE0001FC00
00FE0003FC00
01FE0003F800
01FFFFFFF800
01FFFFFFF800
01FFFFFFF800
03FFFFFFF000
03FFFFFFF000
03FFFFFFF000
03F8000FF000
07F8000FF000
07F0000FE000
07F0000FE000
07F0001FE000
0FF0001FE000
0FE0001FC000
0FE0001FC000
0FE0001FC000
0FE0003FC000
1FE0003F8000
1FC0003F8000
1FC0003F8000
1FC0007F8000
3FC0007F0000
3F80007F0000
3F80007F0000
3F8000FF0000
7F8000FE0000
7F0000FE0000
7F0000FE0000
7F0001FE0000
FF0001FC0000
FE0001FC0000
FE0001FC0000
FE0003FC0000
ENDCHAR
STARTCHAR 0127
ENCODING 295
SWIDTH 495 0
DWIDTH 44 0
BBX 37 61 7 1
BITMAP
0001FC0000
0003FC0000
0003F80000
0003F80000
0003F80000
0007F80000
0007F00000
01FFFFFF80
01FFFFFF80
01FFFFFF80
03FFFFFF00
03FFFFFF00
000FE00000
000FE00000
001FE00000
001FC00000
001FC00000
001FC00000
003FC00000
003F8FF800
003FFFFF00
003FFFFF80
007FFFFFC0
007FFFFFE0
007FFFFFE0
007FF07FF0
00FF001FF0
00FF000FF0
00FE0007F8
00FE0007F8
01FE0007F8
01FE0003F8
01FC0003F8
01FC0003F8
03FC0007F8
03FC0007F8
03F80007F0
03F80007F0
03F80007F0
07F8000FF0
07F0000FF0
07F0000FE0
07F0000FE0
0FF0001FE0
0FE0001FE0
0FE0001FC0
0FE0001FC0
1FE0001FC0
1FC0003FC0
1FC0003F80
1FC0003F80
3FC0003F80
3F80007F80
3F80007F00
3F80007F00
7F80007F00
7F8000FF00
7F0000FE00
7F0000FE00
FF0000FE00
FF0001FE00
ENDCHAR
STARTCHAR 0128
ENCODING 296
SWIDTH 495 0
DWIDTH 44 0
BBX 43 71 6 0
BITMAP
000000000100
000003F801C0
00000FFE03E0
00001FFF87E0
00003FFFFFC0
00007FFFFF80
00007E3FFF80
0000FC0FFE00
00007803FC00
000010000000
000000000000
000000000000
000000000000
000000000000
000000000000
000000000000
0007FFFFFFC0
0007FFFFFFC0
0007FFFFFF80
0007FFFFFF80
000FFFFFFF80
000FFFFFFF80
000001FC0000
000003FC0000
000003F80000
000003F80000
000003F80000
000007F80000
000007F00000
000007F00000
000007F00000
00000FF00000
00000FF00000
00000FE00000
00000FE00000
00001FE00000
00001FE00000
00001FC00000
00001FC00000
00003FC00000
00003FC00000
00003F800000
00003F800000
00007F800000
00007F800000
00007F000000
00007F000000
00007F000000
0000FF000000
0000FE000000
0000FE000000
0000FE000000
0001FE000000
0001FC000000
0001FC000000
0001FC000000
0003FC000000
0003F8000000
0003F8000000
0003F8000000
0007F8000000
0007F0000000
0007F0000000
0007F0000000
000FF0000000
3FFFFFFC0000
7FFFFFFC0000
7FFFFFFC0000
7FFFFFF80000
7FFFFFF80000
FFFFFFF80000
ENDCHAR
STARTCHAR 0129
ENCODING 297
SWIDTH 495 0
DWIDTH 44 0
BBX 32 58 12 0
BITMAP
000F800C
003FE01F
00FFF83F
00FFFFFF
01FFFFFE
03FFFFFC
03E07FF8
03C01FF0
00C00300
00000000
00000000
00000000
00000000
00000000
00000000
00000000
00000000
7FFFF000
7FFFF000
7FFFF000
FFFFF000
FFFFE000
FFFFE000
000FE000
001FE000
001FC000
001FC000
001FC000
003FC000
003FC000
003F8000
003F8000
007F8000
007F8000
007F0000
007F0000
00FF0000
00FF0000
00FE0000
00FE0000
00FE0000
01FE0000
01FE0000
01FC0000
01FC0000
01FC0000
01FC0000
01FC0000
01FC0000
01FE0000
01FE0000
01FF8040
00FFFFC0
00FFFFC0
007FFFC0
003FFFC0
001FFFC0
0007FF80
ENDCHAR
STARTCHAR 012A
ENCODING 298
SWIDTH 495 0
DWIDTH 44 0
BBX 42 69 6 0
BITMAP
00000FFFFFC0
00000FFFFFC0
00000FFFFFC0
00001FFFFFC0
00001FFFFF80
00001FFFFF80
000000000000
000000000000
000000000000
000000000000
000000000000
000000000000
000000000000
000000000000
0007FFFFFFC0
0007FFFFFFC0
0007FFFFFF80
0007FFFFFF80
000FFFFFFF80
000FFFFFFF80
000001FC0000
000003FC0000
000003F80000
000003F80000
000003F80000
000007F80000
000007F00000
000007F00000
000007F00000
00000FF00000
00000FF00000
00000FE00000
00000FE00000
00001FE00000
00001FE00000
00001FC00000
00001FC00000
00003FC00000
00003FC00000
00003F800000
00003F800000
00007F800000
00007F800000
00007F000000
00007F000000
00007F000000
0000FF000000
0000FE000000
0000FE000000
0000FE000000
0001FE000000
0001FC000000
0001FC000000
0001FC000000
0003FC000000
0003F8000000
0003F8000000
0003F8000000
0007F8000000
0007F0000000
0007F0000000
0007F0000000
000FF0000000
3FFFFFFC0000
7FFFFFFC0000
7FFFFFFC0000
7FFFFFF80000
7FFFFFF80000
FFFFFFF80000
ENDCHAR
STARTCHAR 012B
ENCODING 299
SWIDTH 495 0
DWIDTH 44 0
BBX 31 56 12 0
BITMAP
00FFFFFE
00FFFFFC
00FFFFFC
00FFFFFC
00FFFFFC
00000000
00000000
00000000
00000000
00000000
00000000
00000000
00000000
00000000
00000000
7FFFF000
7FFFF000
7FFFF000
FFFFF000
FFFFE000
FFFFE000
000FE000
001FE000
001FC000
001FC000
001FC000
003FC000
003FC000
003F8000
003F8000
007F8000
007F8000
007F0000
007F0000
00FF0000
00FF0000
00FE0000
00FE0000
00FE0000
01FE0000
01FE0000
01FC0000
01FC0000
01FC0000
01FC0000
01FC0000
01FC0000
01FE0000
01FE0000
01FF8040
00FFFFC0
00FFFFC0
007FFFC0
003FFFC0
001FFFC0
0007FF80
ENDCHAR
STARTCHAR 012C
ENCODING 300
SWIDTH 495 0
DWIDTH 44 0
BBX 42 72 6 0
BITMAP
0000078007C0
0000078007C0
000007800FC0
000007C01F80
000007C01F80
000007F07F00
000007FFFF00
000003FFFE00
000001FFFC00
000000FFF000
0000003FC000
000000000000
000000000000
000000000000
000000000000
000000000000
000000000000
0007FFFFFFC0
0007FFFFFFC0
0007FFFFFF80
0007FFFFFF80
000FFFFFFF80
000FFFFFFF80
000001FC0000
000003FC0000
000003F80000
000003F80000
000003F80000
000007F80000
000007F00000
000007F00000
000007F00000
00000FF00000
00000FF00000
00000FE00000
00000FE00000
00001FE00000
00001FE00000
00001FC00000
00001FC00000
00003FC00000
00003FC00000
00003F800000
00003F800000
00007F800000
00007F800000
00007F000000
00007F000000
00007F000000
0000FF000000
0000FE000000
0000FE000000
0000FE000000
0001FE000000
0001FC000000
0001FC000000
0001FC000000
0003FC000000
0003F8000000
0003F8000000
0003F8000000
0007F8000000
0007F0000000
0007F0000000
0007F0000000
000FF0000000
3FFFFFFC0000
7FFFFFFC0000
7FFFFFFC0000
7FFFFFF80000
7FFFFFF80000
FFFFFFF80000
ENDCHAR
STARTCHAR 012D
ENCODING 301
SWIDTH 495 0
DWIDTH 44 0
BBX 31 59 12 0
BITMAP
003E003E
003E003E
003E007E
003E00FC
003F01FC
003FFFF8
001FFFF0
000FFFF0
0007FFC0
0003FF00
00007000
00000000
00000000
00000000
00000000
00000000
00000000
00000000
7FFFF000
7FFFF000
7FFFF000
FFFFF000
FFFFE000
FFFFE000
000FE000
001FE000
001FC000
001FC000
001FC000
003FC000
003FC000
003F8000
003F8000
007F8000
007F8000
007F0000
007F0000
00FF0000
00FF0000
00FE0000
00FE0000
00FE0000
01FE0000
01FE0000
01FC0000
01FC0000
01FC0000
01FC0000
01FC0000
01FC0000
01FE0000
01FE0000
01FF8040
00FFFFC0
00FFFFC0
007FFFC0
003FFFC0
001FFFC0
0007FF80
ENDCHAR
STARTCHAR 012E
ENCODING 302
SWIDTH 495 0
DWIDTH 44 0
BBX 42 70 6 -15
BITMAP
0007FFFFFFC0
0007FFFFFFC0
0007FFFFFF80
0007FFFFFF80
000FFFFFFF80
000FFFFFFF80
000001FC0000
000003FC0000
000003F80000
000003F80000
000003F80000
000007F80000
000007F00000
000007F00000
000007F00000
00000FF00000
00000FF00000
00000FE00000
00000FE00000
00001FE00000
00001FE00000
00001FC00000
00001FC00000
00003FC00000
00003FC00000
00003F800000
00003F800000
00007F800000
00007F800000
00007F000000
00007F000000
00007F000000
0000FF000000
0000FE000000
0000FE000000
0000FE000000
0001FE000000
0001FC000000
0001FC000000
0001FC000000
0003FC000000
0003F8000000
0003F8000000
0003F8000000
0007F8000000
0007F0000000
0007F0000000
0007F0000000
000FF0000000
3FFFFFFC0000
7FFFFFFC0000
7FFFFFFC0000
7FFFFFF80000
7FFFFFF80000
FFFFFFF80000
003F80000000
007F00000000
00FE00000000
01F800000000
03F000000000
07E000000000
0FE000000000
0FC000000000
1FC000000000
1FF100000000
1FFF00000000
1FFF00000000
0FFF00000000
07FF00000000
01FC00000000
ENDCHAR
STARTCHAR 012F
ENCODING 303
SWIDTH 495 0
DWIDTH 44 0
BBX 26 75 12 -15
BITMAP
00002000
0001FC00
0003FE00
0007FE00
000FFF00
000FFF00
000FFF00
000FFF00
000FFE00
000FFE00
0007FC00
0003F000
00000000
00000000
00000000
00000000
00000000
00000000
00000000
7FFFF000
7FFFF000
7FFFF000
FFFFF000
FFFFE000
FFFFE000
000FE000
001FE000
001FC000
001FC000
001FC000
003FC000
003FC000
003F8000
003F8000
007F8000
007F8000
007F0000
007F0000
00FF0000
00FF0000
00FE0000
00FE0000
00FE0000
01FE0000
01FE0000
01FC0000
01FC0000
01FC0000
01FC0000
01FC0000
01FC0000
01FE0000
01FE0000
01FF8040
00FFFFC0
00FFFFC0
007FFFC0
003FFFC0
001FFFC0
0007FF80
00007F00
0001FC00
0003F800
0007F000
000FE000
001FC000
001F8000
003F8000
003F8000
003FC200
003FFE00
003FFE00
001FFC00
000FFC00
0003F800
ENDCHAR
STARTCHAR 0130
ENCODING 304
SWIDTH 495 0
DWIDTH 44 0
BBX 42 71 6 0
BITMAP
0000000F0000
0000001F8000
0000003FC000
0000007FC000
0000007FC000
0000007FC000
0000007FC000
0000007FC000
0000003F8000
0000001E0000
000000000000
000000000000
000000000000
000000000000
000000000000
000000000000
0007FFFFFFC0
0007FFFFFFC0
0007FFFFFF80
0007FFFFFF80
000FFFFFFF80
000FFFFFFF80
000001FC0000
000003FC0000
000003F80000
000003F80000
000003F80000
000007F80000
000007F00000
000007F00000
000007F00000
00000FF00000
00000FF00000
00000FE00000
00000FE00000
00001FE00000
00001FE00000
00001FC00000
00001FC00000
00003FC00000
00003FC00000
00003F800000
00003F800000
00007F800000
00007F800000
00007F000000
00007F000000
00007F000000
0000FF000000
0000FE000000
0000FE000000
0000FE000000
0001FE000000
0001FC000000
0001FC000000
0001FC000000
0003FC000000
0003F8000000
0003F8000000
0003F8000000
0007F8000000
0007F0000000
0007F0000000
0007F0000000
000FF0000000
3FFFFFFC0000
7FFFFFFC0000
7FFFFFFC0000
7FFFFFF80000
7FFFFFF80000
FFFFFFF80000
ENDCHAR
STARTCHAR 0131
ENCODING 305
SWIDTH 495 0
DWIDTH 44 0
BBX 26 41 12 0
BITMAP
7FFFF000
7FFFF000
7FFFF000
FFFFF000
FFFFE000
FFFFE000
000FE000
001FE000
001FC000
001FC000
001FC000
003FC000
003FC000
003F8000
003F8000
007F8000
007F8000
007F0000
007F0000
00FF0000
00FF0000
00FE0000
00FE0000
00FE0000
01FE0000
01FE0000
01FC0000
01FC0000
01FC0000
01FC0000
01FC0000
01FC0000
01FE0000
01FE0000
01FF8040
00FFFFC0
00FFFFC0
007FFFC0
003FFFC0
001FFFC0
0007FF80
ENDCHAR
STARTCHAR 0132
ENCODING 306
SWIDTH 495 0
DWIDTH 44 0
BBX 51 56 2 -1
BITMAP
0007F000000FE0
0007F000001FE0
000FF000001FC0
000FE000001FC0
000FE000001FC0
000FE000003FC0
001FE000003FC0
001FC000003F80
001FC000003F80
001FC000007F80
003FC000007F80
003F8000007F00
003F8000007F00
003F800000FF00
007F800000FF00
007F800000FE00
007F000000FE00
007F000001FE00
007F000001FE00
00FF000001FC00
00FE000001FC00
00FE000001FC00
00FE000003FC00
01FE000003F800
01FC000003F800
01FC000003F800
01FC000007F800
03FC000007F000
03F8000007F000
03F8000007F000
03F800000FF000
07F800000FE000
07F000000FE000
07F000000FE000
07F000001FE000
0FF000001FE000
0FF000001FC000
0FE000001FC000
0FE000003FC000
0FE000003FC000
1FE000003F8000
1FC000003F8000
1FC000007F8000
1FC000007F0000
3FC000007F0000
3F800000FF0000
3F808001FE0000
3F80C003FE0000
7F81F007FC0000
7F03FC1FFC0000
7F07FFFFF80000
7F07FFFFF00000
FF07FFFFE00000
FE03FFFFC00000
FE00FFFF000000
00001FF8000000
ENDCHAR
STARTCHAR 0133
ENCODING 307
SWIDTH 495 0
DWIDTH 44 0
BBX 39 74 9 -15
BITMAP
0003E000F8
0007F001FC
000FF803FE
001FF807FE
001FF807FE
001FF807FE
001FF807FE
001FF807FE
001FF007FC
000FE003F8
00078000E0
0000000000
0000000000
0000000000
0000000000
0000000000
0000000000
0000000000
007F801FE0
007F001FE0
007F001FC0
007F001FC0
00FF003FC0
00FE003FC0
00FE003F80
00FE003F80
01FE003F80
01FC007F80
01FC007F00
01FC007F00
03FC007F00
03FC00FF00
03F800FE00
03F800FE00
07F800FE00
07F801FE00
07F001FC00
07F001FC00
0FF001FC00
0FF003FC00
0FE003F800
0FE003F800
0FE003F800
1FE007F800
1FC007F800
1FC007F000
1FC007F000
3FC00FF000
3F800FF000
3F800FE000
3F800FE000
7F800FE000
7F001FE000
7F001FC000
7F001FC000
FF001FC000
FF003FC000
FE003F8000
FE003F8000
00003F8000
00007F8000
00007F0000
0000FF0000
0000FF0000
0001FE0000
0001FE0000
0807FC0000
0FBFFC0000
0FFFF80000
0FFFF00000
1FFFE00000
1FFFC00000
1FFF000000
07F8000000
ENDCHAR
STARTCHAR 0134
ENCODING 308
SWIDTH 495 0
DWIDTH 44 0
BBX 43 74 6 -1
BITMAP
000000002000
000000007000
00000001F800
00000003FC00
00000007FC00
0000000FFE00
0000001FFF00
0000003FFF00
000000FF3F80
000001FE1FC0
000003FC0FE0
000001F007E0
000001E003C0
000000800180
000000000000
000000000000
000000000000
000000000000
00007FFFFFE0
00007FFFFFE0
00007FFFFFE0
0000FFFFFFC0
0000FFFFFFC0
0000FFFFFFC0
000000003FC0
000000003F80
000000003F80
000000003F80
000000007F80
000000007F80
000000007F00
000000007F00
00000000FF00
00000000FF00
00000000FE00
00000000FE00
00000001FE00
00000001FE00
00000001FC00
00000001FC00
00000001FC00
00000003FC00
00000003F800
00000003F800
00000003F800
00000007F800
00000007F000
00000007F000
00000007F000
0000000FF000
0000000FF000
0000000FE000
0000000FE000
0000001FE000
0000001FE000
0000001FC000
0000001FC000
0000003FC000
0000003F8000
0000003F8000
0000007F8000
0000007F0000
000000FF0000
000001FF0000
180001FE0000
3C0003FE0000
3F000FFC0000
7FF07FFC0000
FFFFFFF80000
FFFFFFF00000
3FFFFFE00000
1FFFFF800000
07FFFE000000
00FFF0000000
ENDCHAR
STARTCHAR 0135
ENCODING 309
SWIDTH 495 0
DWIDTH 44 0
BBX 42 76 2 -15
BITMAP
000000004000
00000000E000
00000001F000
00000003F800
00000007F800
0000000FFC00
0000003FFE00
0000007FFE00
000000FF7F00
000001FE3F80
000003F81FC0
000003F00FC0
000003E007C0
000001800380
000000000000
000000000000
000000000000
000000000000
000000000000
000000000000
0000FFFFFF00
0000FFFFFF00
0000FFFFFF00
0000FFFFFF00
0001FFFFFE00
0001FFFFFE00
00000000FE00
00000001FE00
00000001FC00
00000001FC00
00000001FC00
00000003FC00
00000003F800
00000003F800
00000003F800
00000007F800
00000007F000
00000007F000
00000007F000
0000000FF000
0000000FE000
0000000FE000
0000000FE000
0000001FE000
0000001FC000
0000001FC000
0000001FC000
0000003FC000
0000003FC000
0000003F8000
0000003F8000
0000007F8000
0000007F8000
0000007F0000
0000007F0000
000000FF0000
000000FF0000
000000FE0000
000000FE0000
000000FE0000
000001FE0000
000001FC0000
000001FC0000
000003FC0000
000003F80000
000007F80000
000007F80000
30000FF00000
3C003FE00000
7FE1FFE00000
7FFFFFC00000
FFFFFF800000
FFFFFF000000
7FFFFC000000
1FFFF0000000
01FF00000000
ENDCHAR
STARTCHAR 0136
ENCODING 310
SWIDTH 495 0
DWIDTH 44 0
BBX 48 70 4 -15
BITMAP
0007F00001FF
0007F00003FE
0007F00007FC
000FF0000FF8
000FE0001FF0
000FE0003FE0
000FE0007FC0
001FE000FF80
001FC001FF00
001FC003FE00
001FC007FC00
003FC00FF800
003F801FF000
003F803FE000
003F807FC000
007F80FF8000
007F01FF0000
007F03FE0000
007F07FC0000
00FF0FF80000
00FF1FF00000
00FE3FE00000
00FEFFC00000
00FFFF000000
01FFFE000000
01FFFC000000
01FFF8000000
01FFFC000000
03FFFE000000
03F9FF000000
03F8FF800000
03F87F800000
07F87FC00000
07F03FE00000
07F01FE00000
07F00FF00000
0FF00FF80000
0FE007F80000
0FE003FC0000
0FE003FC0000
1FE001FE0000
1FE000FE0000
1FC000FF0000
1FC0007F0000
1FC0007F8000
3FC0003F8000
3F80003FC000
3F80001FC000
3F80001FE000
7F80001FE000
7F00000FF000
7F00000FF000
7F000007F800
FF000007F800
FE000007F800
000000000000
000000000000
000000000000
000000000000
0007F0000000
0007F0000000
000FF0000000
000FE0000000
001FE0000000
003FE0000000
07FFC0000000
07FF80000000
07FF00000000
07FE00000000
07F000000000
ENDCHAR
STARTCHAR 0137
ENCODING 311
SWIDTH 495 0
DWIDTH 44 0
BBX 42 77 6 -15
BITMAP
000004000000
0001F8000000
0003F8000000
0003F8000000
0007F8000000
0007F8000000
0007F0000000
0007F0000000
000FF0000000
000FF0000000
000FE0000000
000FE0000000
001FE0000000
001FE0000000
001FC0000000
001FC0000000
001FC0000000
003FC0000000
003F80000000
003F80000000
003F80000000
007F80007FC0
007F0000FF80
007F0001FF00
007F0007FE00
00FF000FF800
00FE001FF000
00FE003FE000
00FE00FFC000
01FE01FF8000
01FC03FE0000
01FC07FC0000
01FC1FF80000
03FC3FF00000
03F87FC00000
03F9FF800000
03FBFF000000
07FFFC000000
07FFF8000000
07FFF0000000
07FFF8000000
07FFFC000000
0FF7FE000000
0FE3FE000000
0FE1FF000000
0FE0FF800000
1FE07FC00000
1FC03FE00000
1FC01FE00000
1FC01FF00000
3FC00FF80000
3F8007F80000
3F8007FC0000
3F8003FC0000
7F8001FE0000
7F0001FF0000
7F0000FF0000
7F0000FF8000
FF00007F8000
FF00007FC000
FE00003FC000
FE00003FC000
000000000000
000000000000
000000000000
000000000000
000FF0000000
000FE0000000
000FE0000000
001FE0000000
001FE0000000
003FC0000000
07FF80000000
07FF80000000
07FF00000000
0FFC00000000
0FF000000000
ENDCHAR
STARTCHAR 0138
ENCODING 312
SWIDTH 495 0
DWIDTH 44 0
BBX 42 41 6 0
BITMAP
007F80007FC0
007F0000FF80
007F0001FF00
007F0003FE00
00FF000FF800
00FE001FF000
00FE003FE000
00FE007FC000
01FE01FF8000
01FC03FE0000
01FC07FC0000
01FC0FF80000
03FC3FF00000
03FC7FC00000
03F8FF800000
03FBFF000000
07FFFC000000
07FFF8000000
07FFF0000000
07FFF0000000
0FFFF8000000
0FF7FC000000
0FE3FE000000
0FE1FF000000
0FE0FF800000
1FE07FC00000
1FC03FE00000
1FC01FE00000
1FC01FF00000
3FC00FF80000
3F8007F80000
3F8007FC0000
3F8003FE0000
7F8001FE0000
7F0001FF0000
7F0000FF0000
7F0000FF8000
FF00007F8000
FF00007FC000
FE00003FC000
FE00003FE000
ENDCHAR
STARTCHAR 0139
ENCODING 313
SWIDTH 495 0
DWIDTH 44 0
BBX 32 74 5 0
BITMAP
00000008
00000018
0000003C
0000007E
000000FE
000001FF
000003FF
000007FC
00000FF8
00001FF0
00003FC0
00007F80
0000FF00
00007E00
00003800
00003000
00000000
00000000
00000000
0007F000
0007F000
000FF000
000FE000
000FE000
000FE000
001FE000
001FE000
001FC000
001FC000
001FC000
003FC000
003F8000
003F8000
003F8000
007F8000
007F0000
007F0000
007F0000
00FF0000
00FE0000
00FE0000
00FE0000
01FE0000
01FC0000
01FC0000
01FC0000
03FC0000
03F80000
03F80000
03F80000
07F80000
07F80000
07F00000
07F00000
0FF00000
0FF00000
0FE00000
0FE00000
0FE00000
1FE00000
1FC00000
1FC00000
1FC00000
3FC00000
3F800000
3F800000
3F800000
7F800000
7FFFFFFF
7FFFFFFF
7FFFFFFF
FFFFFFFF
FFFFFFFE
FFFFFFFE
ENDCHAR
STARTCHAR 013A
ENCODING 314
SWIDTH 495 0
DWIDTH 44 0
BBX 25 74 16 0
BITMAP
00000700
00001F00
00007F00
0001FF80
0007FF80
001FFE00
003FF800
001FC000
001E0000
00100000
00000000
00000000
00000000
7FFFF000
7FFFF000
7FFFF000
FFFFF000
FFFFE000
FFFFE000
001FE000
001FE000
001FC000
001FC000
001FC000
003FC000
003F8000
003F8000
003F8000
007F8000
007F0000
007F0000
007F0000
00FF0000
00FE0000
00FE0000
00FE0000
01FE0000
01FC0000
01FC0000
01FC0000
03FC0000
03FC0000
03F80000
03F80000
07F80000
07F80000
07F00000
07F00000
07F00000
0FF00000
0FE00000
0FE00000
0FE00000
1FE00000
1FC00000
1FC00000
1FC00000
3FC00000
3F800000
3F800000
3F800000
3F800000
3F800000
3F800000
3F800000
3FC00000
3FC00600
3FF87E00
3FFFFE00
1FFFFE00
1FFFFE00
0FFFFE00
03FFF800
00FFC000
ENDCHAR
STARTCHAR 013B
ENCODING 315
SWIDTH 495 0
DWIDTH 44 0
BBX 32 70 5 -15
BITMAP
0007F000
0007F000
000FF000
000FE000
000FE000
000FE000
001FE000
001FE000
001FC000
001FC000
001FC000
003FC000
003F8000
003F8000
003F8000
007F8000
007F0000
007F0000
007F0000
00FF0000
00FE0000
00FE0000
00FE0000
01FE0000
01FC0000
01FC0000
01FC0000
03FC0000
03F80000
03F80000
03F80000
07F80000
07F80000
07F00000
07F00000
0FF00000
0FF00000
0FE00000
0FE00000
0FE00000
1FE00000
1FC00000
1FC00000
1FC00000
3FC00000
3F800000
3F800000
3F800000
7F800000
7FFFFFFF
7FFFFFFF
7FFFFFFF
FFFFFFFF
FFFFFFFE
FFFFFFFE
00000000
00000000
00000000
00000000
0007F800
0007F000
0007F000
000FF000
000FF000
001FE000
03FFC000
03FFC000
03FF8000
07FE0000
07F80000
ENDCHAR
STARTCHAR 013C
ENCODING 316
SWIDTH 495 0
DWIDTH 44 0
BBX 24 76 15 -15
BITMAP
3FFFF8
3FFFF8
3FFFF8
3FFFF8
7FFFF8
7FFFF0
0007F0
000FF0
000FF0
000FE0
000FE0
000FE0
001FE0
001FC0
001FC0
001FC0
003FC0
003F80
003F80
003F80
007F80
007F00
007F00
007F00
00FF00
00FE00
00FE00
00FE00
01FE00
01FE00
01FC00
01FC00
03FC00
03FC00
03F800
03F800
03F800
07F800
07F000
07F000
07F000
0FF000
0FE000
0FE000
0FE000
1FE000
1FC000
1FC000
1FC000
1FC000
1FC000
1FC000
1FC000
1FE000
1FE003
1FFC3F
1FFFFF
0FFFFF
0FFFFF
07FFFF
01FFFC
007FE0
000000
000000
000000
00FE00
00FE00
00FE00
01FE00
01FC00
03FC00
7FF800
7FF000
FFE000
FFC000
FF0000
ENDCHAR
STARTCHAR 013D
ENCODING 317
SWIDTH 495 0
DWIDTH 44 0
BBX 34 55 5 0
BITMAP
0007F01FC0
0007F01FC0
000FF01FC0
000FE01F80
000FE03F80
000FE03F00
001FE03F00
001FE03F00
001FC07E00
001FC07E00
001FC07E00
003FC07C00
003F80FC00
003F80FC00
003F80F800
007F80F800
007F01F000
007F000000
007F000000
00FF000000
00FE000000
00FE000000
00FE000000
01FE000000
01FC000000
01FC000000
01FC000000
03FC000000
03F8000000
03F8000000
03F8000000
07F8000000
07F8000000
07F0000000
07F0000000
0FF0000000
0FF0000000
0FE0000000
0FE0000000
0FE0000000
1FE0000000
1FC0000000
1FC0000000
1FC0000000
3FC0000000
3F80000000
3F80000000
3F80000000
7F80000000
7FFFFFFF00
7FFFFFFF00
7FFFFFFF00
FFFFFFFF00
FFFFFFFE00
FFFFFFFE00
ENDCHAR
STARTCHAR 013E
ENCODING 318
SWIDTH 495 0
DWIDTH 44 0
BBX 34 63 16 -1
BITMAP
0000001FC0
7FFFF01FC0
7FFFF03F80
7FFFF03F80
7FFFF03F00
FFFFF03F00
FFFFE07F00
000FE07E00
001FE07E00
001FE07E00
001FC07C00
001FC0FC00
001FC0FC00
003FC0F800
003F80F800
003F81F000
003F81F000
007F81F000
007F000000
007F000000
007F000000
00FF000000
00FE000000
00FE000000
00FE000000
01FE000000
01FC000000
01FC000000
01FC000000
03FC000000
03FC000000
03F8000000
03F8000000
07F8000000
07F8000000
07F0000000
07F0000000
07F0000000
0FF0000000
0FE0000000
0FE0000000
0FE0000000
1FE0000000
1FC0000000
1FC0000000
1FC0000000
3FC0000000
3F80000000
3F80000000
3F80000000
3F80000000
3F80000000
3F80000000
3F80000000
3FC0000000
3FC0060000
3FF87E0000
3FFFFE0000
1FFFFE0000
1FFFFE0000
0FFFFE0000
03FFF80000
00FFC00000
ENDCHAR
STARTCHAR 013F
ENCODING 319
SWIDTH 495 0
DWIDTH 44 0
BBX 36 55 5 0
BITMAP
0007F00000
0007F00000
000FF00000
000FE00000
000FE00000
000FE00000
001FE00000
001FE00000
001FC00000
001FC00000
001FC00000
003FC00000
003F800000
003F800000
003F800000
007F800000
007F000000
007F000000
007F000000
00FF000000
00FE000000
00FE000380
00FE000FC0
01FE001FE0
01FC003FE0
01FC003FF0
01FC003FE0
03FC003FE0
03F8003FE0
03F8001FC0
03F8000F00
07F8000000
07F8000000
07F0000000
07F0000000
0FF0000000
0FF0000000
0FE0000000
0FE0000000
0FE0000000
1FE0000000
1FC0000000
1FC0000000
1FC0000000
3FC0000000
3F80000000
3F80000000
3F80000000
7F80000000
7FFFFFFF00
7FFFFFFF00
7FFFFFFF00
FFFFFFFF00
FFFFFFFE00
FFFFFFFE00
ENDCHAR
STARTCHAR 0140
ENCODING 320
SWIDTH 495 0
DWIDTH 44 0
BBX 35 62 16 -1
BITMAP
7FFFF00000
7FFFF00000
7FFFF00000
7FFFF00000
FFFFF00000
FFFFE00000
000FE00000
001FE00000
001FE00000
001FC00000
001FC00000
001FC00000
003FC00000
003F800000
003F800000
003F800000
007F800000
007F000000
007F000000
007F000000
00FF000000
00FE000000
00FE000000
00FE000000
01FE000000
01FC000000
01FC000000
01FC000300
03FC000FC0
03FC001FE0
03F8003FE0
03F8003FE0
07F8003FE0
07F8003FE0
07F0003FE0
07F0001FC0
07F0000F00
0FF0000000
0FE0000000
0FE0000000
0FE0000000
1FE0000000
1FC0000000
1FC0000000
1FC0000000
3FC0000000
3F80000000
3F80000000
3F80000000
3F80000000
3F80000000
3F80000000
3F80000000
3FC0000000
3FC0060000
3FF87E0000
3FFFFE0000
1FFFFE0000
1FFFFE0000
0FFFFE0000
03FFF80000
00FFC00000
ENDCHAR
STARTCHAR 0141
ENCODING 321
SWIDTH 495 0
DWIDTH 44 0
BBX 33 55 4 0
BITMAP
0001FC0000
0001FC0000
0003FC0000
0003F80000
0003F80000
0003F80000
0007F80000
0007F80000
0007F00000
0007F00000
000FF00000
000FF00000
000FE00000
000FE00000
001FE00000
001FE00000
001FC00000
001FC00000
001FC07000
003FC1F000
003F87F000
003F9FF000
003FFFF800
007FFFF000
007FFFC000
007FFE0000
01FFF80000
07FFE00000
1FFF800000
7FFE000000
FFFE000000
FFFE000000
7FFE000000
79FC000000
61FC000000
03FC000000
03FC000000
03F8000000
03F8000000
07F8000000
07F8000000
07F0000000
07F0000000
07F0000000
0FF0000000
0FE0000000
0FE0000000
0FE0000000
1FE0000000
1FFFFFFF80
1FFFFFFF80
1FFFFFFF80
3FFFFFFF80
3FFFFFFF00
3FFFFFFF00
ENDCHAR
STARTCHAR 0142
ENCODING 322
SWIDTH 495 0
DWIDTH 44 0
BBX 25 62 14 -1
BITMAP
1FFFFC00
1FFFFC00
1FFFFC00
1FFFFC00
3FFFFC00
3FFFF800
0003F800
0007F800
0007F800
0007F000
0007F000
000FF000
000FF000
000FE000
000FE000
000FE000
001FE000
001FC000
001FC000
001FC000
003FC000
003F8200
003F8E00
003FFE00
007FFF00
007FFF00
007FFF00
00FFFC00
03FFF000
0FFFC000
7FFF0000
FFFE0000
7FFE0000
7FFE0000
7DFC0000
71FC0000
41FC0000
03FC0000
03F80000
03F80000
03F80000
07F80000
07F00000
07F00000
07F00000
0FF00000
0FE00000
0FE00000
0FE00000
0FE00000
0FE00000
0FE00000
0FE00000
0FF00000
0FF00180
0FFE1F80
0FFFFF80
07FFFF80
07FFFF80
03FFFF80
00FFFE00
003FF000
ENDCHAR
STARTCHAR 0143
ENCODING 323
SWIDTH 495 0
DWIDTH 44 0
BBX 47 73 4 1
BITMAP
000000000700
000000000F00
000000001F80
000000003FC0
000000007FE0
00000000FFC0
00000001FF80
00000003FF00
00000007FC00
0000000FF800
0000001FF000
0000001FC000
0000001F8000
0000000F0000
000000040000
000000000000
000000000000
000000000000
0007F000007E
000FF00000FE
000FF80000FE
000FF80000FE
000FF80000FC
001FFC0001FC
001FFC0001FC
001FFC0001FC
001FFE0001F8
003FFE0001F8
003FFE0003F8
003FFE0003F8
003F7F0003F0
003F3F0003F0
007F3F0007F0
007F3F8007F0
007E1F8007F0
007E1F8007E0
00FE1F800FE0
00FE1FC00FE0
00FC0FC00FE0
00FC0FC00FC0
01FC0FC01FC0
01FC0FE01FC0
01F807E01FC0
01F807E01F80
03F807E03F80
03F807F03F80
03F803F03F80
03F003F03F00
07F003F03F00
07F003F07F00
07F001F87F00
07E001F87E00
0FE001F87E00
0FE001F8FE00
0FE000F8FE00
0FC000FCFC00
0FC000FCFC00
1FC000FDFC00
1FC000FDFC00
1F80007DF800
1F80007DF800
3F80007FF800
3F80007FF800
3F00007FF800
3F00003FF000
7F00003FF000
7F00003FF000
7F00003FF000
7E00003FE000
FE00003FE000
FE00001FE000
FE00001FE000
FC00001FC000
ENDCHAR
STARTCHAR 0144
ENCODING 324
SWIDTH 495 0
DWIDTH 44 0
BBX 38 61 6 0
BITMAP
0000000040
00000000E0
00000001F0
00000003F0
0000000FF8
0000001FF8
0000003FF0
0000007FE0
000000FF80
000001FF00
000003FE00
000007FC00
000003F000
000001E000
000001C000
0000000000
0000000000
0000000000
0000000000
00007FFC00
000FFFFF00
007FFFFFC0
007FFFFFE0
007FFFFFF0
00FFFFFFF0
00FFC07FF8
00FE000FF8
00FE0007F8
01FE0003FC
01FC0003FC
01FC0003FC
01FC0001FC
03FC0001FC
03FC0001FC
03F80003FC
03F80003FC
07F80003F8
07F80003F8
07F00003F8
07F00007F8
0FF00007F8
0FF00007F0
0FE00007F0
0FE00007F0
0FE0000FF0
1FE0000FE0
1FC0000FE0
1FC0000FE0
1FC0001FE0
3FC0001FC0
3F80001FC0
3F80001FC0
3F80003FC0
7F80003F80
7F00003F80
7F00003F80
7F00007F80
FF00007F00
FF00007F00
FE00007F00
FE0000FF00
ENDCHAR
ENDFONT
